<?xml version="1.0" encoding="UTF-8"?>
<svg version="1.1" xmlns="http://www.w3.org/2000/svg" width="991" height="991">
<path d="M0 0 C4.95 0 9.9 0 15 0 C15 0.66 15 1.32 15 2 C15.9075 2.268125 16.815 2.53625 17.75 2.8125 C20.8808759 3.95647389 22.68386052 4.64392708 25 7 C25.390625 10.13671875 25.390625 10.13671875 25.25 13.6875 C25.21390625 14.86699219 25.1778125 16.04648437 25.140625 17.26171875 C25.09421875 18.16535156 25.0478125 19.06898438 25 20 C24.34 20.33 23.68 20.66 23 21 C21.94592192 22.80077153 21.94592192 22.80077153 20.96875 25.0234375 C20.5759082 25.8693042 20.18306641 26.7151709 19.77832031 27.58666992 C19.35647461 28.50681885 18.93462891 29.42696777 18.5 30.375 C13.64266089 40.76235463 8.428778 50.90210236 3 61 C2.46858398 61.99161133 1.93716797 62.98322266 1.38964844 64.00488281 C-5.20066121 76.30102308 -11.84069551 88.56963611 -18.53076172 100.81176758 C-22.75264989 108.53836868 -26.94657677 116.27992038 -31.13598633 124.02416992 C-34.31898906 129.90521453 -37.51496367 135.77891731 -40.72363281 141.64599609 C-49.09859628 156.96258795 -57.25975343 172.35245118 -65 188 C-65.66581565 189.3337585 -66.33199094 190.66733871 -67 192 C-65.5459375 191.41992188 -65.5459375 191.41992188 -64.0625 190.828125 C-40.85708007 181.74748931 -16.63557771 176.39972224 7.16796875 186.3203125 C13.96885327 189.75358662 20.79476555 194.42994177 24.1875 201.4609375 C26.6240386 209.07512061 24.91416991 215.76779088 21.6640625 222.8671875 C15.76071698 233.98099761 7.75288454 243.07142709 -1 252 C-1.74733398 252.76248047 -2.49466797 253.52496094 -3.26464844 254.31054688 C-5.75261226 256.83923187 -8.24887087 259.35933787 -10.75 261.875 C-11.54196777 262.67180176 -12.33393555 263.46860352 -13.14990234 264.28955078 C-17.93962106 269.06524397 -22.87033193 273.59403717 -28 278 C-29.67052462 279.49570227 -31.33780832 280.99504266 -33 282.5 C-35.98062721 285.18983431 -38.97245233 287.86310364 -42 290.5 C-45.84483954 293.85072361 -49.63746316 297.25704111 -53.421875 300.67578125 C-55.13545417 302.22059883 -56.85419243 303.75971357 -58.578125 305.29296875 C-61.06801521 307.51172061 -63.53723339 309.75121147 -66 312 C-66.72445313 312.64582031 -67.44890625 313.29164063 -68.1953125 313.95703125 C-73.55114067 318.95648302 -76.81221176 324.43122423 -80 331 C-87.23186925 331.49029622 -87.23186925 331.49029622 -90.9375 329.125 C-94.39593543 325.56176349 -94.46189172 322.73793268 -94.40625 317.91796875 C-92.56716313 304.70837365 -81.2835187 294.15591116 -72.62109375 284.8359375 C-70.56110583 282.60709811 -68.54474004 280.35976597 -66.5625 278.0625 C-62.9833268 273.93400526 -59.26678244 269.93721959 -55.55419922 265.92919922 C-50.98736086 260.99598336 -46.47597345 256.01587686 -42 251 C-41.41992188 250.360625 -40.83984375 249.72125 -40.2421875 249.0625 C-32.44137278 240.3546138 -25.52306178 231.24381135 -19.5625 221.1875 C-19.14959717 220.49470947 -18.73669434 219.80191895 -18.3112793 219.08813477 C-15.67322834 214.52506376 -13.73364785 209.97796633 -12 205 C-37.8027647 212.20399337 -62.57577805 221.71738954 -86.82910156 233.09301758 C-89 234 -89 234 -91 234 C-91.27384018 234.87811844 -91.54768036 235.75623688 -91.82981873 236.66096497 C-92.91991698 239.7714884 -94.18512147 242.51498177 -95.72290039 245.42456055 C-96.28222763 246.49188919 -96.84155487 247.55921783 -97.41783142 248.65888977 C-97.87100896 249.51756873 -97.87100896 249.51756873 -98.3333416 250.39359474 C-100.03048495 253.61313206 -101.70925707 256.84220514 -103.38720703 260.07177734 C-103.7529845 260.77571656 -104.11876196 261.47965578 -104.49562359 262.20492649 C-109.21166208 271.30558923 -113.79006765 280.47538671 -118.37109375 289.64453125 C-119.0442053 290.99132273 -119.0442053 290.99132273 -119.73091507 292.36532211 C-122.50070988 297.90833363 -125.26746792 303.45285624 -128.03326416 308.99786377 C-130.38722354 313.71611633 -132.74351341 318.43320473 -135.09960938 323.15039062 C-138.94574488 330.85140314 -142.79047261 338.55311634 -146.63325405 346.25580311 C-148.50146286 349.99992786 -150.37139561 353.74317345 -152.24502563 357.48458862 C-152.60452584 358.20266284 -152.96402605 358.92073706 -153.3344202 359.6605711 C-154.00157225 360.99282448 -154.66909068 362.3248945 -155.33708096 363.65672779 C-158.46479674 369.90292839 -161.49017394 376.19625715 -164.5 382.5 C-165.03625 383.62019531 -165.5725 384.74039062 -166.125 385.89453125 C-167.41789945 388.59576761 -168.70956488 391.29758576 -170 394 C-169.0615625 393.83886719 -168.123125 393.67773438 -167.15625 393.51171875 C-140.46351915 389.74137052 -94.18878394 390.1147035 -71.8125 406.4375 C-67.26238516 410.36176262 -65.36606435 413.64091864 -64.4375 419.625 C-65.29839311 437.07464118 -85.41061666 452.71236355 -96.91674805 464.12255859 C-99.19970313 466.38710472 -101.47440151 468.65970425 -103.74804688 470.93359375 C-105.22088139 472.40151618 -106.69417266 473.86898049 -108.16796875 475.3359375 C-108.83587936 476.00273529 -109.50378998 476.66953308 -110.19194031 477.35653687 C-114.09951996 481.22544151 -118.11218194 484.92009514 -122.28082275 488.50663757 C-128.10897198 493.56925638 -133.31342971 499.25896954 -138.328125 505.11328125 C-139.94204468 506.93459716 -141.62497231 508.62267968 -143.375 510.3125 C-147.25432383 514.11283308 -150.59818609 518.30821895 -153.984375 522.546875 C-158.38580645 527.90365591 -158.38580645 527.90365591 -162.1875 528.5 C-167.186644 527.84437456 -171.39931597 525.60068403 -175 522 C-176.59331492 511.75726122 -168.94896881 502.45750359 -163.23901367 494.57080078 C-157.96324669 487.46601078 -152.27021569 480.69369703 -146.59082031 473.91113281 C-144.4678835 471.36074157 -142.39176807 468.77354308 -140.3125 466.1875 C-136.24345856 461.20159819 -131.92219091 456.48054045 -127.55078125 451.76171875 C-124.29337015 448.23493522 -121.13550601 444.6349112 -118 441 C-117.06262677 439.92827452 -116.12511408 438.85667102 -115.1875 437.78515625 C-104.45827127 426.38414805 -104.45827127 426.38414805 -97 413 C-103.86770861 411.73784403 -110.72274335 411.54155654 -117.6875 411.3125 C-118.40043213 411.28843079 -119.11336426 411.26436157 -119.84790039 411.23956299 C-131.60502823 410.87015573 -143.26113212 411.1577126 -155 411.875 C-155.74075775 411.92024811 -156.4815155 411.96549622 -157.24472046 412.01211548 C-161.83332794 412.30009751 -166.41847879 412.61358486 -171 413 C-172.07951557 413.00598347 -172.07951557 413.00598347 -173.18083954 413.01208782 C-175.59482592 413.10270817 -177.67775013 413.3230793 -180 414 C-182.03995391 416.40642875 -183.03436159 417.96038578 -184.27539062 420.74780273 C-184.62313034 421.45365005 -184.97087006 422.15949738 -185.32914734 422.88673401 C-186.47029702 425.22160764 -187.56206955 427.57639437 -188.65625 429.93359375 C-189.44790532 431.56899081 -190.24308952 433.20268389 -191.04162598 434.83473206 C-193.13879857 439.13930648 -195.19721177 443.4612035 -197.24517822 447.78936768 C-200.51391121 454.68758831 -203.82956531 461.56292182 -207.16581726 468.42869759 C-208.31678478 470.81518244 -209.4444579 473.21163072 -210.56994629 475.61021423 C-214.33318823 483.49900596 -218.02639051 489.96820894 -224.23791504 496.21937561 C-226.07542077 497.89145909 -226.07542077 497.89145909 -227 500 C-229.27024968 500.08097324 -231.54132075 500.13917704 -233.8125 500.1875 C-235.07707031 500.22230469 -236.34164062 500.25710938 -237.64453125 500.29296875 C-241 500 -241 500 -242.72265625 498.66796875 C-243.35494141 497.84232422 -243.35494141 497.84232422 -244 497 C-245.81443712 495.55003497 -247.63818761 494.11481716 -249.4765625 492.6953125 C-251.52435039 490.41649213 -251.7018468 489.06010295 -252 486 C-251.44175128 483.35922189 -250.80879126 480.92062138 -250 478.359375 C-249.7736084 477.61854675 -249.5472168 476.87771851 -249.31396484 476.11444092 C-246.5791863 467.35732602 -243.30175285 458.80534147 -240 450.25 C-239.3900321 448.65517455 -238.78065564 447.06012278 -238.171875 445.46484375 C-236.72425135 441.67582073 -235.26959615 437.88956112 -233.81103516 434.10473633 C-233.02278545 432.05913106 -232.23575696 430.01306075 -231.44921875 427.96679688 C-230.30015203 424.977605 -229.15040823 421.98867576 -228 419 C-228.76441406 419.06058594 -229.52882813 419.12117188 -230.31640625 419.18359375 C-298.58966688 424.52386083 -298.58966688 424.52386083 -323.125 405 C-328.14833675 400.25573752 -330.6187161 394.73658225 -331.3125 387.9375 C-329.78048769 368.63414489 -312.59673974 352.23228321 -299.625 339.375 C-298.75617188 338.4984375 -297.88734375 337.621875 -296.9921875 336.71875 C-291.70775049 331.44994742 -286.22841834 326.60904667 -280.40625 321.94287109 C-277.71502563 319.76990401 -275.2011244 317.4992133 -272.6875 315.125 C-267.55036786 310.40321046 -262.17048196 306.10802983 -256.65625 301.84375 C-254.21526551 299.95563807 -251.80069579 298.04053853 -249.40625 296.09375 C-240.62313616 288.95296865 -231.60194665 282.22444176 -222.36669922 275.6796875 C-219.98971065 273.99269747 -217.62172751 272.29357498 -215.25390625 270.59375 C-147.16219746 222 -147.16219746 222 -133 222 C-132.61739014 220.73555054 -132.61739014 220.73555054 -132.22705078 219.44555664 C-130.90532769 215.73416031 -129.22169267 212.33393403 -127.3671875 208.87109375 C-126.83389328 207.86466576 -126.83389328 207.86466576 -126.28982544 206.83790588 C-125.53727728 205.42059965 -124.78242061 204.00451703 -124.02539062 202.58959961 C-122.89311205 200.47138322 -121.77024587 198.34838536 -120.6484375 196.22460938 C-116.62530285 188.64878146 -112.40140479 181.29039562 -107.84912109 174.01831055 C-104.98794959 169.34803548 -102.43567779 164.52695368 -99.875 159.6875 C-94.91920985 150.4335945 -89.7586328 141.32716463 -84.44067383 132.27734375 C-79.93384771 124.60762619 -75.47756383 116.91033104 -71.0625 109.1875 C-70.72861267 108.60398773 -70.39472534 108.02047546 -70.05072021 107.41928101 C-66.35662467 100.95879062 -62.6972871 94.48106396 -59.109375 87.9609375 C-52.90934126 76.69478078 -46.63843706 65.54029317 -39.78149414 54.65869141 C-36.38793989 49.2714175 -33.1224057 43.82669524 -29.92529297 38.32055664 C-24.76387754 29.43813829 -19.58666683 20.91608582 -13 13 C-11.80697266 11.56333984 -11.80697266 11.56333984 -10.58984375 10.09765625 C-4.07072064 2.53971352 -4.07072064 2.53971352 0 2 C0 1.34 0 0.68 0 0 Z M-163 275 C-188.60747924 290.57817041 -212.82734376 308.58665216 -235.57421875 328.1015625 C-237.47909908 329.73515956 -239.40577155 331.32191098 -241.37207031 332.88183594 C-249.19943932 339.12153795 -256.31361273 345.91639508 -263.375 353 C-263.96717316 353.59205231 -264.55934631 354.18410461 -265.16946411 354.7940979 C-285.30488958 373.94829148 -285.30488958 373.94829148 -295 399 C-284.23555065 406.17629957 -263.49413661 401.6607428 -251.0625 400.6875 C-250.22642212 400.6226944 -249.39034424 400.55788879 -248.52893066 400.49111938 C-243.7431508 400.11304488 -238.96690434 399.67732066 -234.19046021 399.19607544 C-232.08402904 399.00752172 -229.98506596 398.89202572 -227.87280273 398.79272461 C-221.4194504 398.4746988 -221.4194504 398.4746988 -216.19116211 395.15258789 C-214.76730346 392.5457317 -213.8420849 390.0165334 -212.9375 387.1875 C-212.14185507 385.07407338 -211.34218458 382.96215907 -210.5390625 380.8515625 C-210.13204102 379.73168945 -209.72501953 378.61181641 -209.30566406 377.45800781 C-207.07211547 371.54252869 -204.42999355 365.81587659 -201.8125 360.0625 C-200.99116806 358.23536781 -200.16983618 356.40823558 -199.34851074 354.58110046 C-195.67378768 346.42362345 -191.9310329 338.29751523 -188.14974976 330.18893433 C-187.52221805 328.84293842 -186.89587882 327.49638572 -186.27090454 326.14920044 C-182.68691933 318.43269702 -178.91901054 310.858214 -174.87774658 303.37059021 C-171.915608 297.87752477 -169.12892382 292.31730567 -166.4375 286.6875 C-165.98826172 285.77033203 -165.53902344 284.85316406 -165.07617188 283.90820312 C-164.4487207 282.59819336 -164.4487207 282.59819336 -163.80859375 281.26171875 C-163.24869751 280.10095825 -163.24869751 280.10095825 -162.67749023 278.91674805 C-162.45391846 278.28422119 -162.23034668 277.65169434 -162 277 C-162.33 276.34 -162.66 275.68 -163 275 Z " fill="#7B0003" transform="translate(664,255)"/>
<path d="M0 0 C3.09023444 2.38205572 4.639037 3.90062866 5.85546875 7.60546875 C6.06026631 12.41544378 4.36167595 15.71535938 2.3125 20 C1.90531738 20.87446777 1.49813477 21.74893555 1.07861328 22.64990234 C-6.55904358 38.78212392 -15.62509892 54.17651018 -24.57055664 69.60571289 C-29.35826296 77.86421439 -34.0251219 86.18096992 -38.63671875 94.53857422 C-41.42747581 99.57733008 -44.2470124 104.60003566 -47.0625 109.625 C-47.66843994 110.7073291 -48.27437988 111.7896582 -48.89868164 112.90478516 C-51.39094141 117.35440051 -53.88390227 121.80342052 -56.40234375 126.23828125 C-61.6032696 135.40385705 -66.59725861 144.67298631 -71.57080078 153.96386719 C-75.40312665 161.10020469 -79.34447517 168.1616193 -83.375 175.1875 C-89.30208291 185.54157902 -94.78403369 196.10402603 -100.18115234 206.7409668 C-103.0040206 212.28977066 -105.85268866 217.79576737 -108.96340942 223.19094849 C-116.33444597 235.98771304 -122.77166374 249.28250468 -129.347229 262.49884033 C-130.70798537 265.23110078 -132.0731664 267.96113883 -133.43839455 270.69116688 C-141.45211994 286.71921265 -149.34222895 302.79809166 -157 319 C-157.71239001 320.50383071 -158.42479174 322.00765587 -159.13720703 323.51147461 C-161.05617254 327.56716368 -162.96682416 331.62672548 -164.875 335.6875 C-165.20972321 336.39924377 -165.54444641 337.11098755 -165.88931274 337.84429932 C-172.09361221 351.03820189 -178.2446447 364.25634971 -184.37060547 377.48681641 C-186.12917937 381.27852729 -187.89408261 385.06724761 -189.66015625 388.85546875 C-190.56429796 390.7965142 -191.46829099 392.73762881 -192.3722229 394.67877197 C-192.95221827 395.92345419 -193.53275451 397.16788453 -194.11386108 398.41204834 C-194.91591669 400.12948301 -195.7158216 401.84792158 -196.515625 403.56640625 C-197.20060059 405.03509155 -197.20060059 405.03509155 -197.89941406 406.53344727 C-199.0724078 409.05424724 -199.0724078 409.05424724 -200 412 C-199.505 412.598125 -199.01 413.19625 -198.5 413.8125 C-197 416 -197 416 -196.9375 418.6875 C-198.12722327 422.39663725 -199.76040454 424.94527034 -202 428.10546875 C-203.59406083 430.41249819 -205.09064895 432.72907678 -206.5625 435.11328125 C-217.26569673 452.38782192 -217.26569673 452.38782192 -223 455 C-231.30363151 456.69768266 -238.05155238 454.57610069 -245 450 C-245.91007813 449.51144531 -246.82015625 449.02289062 -247.7578125 448.51953125 C-251.36279034 444.46864152 -250.60878112 440.15989487 -250.4375 434.9375 C-250.43169922 433.93138672 -250.42589844 432.92527344 -250.41992188 431.88867188 C-250.29558496 424.44337744 -250.29558496 424.44337744 -248 421 C-247.33015101 419.13179766 -247.33015101 419.13179766 -246.80859375 417.0625 C-246.59146729 416.26505371 -246.37434082 415.46760742 -246.15063477 414.64599609 C-245.91530029 413.77281738 -245.67996582 412.89963867 -245.4375 412 C-238.66846761 387.86765626 -229.94069338 365.02728099 -219.82421875 342.13891602 C-218.57468256 339.31137853 -217.33886386 336.47838248 -216.11328125 333.64038086 C-215.80452057 332.92746384 -215.49575989 332.21454681 -215.17764282 331.48002625 C-214.59728206 330.13895197 -214.01895672 328.79699397 -213.44320679 327.45393372 C-211.57646075 323.15172772 -209.48976603 319.05266676 -207.25 314.9375 C-206.88616211 314.26887939 -206.52232422 313.60025879 -206.14746094 312.91137695 C-205.84614258 312.35925537 -205.54482422 311.80713379 -205.234375 311.23828125 C-199.67780753 300.86383699 -194.81588862 290.09027031 -189.87109375 279.4140625 C-186.10743105 271.2986941 -182.14002914 263.33822446 -177.92382812 255.44750977 C-175.12470131 250.19382141 -172.45389582 244.89054813 -169.83740234 239.54370117 C-165.76176772 231.22824085 -161.52095472 223.41403546 -156.36328125 215.71875 C-153.37171092 211.14025804 -150.83467101 206.31576471 -148.25 201.5 C-143.55651866 192.75866537 -138.64606759 184.1787765 -133.54003906 175.671875 C-128.770263 167.70704817 -124.36946936 159.56421118 -119.9921875 151.37890625 C-113.47909418 139.20631698 -106.68707742 127.27464755 -99.50488281 115.48632812 C-96.92362884 111.22164765 -94.40229664 106.92179673 -91.875 102.625 C-88.06205315 96.15088489 -84.22281884 89.69328746 -80.3515625 83.25390625 C-79.95049286 82.58663513 -79.54942322 81.91936401 -79.13619995 81.23187256 C-77.15289048 77.93326552 -75.16741898 74.63598159 -73.17919922 71.34033203 C-69.33424865 64.95746064 -65.54531517 58.55600204 -62 52 C-61.34 52 -60.68 52 -60 52 C-59.59587891 50.90945313 -59.59587891 50.90945313 -59.18359375 49.796875 C-58.02076586 47.04907048 -56.68894172 44.74732372 -55.0625 42.25 C-54.44117188 41.29222656 -53.81984375 40.33445312 -53.1796875 39.34765625 C-52.10074219 37.69056641 -52.10074219 37.69056641 -51 36 C-50.14736986 34.66604639 -49.29586805 33.33137111 -48.4453125 31.99609375 C-28.83914128 1.29394836 -28.83914128 1.29394836 -19.5 -2.375 C-12.36909884 -3.64837521 -6.55003015 -3.06649352 0 0 Z " fill="#7B0003" transform="translate(501,270)"/>
<path d="M0 0 C4 0 4 0 6.3125 1.625 C8 4 8 4 7.94921875 6.53515625 C6.60102687 11.456334 4.10375158 15.45151333 1.5 19.8125 C0.39166213 21.71914202 -0.71509495 23.62670379 -1.8203125 25.53515625 C-2.63870605 26.94112061 -2.63870605 26.94112061 -3.47363281 28.37548828 C-10.30590721 40.12324096 -15.93896669 52.18862554 -21.25 64.6875 C-21.54863953 65.38879028 -21.84727905 66.09008057 -22.15496826 66.81262207 C-26.09717386 76.10230499 -29.7292836 85.44897442 -33 95 C-33.23875854 95.68442169 -33.47751709 96.36884338 -33.72351074 97.07400513 C-37.57836734 108.13372804 -40.79300523 119.23194278 -43.5 130.625 C-43.6897641 131.41747131 -43.8795282 132.20994263 -44.07504272 133.02642822 C-57.80405295 190.54709772 -63.34105634 250.13644295 -55 309 C-54.83371094 310.19915039 -54.66742188 311.39830078 -54.49609375 312.63378906 C-50.05855951 343.65544044 -43.15769172 374.34801597 -33 404 C-32.64856934 405.02947754 -32.29713867 406.05895508 -31.93505859 407.11962891 C-17.76386675 448.0094908 3.35733121 488.06943542 29 523 C29.74878418 524.0204541 29.74878418 524.0204541 30.51269531 525.06152344 C40.22444671 538.1995473 50.81568793 550.4795922 61.8046875 562.55859375 C63.02862412 563.91973323 64.24577522 565.28736474 65.43554688 566.6784668 C70.16581169 572.1903449 75.18768048 577.3738632 80.32324219 582.50854492 C81.73919947 583.92668284 83.14698289 585.35296665 84.5546875 586.77929688 C90.72541994 592.96292082 97.17727941 598.55297221 104 604 C105.07794337 604.91184142 106.15085583 605.82972501 107.21484375 606.7578125 C180.1758304 670.19304623 277.45007459 708.08590639 442.5234375 713.53515625 C443.24750793 713.49296967 443.97157837 713.45078308 444.71759033 713.40731812 C450.35216731 713.06775174 455.96563002 712.56948268 461.58056641 711.98608398 C464 712 464 712 466 714 C466.125 717.625 466.125 717.625 466 721 C458.58851545 722.28297723 451.52719602 723.25515919 444 723 C444 723.66 444 724.32 444 725 C418.59 725 393.18 725 367 725 C367 724.34 367 723.68 367 723 C365.68878174 723.01820801 364.37756348 723.03641602 363.02661133 723.05517578 C358.48345841 723.05262653 354.07774493 722.68373813 349.57421875 722.1171875 C348.4089415 721.9755291 348.4089415 721.9755291 347.22012329 721.83100891 C344.70805813 721.52106379 342.19766767 721.1999407 339.6875 720.875 C338.82240814 720.76362701 337.95731628 720.65225403 337.06600952 720.5375061 C262.65009841 710.85009078 186.15744306 680.63520591 126.75683594 634.36425781 C125.09016406 633.07001623 123.41161536 631.79361379 121.7265625 630.5234375 C113.30688067 624.14111078 105.14391531 617.46316144 97.03417969 610.69335938 C95.19965543 609.1662038 93.35517043 607.65219658 91.5078125 606.140625 C77.98068545 594.94589778 65.38228394 582.36311532 54 569 C53.03777302 567.88280165 52.07553394 566.76561371 51.11328125 565.6484375 C49.66209201 563.95440245 48.21311886 562.25850906 46.76538086 560.56152344 C44.20315334 557.56080838 41.63044864 554.57224909 39.015625 551.6171875 C22.41098688 532.75976922 8.77528492 511.46089005 -3.9140625 489.82763672 C-5.0142509 487.97601569 -6.14410979 486.14553085 -7.28125 484.31640625 C-41.02239045 429.45586256 -61.06062964 362.32653908 -66.640625 298.4296875 C-66.87317507 295.02107359 -66.87317507 295.02107359 -68 292 C-68.10139884 289.3456717 -68.1468391 286.71753178 -68.14526367 284.06298828 C-68.14862228 283.25437851 -68.1519809 282.44576874 -68.15544128 281.61265564 C-68.16495907 278.93185904 -68.16689556 276.25112497 -68.16796875 273.5703125 C-68.17118343 271.70002212 -68.17454766 269.82973199 -68.17805481 267.95944214 C-68.18405002 264.03024718 -68.18589457 260.10107421 -68.18530273 256.171875 C-68.1852017 251.16790507 -68.19879106 246.16407893 -68.21607494 241.1601429 C-68.22727215 237.29077525 -68.2292195 233.42144135 -68.22869301 229.55205917 C-68.22986394 227.70951726 -68.2342352 225.86697421 -68.24202538 224.02444839 C-68.28117045 213.79939258 -67.90616763 204.08520842 -66 194 C-65.69341615 191.81757072 -65.39294809 189.63424664 -65.10546875 187.44921875 C-59.60303461 146.63775163 -49.62788241 106.3124738 -33.9375 68.1875 C-33.65212372 67.49155731 -33.36674744 66.79561462 -33.07272339 66.07858276 C-28.83847657 55.81016486 -24.07717698 45.87627416 -19 36 C-18.34076538 34.70848022 -18.34076538 34.70848022 -17.66821289 33.39086914 C-16.6452689 31.39960769 -15.60932295 29.41629476 -14.5625 27.4375 C-14.19833984 26.74696533 -13.83417969 26.05643066 -13.45898438 25.3449707 C-10.45347764 19.71092998 -7.2197579 14.23142156 -3.83032227 8.82006836 C-2.04284512 5.93142451 -0.53510021 3.38618103 0 0 Z " fill="#790003" transform="translate(72,252)"/>
<path d="M0 0 C5.46632624 3.74833799 7.77869868 9.22443046 9.1875 15.5 C9.97253906 15.01789063 10.75757813 14.53578125 11.56640625 14.0390625 C22.79878263 7.28585462 22.79878263 7.28585462 28.1875 6.5 C30.5625 7.125 30.5625 7.125 32.1875 8.5 C33.51153109 11.98053682 33.00834603 14.82423812 32.375 18.4375 C32.20355469 19.45714844 32.03210938 20.47679687 31.85546875 21.52734375 C31.22023875 24.35430299 30.34443109 26.84930978 29.1875 29.5 C29.92355469 29.69335938 30.65960937 29.88671875 31.41796875 30.0859375 C32.39378906 30.34632813 33.36960937 30.60671875 34.375 30.875 C35.33792969 31.13023437 36.30085937 31.38546875 37.29296875 31.6484375 C40.00960207 32.44766296 42.57887175 33.4031362 45.1875 34.5 C45.1875 37.14 45.1875 39.78 45.1875 42.5 C43.7025 42.995 43.7025 42.995 42.1875 43.5 C41.465625 44.2425 40.74375 44.985 40 45.75 C36.14062864 49.52360755 31.77076959 53.5 26.1875 53.5 C27.26898167 54.75160238 28.35277922 56.00120381 29.4375 57.25 C30.07171875 57.98347656 30.7059375 58.71695313 31.359375 59.47265625 C33.2158629 61.61156783 33.2158629 61.61156783 35.6875 63.6875 C37.1875 65.5 37.1875 65.5 37 68.125 C36.1875 70.5 36.1875 70.5 35.1875 72.5 C28.2575 72.5 21.3275 72.5 14.1875 72.5 C14.1875 71.84 14.1875 71.18 14.1875 70.5 C12.87072266 70.35884766 12.87072266 70.35884766 11.52734375 70.21484375 C3.67211107 68.53354833 -2.42916341 62.52962661 -6.9375 56.125 C-8.34646232 53.94751277 -9.65336233 51.81827534 -10.8125 49.5 C-11.823125 49.108125 -12.83375 48.71625 -13.875 48.3125 C-21.19485249 45.30640041 -26.1016949 39.79353996 -29.90234375 33.00390625 C-30.20269531 32.50761719 -30.50304687 32.01132813 -30.8125 31.5 C-31.1425 31.5 -31.4725 31.5 -31.8125 31.5 C-31.8125 24.9 -31.8125 18.3 -31.8125 11.5 C-26.8125 10.5 -26.8125 10.5 -23.953125 12.1171875 C-22.99921875 12.86226562 -22.0453125 13.60734375 -21.0625 14.375 C-20.09828125 15.11492187 -19.1340625 15.85484375 -18.140625 16.6171875 C-15.8125 18.5 -15.8125 18.5 -14.8125 19.5 C-14.60496094 18.88253906 -14.39742187 18.26507813 -14.18359375 17.62890625 C-12.3731128 12.65197744 -6.97034323 -1.92285331 0 0 Z M-1.8125 12.5 C-6.81771588 19.24616054 -7.15550046 26.57731046 -6.1015625 34.62890625 C-6.00617187 35.24636719 -5.91078125 35.86382812 -5.8125 36.5 C-1.96528796 32.65278796 0.90845527 25.94137233 1.1875 20.5 C0.66875969 17.76762532 -0.04053437 15.17917483 -0.8125 12.5 C-1.1425 12.5 -1.4725 12.5 -1.8125 12.5 Z M16.75 19.375 C15.26693359 20.17550781 15.26693359 20.17550781 13.75390625 20.9921875 C9.23191037 23.64894611 8.53256436 26.07800672 7.0625 31 C6.70929687 32.1653125 6.35609375 33.330625 5.9921875 34.53125 C5.10029578 37.30907871 5.10029578 37.30907871 5.1875 39.5 C6.52142698 38.83452195 7.8546306 38.16759372 9.1875 37.5 C10.16009766 37.0359375 10.16009766 37.0359375 11.15234375 36.5625 C17.30591843 33.24809938 19.81131537 28.97768592 22.1875 22.5 C23.03811349 19.10478432 23.03811349 19.10478432 23.1875 16.5 C20.98469134 16.5 18.60886754 18.36458826 16.75 19.375 Z M-23.8125 23.5 C-23.11578186 31.86061771 -20.08296329 37.92625486 -13.8125 43.5 C-13.1525 43.17 -12.4925 42.84 -11.8125 42.5 C-13.05023192 39.88934698 -14.30183927 37.28705395 -15.5625 34.6875 C-16.08457031 33.58051758 -16.08457031 33.58051758 -16.6171875 32.45117188 C-18.50714738 28.58375397 -19.93622367 25.70877908 -23.8125 23.5 Z M16.1875 43.5 C14.87943346 44.25770586 13.5670418 45.00800462 12.25 45.75 C11.239375 46.3275 10.22875 46.905 9.1875 47.5 C9.1875 47.83 9.1875 48.16 9.1875 48.5 C16.15833264 48.83194441 23.12577983 48.6812074 28.86328125 44.1875 C30.39802187 42.70795214 30.39802187 42.70795214 32.1875 40.5 C26.22991109 37.52120555 21.26424317 40.19732752 16.1875 43.5 Z M4.1875 49.5 C2.2075 50.49 2.2075 50.49 0.1875 51.5 C5.43968076 59.02812575 12.3903355 62.16833824 21.3125 63.8125 C22.93519178 64.05747701 24.55957358 64.29264055 26.1875 64.5 C25.25475891 63.37105124 24.31609878 62.24699124 23.375 61.125 C22.85292969 60.49851562 22.33085938 59.87203125 21.79296875 59.2265625 C19.03916941 56.26505566 16.54589125 55.2027476 12.6875 54.4375 C10.08667232 53.91299975 7.71360575 53.34203525 5.1875 52.5 C4.8575 51.51 4.5275 50.52 4.1875 49.5 Z " fill="#790003" transform="translate(803.8125,132.5)"/>
<path d="M0 0 C7.07105708 1.29384284 13.92589577 3.01342979 20.8203125 5.0390625 C22.29732132 5.46764053 22.29732132 5.46764053 23.8041687 5.90487671 C26.91225896 6.80769778 30.01864016 7.71624504 33.125 8.625 C35.24728494 9.24256872 37.36967981 9.8597598 39.4921875 10.4765625 C44.66273637 11.98001448 49.83189899 13.48815626 55 15 C55 18.57575896 53.91159393 20.05295935 52 23 C43.33385563 20.74642183 34.82671325 18.07995034 26.3125 15.3125 C25.01374618 14.89234835 23.71491846 14.47242511 22.41601562 14.05273438 C19.27661316 13.0373886 16.13796828 12.01976774 13 11 C12.67 11.33 12.34 11.66 12 12 C17.04296933 17.54512941 22.10668843 23.06673861 27.2578125 28.51171875 C27.98033203 29.27556885 28.70285156 30.03941895 29.44726562 30.82641602 C30.88921849 32.34838756 32.33320325 33.86843684 33.77929688 35.38647461 C34.44251953 36.08651611 35.10574219 36.78655762 35.7890625 37.5078125 C36.38412598 38.13316895 36.97918945 38.75852539 37.59228516 39.40283203 C39 41 39 41 40 43 C39.22265625 44.7265625 39.22265625 44.7265625 38.0625 46.625 C37.381875 47.73875 36.70125 48.8525 36 50 C27.18579378 49.45468915 18.98837224 46.89961161 10.5625 44.4375 C8.36165741 43.79992665 6.16024391 43.16444376 3.95799255 42.53175354 C2.59595136 42.13988993 1.23479564 41.74493232 -0.12535095 41.34654236 C-3.50741827 40.33585969 -3.50741827 40.33585969 -7 40 C0.28961941 47.47207648 0.28961941 47.47207648 8 54.5 C13.30141743 59.01724944 18.11934375 64.0385976 23 69 C21.8141763 72.37503669 20.72426311 74.64722731 18 77 C14.47886896 73.57519169 11.05522146 70.12112553 7.875 66.375 C4.06950969 61.94961081 -0.07585662 57.89666655 -4.22314453 53.79638672 C-7.83444508 50.21023013 -11.26972699 46.53663058 -14.56640625 42.65625 C-16.59606558 40.31135747 -18.77435951 38.15819683 -21 36 C-19.125 31.25 -19.125 31.25 -18 29 C-12.6443033 29.64515309 -7.62557746 30.81147422 -2.44140625 32.28515625 C-1.25767677 32.6159745 -1.25767677 32.6159745 -0.05003357 32.95347595 C2.44699475 33.65234181 4.9422497 34.35731533 7.4375 35.0625 C9.13986008 35.54011962 10.842333 36.01733723 12.54492188 36.49414062 C16.69793398 37.65811559 20.8493679 38.8275678 25 40 C25.33 39.67 25.66 39.34 26 39 C17.45904302 29.65338135 17.45904302 29.65338135 8.58984375 20.62109375 C6.13351201 18.11648031 3.85870728 15.46110664 1.578125 12.796875 C0.03697777 10.97806653 0.03697777 10.97806653 -1.71484375 9.421875 C-2.13894531 8.95265625 -2.56304688 8.4834375 -3 8 C-2.73897585 4.51967799 -1.96602468 2.94903702 0 0 Z " fill="#7B0003" transform="translate(881,709)"/>
<path d="M0 0 C0 3.96 0 7.92 0 12 C-1.23153809 12.44915771 -2.46307617 12.89831543 -3.73193359 13.36108398 C-8.29080111 15.02411479 -12.84909998 16.68869936 -17.40722656 18.35375977 C-19.38200595 19.07488889 -21.35694035 19.79559367 -23.33203125 20.51586914 C-26.16707335 21.54983404 -29.00155878 22.58531197 -31.8359375 23.62109375 C-33.16569107 24.10551186 -33.16569107 24.10551186 -34.52230835 24.59971619 C-35.34300812 24.89995193 -36.16370789 25.20018768 -37.00927734 25.50952148 C-37.73319672 25.77377426 -38.45711609 26.03802704 -39.20297241 26.31028748 C-41.06099317 26.99006953 -41.06099317 26.99006953 -43 28 C-28.48 32.62 -13.96 37.24 1 42 C1 45.63 1 49.26 1 53 C-17.34853132 53.73922141 -35.63430471 54.1512825 -54 54 C-54 51.36 -54 48.72 -54 46 C-52.91468994 45.97494385 -51.82937988 45.9498877 -50.71118164 45.92407227 C-46.698684 45.83016245 -42.68636618 45.72990233 -38.67407227 45.62768555 C-36.93485712 45.58427427 -35.19559765 45.54260388 -33.45629883 45.50268555 C-30.96161512 45.44513232 -28.4671559 45.3813958 -25.97265625 45.31640625 C-25.19036148 45.29969376 -24.40806671 45.28298126 -23.60206604 45.26576233 C-20.00128219 45.49351269 -20.00128219 45.49351269 -17 44 C-18.11560303 43.64172119 -19.23120605 43.28344238 -20.38061523 42.91430664 C-24.50579618 41.58860809 -28.62967866 40.25891039 -32.75317383 38.92797852 C-34.54058028 38.35168421 -36.32834053 37.77648604 -38.11645508 37.20239258 C-40.68143246 36.37867166 -43.24512612 35.5510618 -45.80859375 34.72265625 C-46.6127623 34.46533218 -47.41693085 34.20800812 -48.24546814 33.94288635 C-53.88612829 32.11387171 -53.88612829 32.11387171 -55 31 C-55.04092937 28.66702567 -55.04241723 26.33294775 -55 24 C-41.74760745 18.7644869 -28.40389681 13.83558303 -15 9 C-28.2 9 -41.4 9 -55 9 C-55 6.36 -55 3.72 -55 1 C-36.65742686 0.31687723 -18.35842554 -0.15514162 0 0 Z " fill="#7C0004" transform="translate(988,464)"/>
<path d="M0 0 C4.4259404 4.13747128 7.8948425 8.72270636 11.4375 13.625 C12.6675698 15.31539455 13.89805145 17.00548946 15.12890625 18.6953125 C15.76070801 19.56446289 16.39250977 20.43361328 17.04345703 21.32910156 C19.01776408 24.02424994 21.01797203 26.69810213 23.02734375 29.3671875 C23.67195557 30.22747559 24.31656738 31.08776367 24.98071289 31.97412109 C26.22599957 33.63461033 27.47635184 35.29131483 28.73217773 36.94384766 C29.57244507 38.06992432 29.57244507 38.06992432 30.4296875 39.21875 C30.92710449 39.87810547 31.42452148 40.53746094 31.93701172 41.21679688 C33 43 33 43 33 46 C31.5 47.75 31.5 47.75 29 49 C22.7943064 48.61044861 17.48967922 46.99172755 11.6875 44.83984375 C10.83317383 44.53051407 9.97884766 44.22118439 9.09863281 43.90248108 C6.39616853 42.92196819 3.69809972 41.92995158 1 40.9375 C-0.84216868 40.26681066 -2.68461416 39.59688108 -4.52734375 38.92773438 C-9.0214775 37.29392391 -13.5117089 35.64978969 -18 34 C-16.62729813 36.96544887 -15.02982479 39.39419618 -12.98828125 41.94140625 C-12.39805176 42.68535645 -11.80782227 43.42930664 -11.19970703 44.19580078 C-10.57692871 44.97681152 -9.95415039 45.75782227 -9.3125 46.5625 C-4.1095927 53.15621768 0.74852108 59.74371643 5 67 C2.6875 69.0625 2.6875 69.0625 0 71 C-3.35927769 69.88024077 -3.80914756 69.26397398 -5.79296875 66.484375 C-6.3334082 65.73744385 -6.87384766 64.9905127 -7.43066406 64.22094727 C-8.01041992 63.40553467 -8.59017578 62.59012207 -9.1875 61.75 C-10.43440921 60.02344638 -11.68318203 58.29823746 -12.93359375 56.57421875 C-13.59085449 55.66720215 -14.24811523 54.76018555 -14.92529297 53.82568359 C-19.13294859 48.09499329 -23.49310338 42.47839254 -27.84448242 36.85644531 C-28.48877197 36.01823242 -29.13306152 35.18001953 -29.796875 34.31640625 C-30.36760742 33.57849854 -30.93833984 32.84059082 -31.52636719 32.08032227 C-32.91782413 30.11600739 -33.9916246 28.1814275 -35 26 C-32.92882857 24.19436337 -31.50704404 23.01048056 -29 22 C-22.87493393 22.45161218 -16.77000173 24.97621931 -11.02734375 27.0390625 C-10.21882462 27.32478119 -9.41030548 27.61049988 -8.57728577 27.90487671 C-6.02892104 28.80668432 -3.48319993 29.71570079 -0.9375 30.625 C0.80386582 31.24266879 2.54540087 31.85986068 4.28710938 32.4765625 C8.52671377 33.97887519 12.76396533 35.48765266 17 37 C15.6206534 34.02766365 14.01198454 31.56170052 11.98828125 28.98828125 C11.39466797 28.22966797 10.80105469 27.47105469 10.18945312 26.68945312 C9.57005859 25.90505859 8.95066406 25.12066406 8.3125 24.3125 C7.10026042 22.76692708 5.88802083 21.22135417 4.67578125 19.67578125 C4.07588379 18.91346191 3.47598633 18.15114258 2.85791016 17.36572266 C-0.10881912 13.58811337 -3.05457553 9.79423045 -6 6 C-4 4 -2 2 0 0 Z " fill="#7B0003" transform="translate(185,94)"/>
<path d="M0 0 C1.54418683 7.02528562 1.54418683 7.02528562 -0.8515625 11.31640625 C-1.752877 12.41780787 -2.67907598 13.4991651 -3.625 14.5625 C-4.11629395 15.15039307 -4.60758789 15.73828613 -5.11376953 16.34399414 C-6.71882501 18.25109782 -8.35571597 20.12665674 -10 22 C-11.15170883 23.3301518 -12.3027455 24.66088586 -13.453125 25.9921875 C-15.1242353 27.92418744 -16.79877394 29.85163365 -18.49462891 31.76196289 C-21.95112955 35.67338013 -25.02835476 39.70701435 -28 44 C-18.05098686 41.63780414 -8.24781341 38.95305387 1.52246094 35.93115234 C2.3374707 35.68059082 3.15248047 35.4300293 3.9921875 35.171875 C5.08055908 34.8330127 5.08055908 34.8330127 6.19091797 34.48730469 C8 34 8 34 10 34 C10.99 37.96 10.99 37.96 12 42 C4.95480327 44.14396052 -2.09295832 46.27931994 -9.14257812 48.40869141 C-11.54096585 49.13424589 -13.93875726 49.86177457 -16.3359375 50.59130859 C-19.77970364 51.63897751 -23.22554484 52.67955123 -26.671875 53.71875 C-27.74491882 54.04685669 -28.81796265 54.37496338 -29.92352295 54.7130127 C-30.92425842 55.01332397 -31.9249939 55.31363525 -32.95605469 55.62304688 C-33.83541687 55.88952026 -34.71477905 56.15599365 -35.62078857 56.43054199 C-38 57 -38 57 -42 57 C-44.53893071 50.18732668 -44.53893071 50.18732668 -43.18505859 47.20458984 C-41.78266219 45.4097967 -40.29249815 43.80370069 -38.6875 42.1875 C-37.55877499 40.9671816 -36.43118079 39.74581634 -35.3046875 38.5234375 C-34.74104492 37.92756836 -34.17740234 37.33169922 -33.59667969 36.71777344 C-31.38654338 34.34001823 -29.34787064 31.84041584 -27.3125 29.3125 C-26.25675781 28.013125 -26.25675781 28.013125 -25.1796875 26.6875 C-24.46039062 25.800625 -23.74109375 24.91375 -23 24 C-21.31442253 21.93592067 -19.62586409 19.87430288 -17.9375 17.8125 C-17.18339844 16.89082031 -16.42929687 15.96914063 -15.65234375 15.01953125 C-15.10707031 14.35308594 -14.56179688 13.68664062 -14 13 C-17.87231248 13 -21.26479436 14.11307718 -24.94921875 15.1875 C-25.72183548 15.40946045 -26.49445221 15.6314209 -27.29048157 15.86010742 C-29.75724175 16.56969283 -32.22237007 17.28477391 -34.6875 18 C-36.35992148 18.48213369 -38.03244634 18.96390893 -39.70507812 19.4453125 C-43.80459651 20.62605265 -47.9026599 21.81172397 -52 23 C-52.66 20.36 -53.32 17.72 -54 15 C-46.25393719 12.58520283 -38.5058793 10.17701349 -30.75415039 7.7804718 C-27.74986275 6.85162031 -24.74620754 5.92087065 -21.74414062 4.98486328 C-18.9980865 4.12910983 -16.24955088 3.28193727 -13.5 2.4375 C-12.70174805 2.18661621 -11.90349609 1.93573242 -11.08105469 1.67724609 C-7.29756693 0.52535491 -3.967698 -0.30702425 0 0 Z " fill="#7B0003" transform="translate(963,342)"/>
<path d="M0 0 C8.98996456 5.30224441 14.26495532 13.59078317 17.39453125 23.47265625 C18.58465079 30.05100933 18.6377587 36.7481442 15.17578125 42.61328125 C10.30940583 48.83957528 3.12338064 52.51521112 -3.625 56.375 C-4.6783252 56.9781604 -4.6783252 56.9781604 -5.75292969 57.59350586 C-10.87744428 60.4375 -10.87744428 60.4375 -14.25 60.4375 C-14.67708252 59.68879639 -15.10416504 58.94009277 -15.54418945 58.16870117 C-24.06683857 43.23147464 -32.60736259 28.30576605 -41.25 13.4375 C-36.89980518 9.65969924 -32.15289677 6.99799173 -27.125 4.25 C-25.90876953 3.57420898 -25.90876953 3.57420898 -24.66796875 2.88476562 C-16.82898492 -1.43639323 -8.67124294 -3.97078444 0 0 Z M-30.25 15.4375 C-24.04970212 27.33583699 -17.69896196 39.26405706 -10.25 50.4375 C-3.23069228 47.83870004 3.36642262 44.04280551 8.4375 38.5 C10.87969261 32.80155058 10.24982285 28.25840774 8.3125 22.5625 C5.44563542 16.01834976 0.92820971 9.95253885 -5.26171875 6.2265625 C-14.22874318 3.13448511 -23.36396659 10.44762072 -30.25 15.4375 Z " fill="#7B0003" transform="translate(241.25,71.5625)"/>
<path d="M0 0 C3.67267147 1.04242779 7.33672657 2.11255403 11 3.1875 C12.54494141 3.62545898 12.54494141 3.62545898 14.12109375 4.07226562 C23.11372245 6.7356875 30.67944613 10.0191692 36 18 C39.3240386 26.76337449 38.18202006 35.60590797 34.875 44.25 C31.88827258 50.8173574 28.10088212 55.63742315 22.375 60 C9.69132251 63.75812666 -4.27659499 59.29127834 -16 54 C-17.38215087 51.23569826 -16.60147679 50.12843194 -15.66064453 47.21484375 C-15.34346466 46.2204126 -15.02628479 45.22598145 -14.69949341 44.20141602 C-14.34748871 43.12432373 -13.99548401 42.04723145 -13.6328125 40.9375 C-13.27863251 39.835271 -12.92445251 38.73304199 -12.55953979 37.59741211 C-11.42160732 34.06266851 -10.27321347 30.53141563 -9.125 27 C-8.35742973 24.61739461 -7.59049434 22.23458459 -6.82421875 19.8515625 C-6.09430948 17.58836115 -5.36385883 15.32533432 -4.6328125 13.0625 C-4.28485626 11.98540771 -3.93690002 10.90831543 -3.57839966 9.79858398 C-3.25491547 8.80415283 -2.93143127 7.80972168 -2.59814453 6.78515625 C-2.31311066 5.90738525 -2.02807678 5.02961426 -1.73440552 4.12524414 C-1 2 -1 2 0 0 Z M6 10 C2.70910495 17.87999146 -0.06608317 25.8957951 -2.75 34 C-3.16121094 35.22589844 -3.57242188 36.45179687 -3.99609375 37.71484375 C-4.57810547 39.46474609 -4.57810547 39.46474609 -5.171875 41.25 C-5.5234668 42.30703125 -5.87505859 43.3640625 -6.23730469 44.453125 C-7.09562535 46.87621873 -7.09562535 46.87621873 -7 49 C-4.46148538 49.84416163 -1.91989146 50.67547299 0.625 51.5 C1.33785156 51.73847656 2.05070313 51.97695312 2.78515625 52.22265625 C6.9672967 53.56554538 10.55340979 54.43555781 15 54 C23.05704109 49.64919781 26.26739535 43.41693791 29 35 C30.38282353 29.87047217 29.99082983 25.78405415 28.1796875 20.859375 C25.01535042 15.87187682 20.20152448 14.08987769 14.8125 12.25 C12.96591797 11.60804687 12.96591797 11.60804687 11.08203125 10.953125 C8.21922105 9.90151769 8.21922105 9.90151769 6 10 Z " fill="#7B0003" transform="translate(619,23)"/>
<path d="M0 0 C0.48109963 2.52047792 0.95992603 5.0413537 1.4375 7.5625 C1.57220703 8.26697266 1.70691406 8.97144531 1.84570312 9.69726562 C5.7816044 30.52874312 5.7816044 30.52874312 -1 41.125 C-6.29469063 47.14609635 -15.30427143 49.68735226 -23.05078125 50.203125 C-32.35615591 50.33685494 -39.48655833 49.42849539 -46.46875 42.890625 C-53.36164829 34.38000568 -55 18.64916666 -55 8 C-48.13262104 6.85392056 -41.26402233 5.71538163 -34.39453125 4.58203125 C-32.05863268 4.19573948 -29.72301682 3.80773398 -27.38769531 3.41796875 C-24.02742527 2.85744711 -20.66618068 2.30313288 -17.3046875 1.75 C-15.74341629 1.48751465 -15.74341629 1.48751465 -14.15060425 1.21972656 C-9.38563242 0.44141243 -4.84814089 -0.23120791 0 0 Z M-19.14453125 10.3125 C-20.2992115 10.5122644 -20.2992115 10.5122644 -21.47721863 10.71606445 C-23.92301354 11.14012127 -26.36774832 11.56997383 -28.8125 12 C-30.47584472 12.28944626 -32.13925554 12.57851296 -33.80273438 12.8671875 C-37.86926821 13.57373142 -41.93486157 14.28547314 -46 15 C-45.86636328 16.89624264 -45.72565234 18.79198743 -45.58203125 20.6875 C-45.5044458 21.74324219 -45.42686035 22.79898437 -45.34692383 23.88671875 C-44.74304022 29.3059473 -43.45812897 34.03906793 -40.1875 38.4375 C-34.8741266 42.23276671 -29.31218255 42.62232786 -23 42 C-15.63202811 40.76682327 -10.02812158 38.67640141 -5 33 C-1.61733723 26.23467445 -4.10540992 15.98630093 -6 9 C-10.487872 8.81509197 -14.74450645 9.5318973 -19.14453125 10.3125 Z " fill="#7B0003" transform="translate(979,402)"/>
<path d="M0 0 C6.72703661 1.52573508 13.45299129 3.05617116 20.17822266 4.58984375 C22.46508677 5.11077837 24.75219429 5.63064567 27.03955078 6.14941406 C30.3317047 6.89626515 33.62295746 7.64697965 36.9140625 8.3984375 C37.93303619 8.6287265 38.95200989 8.8590155 40.00186157 9.09628296 C44.76029588 10.18652363 49.40253719 11.33129128 54 13 C53.12955164 17.17238218 52.22411561 21.33643533 51.3125 25.5 C51.06822266 26.67304687 50.82394531 27.84609375 50.57226562 29.0546875 C48.72927963 37.35978896 46.74167706 44.08149189 39.875 49.4375 C32.29763508 53.55563311 22.05682211 52.99813611 13.71484375 51.3515625 C5.92593666 48.78812473 -0.38855025 44.31645566 -4.5 37.125 C-7.86092977 29.05407795 -5.54404817 20.73433917 -3.5625 12.5625 C-3.33240234 11.57056641 -3.10230469 10.57863281 -2.86523438 9.55664062 C-1.16635497 2.33270994 -1.16635497 2.33270994 0 0 Z M5 10 C2.45547741 17.69415163 -0.46249707 27.06383556 2.80859375 34.94921875 C6.63252144 40.20215748 13.80785905 42.7731459 20 44 C25.63013134 44.47832592 30.42474313 44.77381039 35.5625 42.25 C40.53721089 37.65795918 41.80678015 33.72917565 43.1875 27.25 C43.36474609 26.45722656 43.54199219 25.66445313 43.72460938 24.84765625 C44.15863654 22.90039924 44.58052679 20.95044396 45 19 C40.59074582 17.87279056 36.17991924 16.75202781 31.76757812 15.63696289 C30.2697437 15.25750505 28.77233762 14.87635195 27.27539062 14.4934082 C25.11180862 13.9402524 22.94671066 13.39340513 20.78125 12.84765625 C20.12257935 12.6778273 19.46390869 12.50799835 18.78527832 12.33302307 C14.19381575 11.18461561 9.69450354 10.51374674 5 10 Z " fill="#7B0003" transform="translate(927,579)"/>
<path d="M0 0 C8.18030802 5.68362514 13.98291812 13.16477131 16 23 C16.90234989 31.66503118 15.74673678 38.69374616 10.4375 45.6875 C4.85349688 51.71270831 -2.50049955 54.63776173 -10.6171875 55.0703125 C-19.30586945 54.81392516 -25.18768627 51.07199389 -31.125 44.9375 C-37.39083898 37.59134395 -39.81955898 29.54391567 -39.4453125 19.92578125 C-38.35520931 12.76361205 -34.83750487 6.67041859 -29.0859375 2.25 C-19.63731812 -3.41209401 -10.04269106 -4.89170666 0 0 Z M-25.875 9.3125 C-29.81672555 14.29762348 -31.58600993 18.29598157 -31.3515625 24.63671875 C-30.27385102 31.8813348 -26.01809308 39.51765267 -20.4765625 44.3203125 C-15.64762117 47.5622778 -10.66324612 47.89371678 -5 47 C0.39391422 45.14290768 3.74374296 41.5012965 7 37 C9.30447713 30.08656862 8.16608056 23.93015776 5.265625 17.36328125 C1.46865621 10.27326237 -3.09953206 6.52459003 -10.8125 4.125 C-16.64813484 3.89615157 -21.34804031 5.67124982 -25.875 9.3125 Z " fill="#7B0003" transform="translate(712,894)"/>
<path d="M0 0 C6.69887862 5.46972658 12.05707027 12.77575911 13.703125 21.390625 C14.87249774 36.95670141 14.87249774 36.95670141 9.703125 43.390625 C3.29279904 50.45480421 -3.16180713 54.27294971 -12.734375 54.828125 C-20.03715582 54.51005963 -26.20526834 51.76651071 -31.609375 46.890625 C-39.03112893 38.71615769 -41.13925564 29.67352324 -40.70703125 18.8125 C-39.77672324 11.0510732 -36.3789032 6.69090483 -30.34375 1.8671875 C-22.04537919 -4.11904183 -9.01052285 -5.56301846 0 0 Z M-30.296875 12.390625 C-33.18805691 17.15197703 -32.87025689 21.98650065 -32.296875 27.390625 C-30.45536625 34.61017635 -26.97469925 41.58587145 -20.4140625 45.51953125 C-15.59755465 47.62557292 -11.33357665 47.8743828 -6.296875 46.390625 C-1.52490814 44.41769369 1.82747374 41.70410189 4.703125 37.390625 C7.07763079 30.26710764 6.30415549 23.82586823 3.140625 17.078125 C-0.112079 11.14309638 -3.75911853 6.56987716 -10.296875 4.390625 C-19.01353568 3.52726051 -24.42854015 5.70724364 -30.296875 12.390625 Z " fill="#7B0003" transform="translate(301.296875,44.609375)"/>
<path d="M0 0 C5.41077877 5.6624429 8.3614779 11.46794233 8.75 19.34765625 C8.52040579 28.40227809 5.00725453 36.92800692 -1.015625 43.73828125 C-7.8265114 49.92023444 -14.01683705 51.39323144 -23.08984375 51.1640625 C-30.32837981 50.37440402 -36.29312683 47.0600265 -41.3125 41.8125 C-46.69979538 34.33014531 -47.44397669 26.8325899 -46.3125 17.8125 C-45.41790775 14.46902395 -44.13397838 11.74615833 -42.3125 8.8125 C-41.88839844 8.11511719 -41.46429687 7.41773437 -41.02734375 6.69921875 C-37.20769911 1.04954938 -31.92100917 -3.69971357 -25.328125 -5.828125 C-15.74140865 -7.53738451 -8.03831735 -5.30832278 0 0 Z M-29.48046875 5.77734375 C-35.44346588 12.13135709 -39.53581281 18.84563162 -39.3125 27.8125 C-38.29216013 34.07858718 -35.01888602 37.49980405 -30.25 41.46484375 C-26.00166437 44.41983527 -21.29369838 44.52985705 -16.3125 43.8125 C-8.947741 40.69862821 -4.50028853 35.15001278 -1.14453125 28.05078125 C0.94081044 22.4409184 1.62544303 17.05537761 -0.875 11.5 C-4.13613889 6.02791949 -7.99341237 2.88952231 -14.1875 1.3125 C-20.55969015 0.34904011 -24.68774001 1.43366347 -29.48046875 5.77734375 Z " fill="#7B0003" transform="translate(727.3125,66.1875)"/>
<path d="M0 0 C6.66328173 1.9175806 13.17312401 4.08339834 19.65625 6.5390625 C20.52519897 6.86538666 21.39414795 7.19171082 22.28942871 7.52792358 C24.10499374 8.21042641 25.9199717 8.89449288 27.734375 9.58007812 C30.51953741 10.63238172 33.30647517 11.67986848 36.09375 12.7265625 C37.86468703 13.39295365 39.63552407 14.0596106 41.40625 14.7265625 C42.65613708 15.19686386 42.65613708 15.19686386 43.93127441 15.67666626 C45.08387756 16.11249527 45.08387756 16.11249527 46.25976562 16.55712891 C46.93575806 16.81233307 47.61175049 17.06753723 48.30822754 17.33047485 C50 18 50 18 52 19 C50.46798006 27.40765162 47.45566851 35.1325951 44.375 43.0625 C43.85358826 44.41839751 43.33275032 45.77451581 42.8125 47.13085938 C41.54826968 50.42314402 40.27630808 53.71237566 39 57 C34.25 56.125 34.25 56.125 32 55 C32.66627478 51.17736359 33.73962107 47.68695622 35.06640625 44.04296875 C35.46923828 42.93115234 35.87207031 41.81933594 36.28710938 40.67382812 C36.70798828 39.52333984 37.12886719 38.37285156 37.5625 37.1875 C37.98724609 36.01767578 38.41199219 34.84785156 38.84960938 33.64257812 C39.89654759 30.76055721 40.94785176 27.88012296 42 25 C37.71 23.35 33.42 21.7 29 20 C27.08845937 22.86731094 26.02673637 25.3278118 24.8359375 28.54296875 C24.43632813 29.61611328 24.03671875 30.68925781 23.625 31.79492188 C23.00625 33.47424805 23.00625 33.47424805 22.375 35.1875 C21.95476563 36.31865234 21.53453125 37.44980469 21.1015625 38.61523438 C20.0642534 41.40889639 19.03054818 44.2038384 18 47 C16.02 46.67 14.04 46.34 12 46 C10.48215519 42.10049625 11.58657548 39.70788396 13.08984375 35.921875 C13.54423828 34.76171875 13.99863281 33.6015625 14.46679688 32.40625 C14.95212891 31.1996875 15.43746094 29.993125 15.9375 28.75 C16.41896484 27.52796875 16.90042969 26.3059375 17.39648438 25.046875 C18.58784037 22.02720039 19.78932501 19.01196946 21 16 C20.26394531 15.80664062 19.52789063 15.61328125 18.76953125 15.4140625 C17.79371094 15.15367187 16.81789063 14.89328125 15.8125 14.625 C14.84957031 14.36976563 13.88664063 14.11453125 12.89453125 13.8515625 C10 13 10 13 5 11 C1.04 21.23 -2.92 31.46 -7 42 C-9.31 41.34 -11.62 40.68 -14 40 C-11.57334561 31.28793422 -8.45432842 22.84655403 -5.3125 14.375 C-4.79594774 12.97536233 -4.27966971 11.57562342 -3.76367188 10.17578125 C-2.51226966 6.78268275 -1.25717674 3.39096389 0 0 Z " fill="#7B0003" transform="translate(913,633)"/>
<path d="M0 0 C3.08316133 10.31264307 5.68871455 20.70434728 8.14697266 31.18164062 C8.75910532 33.78878055 9.3772733 36.39444021 9.99609375 39 C10.38837132 40.66137562 10.78031148 42.32283095 11.171875 43.984375 C11.3561908 44.76133728 11.54050659 45.53829956 11.73040771 46.33880615 C13 51.76893108 13 51.76893108 13 54 C4.4746703 56.31217275 -4.06700921 58.56182382 -12.625 60.75 C-13.47739258 60.97260498 -14.32978516 61.19520996 -15.20800781 61.42456055 C-19.21410045 62.43962318 -22.82926681 63.30642121 -27 63 C-27.33 60.69 -27.66 58.38 -28 56 C-24.06843948 54.99856118 -20.13573137 54.00177656 -16.2019043 53.00927734 C-14.86401591 52.67103529 -13.52644712 52.33152641 -12.18920898 51.99072266 C-10.26630945 51.50089381 -8.34215339 51.01600603 -6.41796875 50.53125 C-5.26063232 50.23798828 -4.1032959 49.94472656 -2.91088867 49.64257812 C0 49 0 49 3 49 C1.68 44.05 0.36 39.1 -1 34 C-2.75828125 34.433125 -4.5165625 34.86625 -6.328125 35.3125 C-8.63535819 35.8752398 -10.94265309 36.43772666 -13.25 37 C-14.40886719 37.28617188 -15.56773437 37.57234375 -16.76171875 37.8671875 C-17.87675781 38.13789062 -18.99179687 38.40859375 -20.140625 38.6875 C-21.16704102 38.93886719 -22.19345703 39.19023438 -23.25097656 39.44921875 C-26 40 -26 40 -30 40 C-30.33 37.69 -30.66 35.38 -31 33 C-17.14 29.535 -17.14 29.535 -3 26 C-3.99 21.38 -4.98 16.76 -6 12 C-6 11.01 -6 10.02 -6 9 C-6.9286084 9.24234375 -7.8572168 9.4846875 -8.81396484 9.734375 C-12.2535982 10.63135188 -15.69405222 11.52514462 -19.13476562 12.41796875 C-20.62490115 12.80511817 -22.11481154 13.19313521 -23.60449219 13.58203125 C-25.74355665 14.14029574 -27.88340664 14.69545326 -30.0234375 15.25 C-30.69120209 15.42499023 -31.35896667 15.59998047 -32.04696655 15.78027344 C-36.77225659 17 -36.77225659 17 -39 17 C-39.33 14.36 -39.66 11.72 -40 9 C-34.78663632 7.71385706 -29.57219168 6.43222836 -24.35668945 5.15478516 C-22.5822956 4.71950442 -20.80820443 4.28298788 -19.03442383 3.84521484 C-16.48597368 3.21647833 -13.93647093 2.59218235 -11.38671875 1.96875 C-10.59287277 1.77188599 -9.79902679 1.57502197 -8.98112488 1.37219238 C-5.91770056 0.62680711 -3.16535979 0 0 0 Z " fill="#7B0003" transform="translate(608,927)"/>
<path d="M0 0 C4.04744407 2.48869099 6.66588495 6.09641274 8.375 10.5 C8.1875 13.5 8.1875 13.5 7.375 15.5 C5.065 15.5 2.755 15.5 0.375 15.5 C-0.27604167 13.7421875 -0.92708333 11.984375 -1.578125 10.2265625 C-2.97013083 7.93079168 -4.10572046 7.39564579 -6.625 6.5 C-11.51118653 5.93929007 -16.10563129 5.95302726 -20.75 7.625 C-23.23338078 10.10838078 -23.39563276 12.05949134 -23.625 15.5 C-18.70005454 19.27365951 -14.13122535 20.64556349 -8.125 22 C4.95414961 24.94941943 4.95414961 24.94941943 9.25 31.25 C11.05067279 36.45194361 11.08371789 40.49196597 9.25 45.6875 C6.29181456 50.12477816 3.12444475 52.7796404 -1.8125 54.8125 C-10.03262545 56.2948177 -18.02979716 56.32822724 -25.625 52.5 C-29.53014132 49.35890807 -31.78185923 46.15635563 -33.625 41.5 C-33.8125 38.625 -33.8125 38.625 -33.625 36.5 C-30.16 36.005 -30.16 36.005 -26.625 35.5 C-26.39425781 36.04269531 -26.16351563 36.58539063 -25.92578125 37.14453125 C-23.87438257 41.64463507 -22.46714534 44.6707451 -17.625 46.5 C-11.85984394 47.78114579 -7.20212597 47.73085039 -1.625 45.5 C0.39978463 44.39350331 0.39978463 44.39350331 1.375 42.5 C1.91201486 38.47236351 1.91201486 38.47236351 0.23046875 34.9375 C-2.26286091 33.00582565 -4.6593426 32.36621904 -7.6875 31.5 C-8.84507812 31.15839844 -10.00265625 30.81679688 -11.1953125 30.46484375 C-13.28909641 29.87581798 -15.38722806 29.30165455 -17.4921875 28.75390625 C-23.04643271 27.25983117 -26.79465218 25.9049 -30.625 21.5 C-32.64816596 16.95873049 -33.10455242 12.93773043 -31.5625 8.1875 C-29.57058988 3.77370798 -26.74117056 1.53373995 -22.41796875 -0.578125 C-15.8222978 -2.75515765 -6.45603523 -2.78979725 0 0 Z " fill="#7B0003" transform="translate(481.625,6.5)"/>
<path d="M0 0 C5.05248959 1.52727347 8.28805589 4.60582008 12.125 8.0625 C13.46770113 9.24988504 14.81145714 10.43607826 16.15625 11.62109375 C16.81238281 12.20101074 17.46851563 12.78092773 18.14453125 13.37841797 C21.42898459 16.24885732 24.82577396 18.97766308 28.21484375 21.72265625 C33.53780841 26.07509439 38.76258954 30.54528681 44 35 C42.68 36.98 41.36 38.96 40 41 C36.65584394 40.4099088 34.93152252 39.33279811 32.46875 37.0234375 C31.82292969 36.435625 31.17710938 35.8478125 30.51171875 35.2421875 C29.16667095 33.9937742 27.82553478 32.74113366 26.48828125 31.484375 C25.84246094 30.89914063 25.19664063 30.31390625 24.53125 29.7109375 C23.94923828 29.16743652 23.36722656 28.62393555 22.76757812 28.06396484 C21.04894364 26.79709916 21.04894364 26.79709916 18.94750977 27.15551758 C15.61903408 28.59881674 13.66134314 31.54845205 11.4375 34.3125 C10.95603516 34.89451172 10.47457031 35.47652344 9.97851562 36.07617188 C7.57522268 38.99516455 5.23646327 41.95027736 3 45 C4.53970893 48.96182414 7.01967637 50.89782274 10.3125 53.5 C11.25738281 54.2528125 12.20226562 55.005625 13.17578125 55.78125 C14.10777344 56.5134375 15.03976563 57.245625 16 58 C17.66755652 59.33222026 19.33451786 60.66518736 21 62 C19.59284684 65.40062014 17.97131772 66.89229698 15 69 C14.44054687 68.47792969 13.88109375 67.95585937 13.3046875 67.41796875 C8.45619016 62.96701702 3.518349 58.77133716 -1.6875 54.75 C-6.98917185 50.6490117 -12.12738231 46.39581948 -17.1875 42 C-18.14112427 41.17193848 -18.14112427 41.17193848 -19.11401367 40.32714844 C-21.8268329 37.95540501 -24.4710972 35.56904412 -27 33 C-25.35 31.02 -23.7 29.04 -22 27 C-16.27445024 31.25906017 -10.62007798 35.60280936 -5 40 C-1.24911748 37.18352461 1.68123578 34.20932819 4.625 30.5625 C5.38039062 29.63566406 6.13578125 28.70882812 6.9140625 27.75390625 C8.81189124 25.24834583 10.44528251 22.72818261 12 20 C11.54560547 19.62190186 11.09121094 19.24380371 10.62304688 18.85424805 C8.57434321 17.14095394 6.53716105 15.4144987 4.5 13.6875 C3.78457031 13.09259766 3.06914063 12.49769531 2.33203125 11.88476562 C1.65527344 11.30791016 0.97851562 10.73105469 0.28125 10.13671875 C-0.34716797 9.60780029 -0.97558594 9.07888184 -1.62304688 8.53393555 C-3 7 -3 7 -3 4 C-1.5 1.8125 -1.5 1.8125 0 0 Z " fill="#7B0003" transform="translate(95,173)"/>
<path d="M0 0 C2.87348763 0.15060208 3.94583192 0.94873193 6.04296875 2.93359375 C6.75066406 3.75988281 7.45835937 4.58617187 8.1875 5.4375 C8.97769531 6.34628906 9.76789062 7.25507812 10.58203125 8.19140625 C11.37996094 9.11824219 12.17789063 10.04507813 13 11 C14.45363349 12.62920557 15.91189774 14.25429247 17.375 15.875 C18.11105469 16.69484375 18.84710937 17.5146875 19.60546875 18.359375 C21.32598877 20.25671844 23.0556273 22.14126655 24.80078125 24.015625 C29.86459631 29.46369778 34.6796774 34.92819527 39 41 C37.35 42.65 35.7 44.3 34 46 C30.19263971 44.4614092 28.06130455 42.12165284 25.375 39.0625 C24.59898437 38.18722656 23.82296875 37.31195312 23.0234375 36.41015625 C21 34 21 34 19 31 C15.43485124 32.53613553 12.96129644 34.6838452 10.125 37.3125 C6.48959981 40.64674278 2.8217061 43.8822924 -1 47 C0.89998167 51.74995417 4.68287636 55.06939561 8.1875 58.66601562 C12 62.68527819 12 62.68527819 12 66 C9 68.1875 9 68.1875 6 70 C1.80701547 65.92171718 -2.16554975 61.7302745 -5.984375 57.30078125 C-8.44480993 54.49226154 -10.97006858 51.74568192 -13.5 49 C-19.72144342 42.22966778 -25.78441601 35.58630398 -31 28 C-29.35 26.68 -27.7 25.36 -26 24 C-18.46782561 27.380453 -13.25691946 34.84828574 -8 41 C-3.21049648 38.46330311 0.4185868 35.01392315 4.3125 31.3125 C4.95767578 30.70599609 5.60285156 30.09949219 6.26757812 29.47460938 C7.84882134 27.98706946 9.42493187 26.4940768 11 25 C9.75907806 21.4353909 8.51967914 19.1825866 5.75 16.625 C2.23366962 13.27084838 -0.88198123 9.72641267 -4 6 C-2.84826645 3.53199953 -1.95216435 1.95216435 0 0 Z " fill="#7B0003" transform="translate(802,813)"/>
<path d="M0 0 C1.75 2.25 1.75 2.25 3 5 C1.85589068 8.35228074 0.37226469 9.70385715 -2.6953125 11.359375 C-3.41074219 11.75253906 -4.12617187 12.14570313 -4.86328125 12.55078125 C-5.60964844 12.94652344 -6.35601563 13.34226563 -7.125 13.75 C-7.87910156 14.16121094 -8.63320313 14.57242188 -9.41015625 14.99609375 C-11.26805201 16.00735347 -13.13333832 17.00501405 -15 18 C-14.22076172 19.35931641 -14.22076172 19.35931641 -13.42578125 20.74609375 C-9.57315925 27.47339291 -5.73751649 34.20778253 -2 41 C-0.58847656 40.16855469 -0.58847656 40.16855469 0.8515625 39.3203125 C2.10920604 38.58825133 3.36702808 37.85649675 4.625 37.125 C5.24246094 36.76019531 5.85992188 36.39539063 6.49609375 36.01953125 C10.24106836 33.85138806 13.81827217 32.22235121 18 31 C21.01330841 34.37490542 21.01330841 34.37490542 20.95947266 36.90356445 C19.48263186 40.13044281 17.13699288 41.05697781 14.0859375 42.79296875 C13.4835022 43.14075882 12.88106689 43.48854889 12.26037598 43.84687805 C10.30514664 44.97233992 8.34038149 46.07987956 6.375 47.1875 C5.0397745 47.95181131 3.70530053 48.71743702 2.37158203 49.484375 C-0.2405364 50.9856132 -2.85557077 52.48156159 -5.47265625 53.97412109 C-10.8600309 57.05613458 -16.15127742 60.29254619 -21.4453125 63.53125 C-24 65 -24 65 -27 66 C-30 60.25 -30 60.25 -30 58 C-28.1640625 56.71899414 -28.1640625 56.71899414 -25.625 55.28515625 C-24.72265625 54.76373047 -23.8203125 54.24230469 -22.890625 53.70507812 C-20.96521731 52.61097821 -19.03813234 51.51982467 -17.109375 50.43164062 C-16.20703125 49.90892578 -15.3046875 49.38621094 -14.375 48.84765625 C-13.53710938 48.37336182 -12.69921875 47.89906738 -11.8359375 47.41040039 C-11.23007812 46.94496826 -10.62421875 46.47953613 -10 46 C-10 42.4815399 -10.81032941 41.29977377 -12.625 38.33203125 C-13.16640625 37.43935547 -13.7078125 36.54667969 -14.265625 35.62695312 C-14.83796875 34.69818359 -15.4103125 33.76941406 -16 32.8125 C-16.57234375 31.87212891 -17.1446875 30.93175781 -17.734375 29.96289062 C-19.15039252 27.63826186 -20.57244813 25.31755705 -22 23 C-28.44638093 26.46849027 -34.79204536 30.02223631 -41.00390625 33.8984375 C-43 35 -43 35 -45 35 C-47.04169485 32.09451118 -48 30.59857954 -48 27 C-47.4423999 26.68361572 -46.8847998 26.36723145 -46.31030273 26.04125977 C-33.74274052 18.90350409 -21.24413751 11.68055779 -8.9296875 4.11328125 C-8.02476562 3.56027344 -7.11984375 3.00726563 -6.1875 2.4375 C-5.03314453 1.72400391 -5.03314453 1.72400391 -3.85546875 0.99609375 C-2 0 -2 0 0 0 Z " fill="#7B0003" transform="translate(910,235)"/>
<path d="M0 0 C6.53174873 2.02551586 12.7122689 4.53238237 18.92578125 7.37890625 C19.83579391 7.79164291 20.74580658 8.20437958 21.68339539 8.62962341 C24.5616862 9.93640048 27.43707407 11.24943307 30.3125 12.5625 C32.26088866 13.44765985 34.20945482 14.33242909 36.15820312 15.21679688 C39.71758813 16.83440328 43.27676884 18.45243813 46.83325195 20.07641602 C47.54334915 20.40045914 48.25344635 20.72450226 48.98506165 21.05836487 C51.00873005 22.00407979 53.00675749 22.99193559 55 24 C53.70700306 26.88437779 52.34058637 28.87219421 50 31 C45.48767788 29.6115932 41.36585725 27.80094316 37.1484375 25.70703125 C34.4921732 24.83287882 33.55045316 24.8491263 31 26 C28.44216142 28.2318318 28.44216142 28.2318318 25.9375 30.9375 C23.34346631 33.64855777 21.12668719 35.91554187 18 38 C18.18175781 38.54527344 18.36351562 39.09054688 18.55078125 39.65234375 C20.3671875 45.1015625 22.18359375 50.55078125 24 56 C19.25 60 19.25 60 17 60 C14.82940228 54.86363892 12.66071575 49.72647628 10.49365234 44.58862305 C9.75912675 42.8478519 9.0241162 41.10728529 8.28857422 39.36694336 C6.17666568 34.36952814 4.07872486 29.36658937 1.99206543 24.35858154 C1.03389196 22.08057629 0.05322457 19.813505 -0.93261719 17.54736328 C-1.50502233 16.1997417 -2.07698987 14.85193413 -2.6484375 13.50390625 C-3.15294434 12.33802979 -3.65745117 11.17215332 -4.17724609 9.97094727 C-5 7 -5 7 -4.33447266 4.78100586 C-3.01148014 3.01532156 -1.57290495 1.54191717 0 0 Z M5 10 C7.33937611 17.66795502 10.54768806 24.77137274 14 32 C15.06816445 31.13192399 16.12918085 30.25505217 17.1875 29.375 C17.77917969 28.88773438 18.37085938 28.40046875 18.98046875 27.8984375 C21.58543045 25.44967273 23.74813905 22.77690625 26 20 C22.87852455 18.32666842 19.75226502 16.66248284 16.625 15 C15.73554688 14.52304688 14.84609375 14.04609375 13.9296875 13.5546875 C13.07890625 13.10351562 12.228125 12.65234375 11.3515625 12.1875 C10.56604004 11.76855469 9.78051758 11.34960938 8.97119141 10.91796875 C7.06023569 9.85927999 7.06023569 9.85927999 5 10 Z " fill="#7B0003" transform="translate(124,143)"/>
<path d="M0 0 C1.625 2.75 1.625 2.75 3 6 C2.10719352 9.08614137 0.18992064 11.09539418 -1.9921875 13.40625 C-2.91233643 14.38440674 -2.91233643 14.38440674 -3.85107422 15.38232422 C-4.51896973 16.08115723 -5.18686523 16.77999023 -5.875 17.5 C-6.5673877 18.23105957 -7.25977539 18.96211914 -7.97314453 19.71533203 C-14.69347259 26.76760133 -21.58718226 33.64648271 -28.52294922 40.48632812 C-29.33779785 41.29263672 -30.15264648 42.09894531 -30.9921875 42.9296875 C-31.71776855 43.64366699 -32.44334961 44.35764648 -33.19091797 45.09326172 C-35.17061346 47.07144316 -35.17061346 47.07144316 -37 50 C-40 49 -40 49 -41.25 46.6875 C-42.08762144 43.68602316 -42.13770856 42.84684541 -41 40 C-38.71484375 37.421875 -38.71484375 37.421875 -35.9375 34.75 C-35.01839844 33.85796875 -34.09929688 32.9659375 -33.15234375 32.046875 C-32.44207031 31.37140625 -31.73179687 30.6959375 -31 30 C-33.16675912 23.04356283 -35.90883522 16.60005454 -39 10 C-44.94 10 -50.88 10 -57 10 C-59 5 -59 5 -59 2 C-53.16934261 1.71016299 -47.33845859 1.42558517 -41.50732422 1.14550781 C-39.53101985 1.04988536 -37.55477988 0.95292068 -35.57861328 0.85449219 C-23.70721258 0.26423482 -11.88750963 -0.15427193 0 0 Z M-15.00390625 7.0859375 C-16.11475586 7.15167969 -16.11475586 7.15167969 -17.24804688 7.21875 C-18.39370117 7.29609375 -18.39370117 7.29609375 -19.5625 7.375 C-20.71395508 7.44074219 -20.71395508 7.44074219 -21.88867188 7.5078125 C-25.11498028 7.71033578 -27.92001812 7.97333937 -31 9 C-29.36041242 14.23272633 -27.61047965 19.15196636 -25 24 C-18.26695568 19.37338295 -12.66001228 13.86878323 -7 8 C-9.78845019 7.19462929 -12.11074323 6.91046819 -15.00390625 7.0859375 Z " fill="#7B0003" transform="translate(946,303)"/>
<path d="M0 0 C1.10582949 3.77034766 2.20934947 7.54136772 3.3125 11.3125 C3.7755957 12.8912793 3.7755957 12.8912793 4.24804688 14.50195312 C5.17287741 17.66584707 6.08831317 20.83229548 7 24 C7.29116699 24.99990967 7.58233398 25.99981934 7.88232422 27.0300293 C10.17823975 35.11376537 12.28384969 43.59172683 8.125 51.4375 C4.25660161 56.77322192 -1.93785558 58.97928519 -8 61 C-20.56193353 61.94259819 -20.56193353 61.94259819 -26 58 C-33.02094651 50.97905349 -35.2191534 40.42533979 -37.71972656 31.15063477 C-38.25437111 29.17131762 -38.80218446 27.19597576 -39.3515625 25.22070312 C-42 15.52801927 -42 15.52801927 -42 11 C-39.69 10.34 -37.38 9.68 -35 9 C-31.61319311 17.41953862 -29.39370963 26.15412474 -27.04882812 34.91015625 C-26.71431641 36.11800781 -26.37980469 37.32585938 -26.03515625 38.5703125 C-25.7400415 39.66102051 -25.44492676 40.75172852 -25.14086914 41.87548828 C-23.6209458 46.03812018 -21.70923333 49.80083433 -18.0234375 52.38671875 C-13.15598402 53.8619894 -8.17949715 52.45035346 -3.5625 50.6875 C-0.76516603 48.84535324 0.1348162 48.20118008 1 45 C1.25515265 39.3301517 0.62078506 34.55736161 -1.00390625 29.10546875 C-1.30711037 28.03441643 -1.30711037 28.03441643 -1.61643982 26.94172668 C-2.25528148 24.68736089 -2.90741546 22.43719505 -3.5625 20.1875 C-4.22042066 17.91977859 -4.87509848 15.65138199 -5.51927185 13.37971497 C-5.91834103 11.97280959 -6.32532524 10.56811948 -6.74110413 9.1660614 C-7.6757799 5.87541469 -8.1082054 4.32461621 -7 1 C-4.52260646 0.09162237 -2.66420516 0 0 0 Z " fill="#7B0003" transform="translate(359,19)"/>
<path d="M0 0 C5.22585039 0.60298274 9.51318571 3.07281961 14.125 5.4375 C14.99938721 5.88053467 15.87377441 6.32356934 16.7746582 6.7800293 C28.96150712 12.97786248 41.07031426 19.31972712 53 26 C53 28.97 53 31.94 53 35 C45.88208665 37.09088081 38.76291668 39.1774224 31.64210796 41.25842285 C28.3357261 42.22483513 25.02979671 43.19274059 21.72485352 44.1640625 C17.92593862 45.28049149 14.12513982 46.39041933 10.32421875 47.5 C9.13664474 47.84998047 7.94907074 48.19996094 6.72550964 48.56054688 C5.62459488 48.88087891 4.52368011 49.20121094 3.3894043 49.53125 C2.41899704 49.81548828 1.44858978 50.09972656 0.44877625 50.39257812 C-2 51 -2 51 -5 51 C-4.67 48.03 -4.34 45.06 -4 42 C-1.73050898 41.32844651 0.5403961 40.6626037 2.8125 40 C4.07707031 39.62875 5.34164062 39.2575 6.64453125 38.875 C10 38 10 38 13 38 C13.09087891 36.515 13.09087891 36.515 13.18359375 35 C13.60460466 28.30533362 14.05074129 21.64481097 15 15 C14.195625 14.773125 13.39125 14.54625 12.5625 14.3125 C8.08714261 12.66368412 4.11278682 10.39455588 0 8 C0 5.36 0 2.72 0 0 Z M22 19 C20.47943501 22.04112998 20.6258839 25.28197797 20.4375 28.625 C20.293125 31.05875 20.14875 33.4925 20 36 C32.375 33.03 32.375 33.03 45 30 C42.44009047 28.29339365 40.12411092 27.08081378 37.33203125 25.8359375 C36.43935547 25.43632813 35.54667969 25.03671875 34.62695312 24.625 C33.69818359 24.2125 32.76941406 23.8 31.8125 23.375 C30.87212891 22.95476563 29.93175781 22.53453125 28.96289062 22.1015625 C26.64300282 21.06526744 24.32201653 20.03151424 22 19 Z " fill="#7B0003" transform="translate(933,524)"/>
<path d="M0 0 C2.64 0.33 5.28 0.66 8 1 C7.23494778 9.38039956 5.52765759 17.46121589 3.72851562 25.67382812 C2.3972329 32.02750107 1.06462254 38.49597238 2 45 C4.98742463 49.21754066 7.99575376 50.89906583 13 52 C17.33100411 52.29868994 20.30604746 52.32402547 24 50 C29.2797364 42.79777561 30.08945718 31.99275131 31.75 23.4375 C32.06804545 21.84030234 32.38704812 20.24329497 32.70703125 18.64648438 C33.48240992 14.76642927 34.24478134 10.88402719 35 7 C37.64 7.33 40.28 7.66 43 8 C42.27987918 15.97338596 40.78875839 23.72308856 39.1875 31.5625 C38.93935547 32.83802734 38.69121094 34.11355469 38.43554688 35.42773438 C36.43392178 45.24231849 34.48890742 53.0397033 26 59 C18.27444314 61.57518562 9.50761092 60.69259944 2.1640625 57.34375 C-2.3126517 54.56398523 -5.33853297 50.9844011 -7 46 C-7.81965657 36.40015832 -5.99030955 27.27371597 -4.0625 17.9375 C-3.78089644 16.52428835 -3.50029172 15.11087729 -3.22070312 13.69726562 C-1.20946771 3.62840312 -1.20946771 3.62840312 0 0 Z " fill="#7C0004" transform="translate(559,11)"/>
<path d="M0 0 C2.91617357 1.36893355 4.54680711 3.39318973 6.66796875 5.8046875 C7.10512207 6.29791504 7.54227539 6.79114258 7.99267578 7.29931641 C11.63637106 11.44341075 15.09072629 15.73667642 18.5546875 20.03125 C21.32802433 23.34496324 24.22409019 26.51789487 27.16796875 29.6796875 C27.68117676 30.23100342 28.19438477 30.78231934 28.72314453 31.3503418 C29.21927246 31.88312744 29.71540039 32.41591309 30.2265625 32.96484375 C38.98046875 42.3671875 38.98046875 42.3671875 38.98046875 44.9296875 C36.34046875 45.9196875 33.70046875 46.9096875 30.98046875 47.9296875 C20.26239984 35.53245446 10.11516957 22.82839763 -0.01953125 9.9296875 C-0.34953125 26.4296875 -0.67953125 42.9296875 -1.01953125 59.9296875 C-3.65953125 60.5896875 -6.29953125 61.2496875 -9.01953125 61.9296875 C-8.89931818 56.27774039 -8.77499702 50.6259022 -8.6472168 44.97412109 C-8.60447985 43.06008219 -8.56277649 41.14601987 -8.5222168 39.23193359 C-8.25747265 26.77915326 -7.80237665 14.36108041 -7.01953125 1.9296875 C-2.27197266 -0.07910156 -2.27197266 -0.07910156 0 0 Z " fill="#7B0003" transform="translate(641.01953125,916.0703125)"/>
<path d="M0 0 C4.74060732 2.96198309 8.66149565 6.3241625 12.6875 10.1875 C18.58287544 15.75709487 24.65801104 20.94113319 31 26 C33.00815177 27.65721263 35.004238 29.32787508 37 31 C40.92496041 27.17426612 44.68179791 23.38002676 48 19 C51.47899158 20.39159663 52.48052501 21.63251488 54 25 C53.14277344 25.9178125 52.28554688 26.835625 51.40234375 27.78125 C43.40681202 36.34711399 43.40681202 36.34711399 35.6328125 45.11328125 C32.46188533 48.77729519 29.2238591 52.38257888 26 56 C24.35 55.34 22.7 54.68 21 54 C21 49.47473021 21.36026968 49.14920044 24.3125 46.0625 C26.96222438 43.19285922 29.15552516 40.47195264 31 37 C30.46890625 36.78730469 29.9378125 36.57460938 29.390625 36.35546875 C26.07851498 34.47752402 23.49067632 31.91958177 20.75 29.3125 C19.58274649 28.21798673 18.41478071 27.12423255 17.24609375 26.03125 C16.68519043 25.5053125 16.12428711 24.979375 15.54638672 24.4375 C13.0783122 22.14321159 10.53637295 19.93871985 7.98828125 17.734375 C3.94603522 14.20832935 -0.02035755 10.59635722 -4 7 C-2.79618552 4.50638429 -1.54571278 2.31856917 0 0 Z " fill="#7B0003" transform="translate(825,788)"/>
<path d="M0 0 C2 3 2 3 2 8 C-3.61 8.99 -9.22 9.98 -15 11 C-14.68192383 12.92247559 -14.68192383 12.92247559 -14.35742188 14.88378906 C-13.57148492 19.63928373 -12.78974777 24.39546084 -12.00927734 29.15185547 C-11.6709053 31.21031244 -11.33139476 33.26858259 -10.99072266 35.32666016 C-10.50123414 38.28499749 -10.01584452 41.24398258 -9.53125 44.203125 C-9.37813354 45.12305237 -9.22501709 46.04297974 -9.06726074 46.99078369 C-8.85704285 48.28166901 -8.85704285 48.28166901 -8.64257812 49.59863281 C-8.51822388 50.35364075 -8.39386963 51.10864868 -8.26574707 51.88653564 C-8 54 -8 54 -8 58 C-10.64 58.33 -13.28 58.66 -16 59 C-16.97891122 53.41330369 -17.95749868 47.82655081 -18.93579102 42.23974609 C-19.26838508 40.3406421 -19.60106637 38.44155338 -19.93383789 36.54248047 C-20.41315481 33.80700666 -20.89215418 31.0714774 -21.37109375 28.3359375 C-21.51904892 27.49195404 -21.66700409 26.64797058 -21.81944275 25.77841187 C-22.56436952 21.52180221 -23.29739834 17.26385726 -24 13 C-25.21558594 13.15597656 -26.43117188 13.31195313 -27.68359375 13.47265625 C-29.26819337 13.66955916 -30.85283078 13.86615809 -32.4375 14.0625 C-33.23994141 14.16626953 -34.04238281 14.27003906 -34.86914062 14.37695312 C-36.90807868 14.62644343 -38.95395061 14.81780318 -41 15 C-41.33 14.67 -41.66 14.34 -42 14 C-42 11.69 -42 9.38 -42 7 C-28.14 4.69 -14.28 2.38 0 0 Z " fill="#7C0004" transform="translate(414,8)"/>
<path d="M0 0 C5.14142125 0.40613293 10.28260101 0.81516295 15.42358398 1.22680664 C17.1702663 1.36626328 18.91701054 1.50494659 20.66381836 1.64282227 C23.18360043 1.84184697 25.7031421 2.04370888 28.22265625 2.24609375 C28.99585709 2.3065538 29.76905792 2.36701385 30.56568909 2.42930603 C35.0767371 2.79486764 39.52623512 3.31352189 44 4 C44.04254356 5.99954746 44.04080783 8.00041636 44 10 C43 11 43 11 41.25 11.1328125 C35.75995455 11.11374984 30.44712142 10.69169796 25 10 C25.02964844 11.28003906 25.05929687 12.56007813 25.08984375 13.87890625 C25.08856547 21.13057411 24.41056501 28.32536945 23.77319336 35.54321289 C23.56086641 37.95606384 23.35716466 40.36954036 23.15429688 42.78320312 C23.02134177 44.32296065 22.88789618 45.86267593 22.75390625 47.40234375 C22.6934462 48.12107162 22.63298615 48.8397995 22.57069397 49.58030701 C22.30275623 52.56500248 21.95197696 55.14406913 21 58 C18.36 57.67 15.72 57.34 13 57 C14.32 41.16 15.64 25.32 17 9 C11.39 8.67 5.78 8.34 0 8 C0 5.36 0 2.72 0 0 Z " fill="#7C0004" transform="translate(502,5)"/>
<path d="M0 0 C2.98522053 2.4185544 4.69961803 5.53718399 6.62109375 8.8046875 C7.5045384 10.26291529 8.39000676 11.71991868 9.27734375 13.17578125 C9.72722656 13.91683105 10.17710937 14.65788086 10.640625 15.42138672 C12.72059562 18.7908492 14.91141324 22.08183177 17.12109375 25.3671875 C17.53101563 25.97788086 17.9409375 26.58857422 18.36328125 27.21777344 C19.17376517 28.42381997 19.98495053 29.62939545 20.796875 30.83447266 C22.7479021 33.73479837 24.68396815 36.64506718 26.62109375 39.5546875 C27.27335938 40.53308594 27.925625 41.51148438 28.59765625 42.51953125 C29.05914063 43.21175781 29.520625 43.90398438 29.99609375 44.6171875 C27.68359375 47.1171875 27.68359375 47.1171875 24.99609375 49.6171875 C24.00609375 49.6171875 23.01609375 49.6171875 21.99609375 49.6171875 C20.52905273 47.83569336 20.52905273 47.83569336 18.9921875 45.33203125 C18.42081055 44.41518555 17.84943359 43.49833984 17.26074219 42.55371094 C16.6577832 41.5640332 16.05482422 40.57435547 15.43359375 39.5546875 C14.17832463 37.53698764 12.9218072 35.52006387 11.6640625 33.50390625 C11.04450684 32.50536621 10.42495117 31.50682617 9.78662109 30.47802734 C7.33710652 26.56428154 4.81074814 22.70618027 2.24609375 18.8671875 C1.63785767 17.94860962 1.63785767 17.94860962 1.01733398 17.01147461 C-0.53683982 14.68675814 -2.02098294 12.60011081 -4.00390625 10.6171875 C-10.93390625 15.2371875 -17.86390625 19.8571875 -25.00390625 24.6171875 C-29.00390625 20.6171875 -29.00390625 20.6171875 -30.00390625 17.6171875 C-28.35455078 16.54791016 -28.35455078 16.54791016 -26.671875 15.45703125 C-25.9605542 14.99578857 -25.2492334 14.5345459 -24.51635742 14.05932617 C-22.96196171 13.05336789 -21.40612363 12.04963497 -19.84887695 11.0480957 C-16.39271778 8.82399161 -12.94621826 6.59674038 -9.56640625 4.2578125 C-8.61765625 3.61328125 -7.66890625 2.96875 -6.69140625 2.3046875 C-5.87027344 1.73105469 -5.04914062 1.15742187 -4.203125 0.56640625 C-2.00390625 -0.3828125 -2.00390625 -0.3828125 0 0 Z " fill="#7B0003" transform="translate(746.00390625,861.3828125)"/>
<path d="M0 0 C6.08726869 3.94055074 11.88020316 8.12317584 17.5625 12.625 C22.22922661 16.30697738 26.90107591 19.95944079 31.72265625 23.4375 C32.46378662 23.97552246 33.20491699 24.51354492 33.96850586 25.06787109 C35.37958577 26.08676249 36.79815975 27.09537438 38.22485352 28.09228516 C40.1328125 29.4765625 40.1328125 29.4765625 43 32 C43 36 43 36 41 38.25 C40.34 38.8275 39.68 39.405 39 40 C28.56059263 32.39149988 18.20480509 24.69843906 8.05322266 16.70849609 C3.77954756 13.35096339 -0.55334559 10.12546259 -5 7 C-1.125 1.125 -1.125 1.125 0 0 Z " fill="#7B0003" transform="translate(847,762)"/>
<path d="M0 0 C3.77639718 0.51032394 5.44722581 1.20766929 8 4 C5.49187892 9.99586423 2.98328348 15.99152984 0.47436523 21.98706055 C-0.37828196 24.02477572 -1.23082237 26.06253558 -2.08325195 28.1003418 C-3.31172762 31.03706558 -4.54059296 33.97362604 -5.76953125 36.91015625 C-6.14777542 37.81459976 -6.52601959 38.71904327 -6.91572571 39.65089417 C-8.92193271 44.44356991 -10.94510752 49.22798829 -13 54 C-15.35171131 53.40138258 -17.6859378 52.73075648 -20 52 C-20.33 51.34 -20.66 50.68 -21 50 C-20.08747555 47.41480011 -19.10621032 44.93754298 -18.02734375 42.421875 C-17.70721817 41.65885071 -17.38709259 40.89582642 -17.05726624 40.10968018 C-16.02460549 37.65331982 -14.9811794 35.20169605 -13.9375 32.75 C-13.26036531 31.14352505 -12.58392518 29.53675715 -11.90820312 27.9296875 C-7.98005018 18.60224631 -3.99806871 9.29765848 0 0 Z " fill="#7B0003" transform="translate(676,44)"/>
<path d="M0 0 C3 1 3 1 3 1 Z " fill="#2A0000" transform="translate(801,130)"/>
</svg>
