<svg width="386" height="506" viewBox="0 0 386 506" fill="none" xmlns="http://www.w3.org/2000/svg">
	<g filter="url(#filter0_n_1_47)">
		<path fill-rule="evenodd" clip-rule="evenodd" d="M161.5 238.5C167.02 246.779 169 262 169 262L173.5 318.5L191 310.5C191 310.5 187.562 293.325 186 282C184.438 270.675 183 252.5 183 252.5C183 252.5 183.438 228.384 185 219.5C186.562 210.616 191 207 191 207C191 207 216.794 195.358 230.5 183C251.276 164.267 263 146.5 267 121C269.581 104.548 267 70.5 267 70.5L254 29.5C254 29.5 235.719 34.1511 225 39.5C217 43.492 181.232 64.5382 167 104.5C155.885 135.709 174.5 176.5 174.5 182C174.5 192.741 173 211 173 211C173 211 167.006 174.16 154 155C144.151 140.492 137.301 132.065 122 123.5C109.874 116.712 101.806 114.583 88 113C79.4644 112.021 66 113 66 113C66 113 64.5399 131.376 66 143C69.2591 168.948 74.3488 185.673 92.5 204.5C103.852 216.274 112.678 220.586 127.5 227.5C140.147 233.399 158.5 234 161.5 238.5ZM158.5 206C165.859 218.093 174 237 174 237C174 237 151.5 206 142.5 200.5C128.535 191.966 103.5 187.125 105 187L105.146 186.988C109.887 186.593 110.804 186.517 117.5 187.5C124.718 188.56 139 192.5 139 192.5C139 192.5 123.122 175.173 113.5 164.5C104.792 154.841 92 142 92 140.5C92 139.226 104.5 148.467 112.5 154.5C119.467 159.754 130.5 169 130.5 169L128.5 153.5C128.5 153.5 137.667 177 139 179C143 185 151.983 195.29 158.5 206ZM201 177.5C191.478 186.427 180.5 202.5 180.5 202.5C180.5 202.5 181.689 186.935 184 177C186.268 167.25 192 152.5 192 152.5C192 152.5 196.02 142.661 197 136C197.966 129.432 197.293 125.639 197 119C196.707 112.361 195.5 102 195.5 102C195.5 102 197.935 109.851 199 115C200.119 120.408 201 129 201 129L208.5 110.5L219 89.5L243 50.5L217 119C217 119 227.134 110.866 233.5 105.5C239.427 100.504 248.5 92 248.5 92.5C248.5 93 245.023 98.9737 240.5 105C231.535 116.945 209.5 133.5 209.5 133.5C209.5 133.5 203.793 145.565 201 153.5C198.355 161.016 195 173 195 173C195 173 210.38 161.731 220 156.5C227.288 152.537 238.5 146.5 238.5 146.5C238.5 146.5 234.582 149.999 228 155.5C219.997 162.188 209 170 201 177.5Z" fill="#384C2F"/>
		<path d="M90.5 268C70 262 3.14095 228.5 3.14095 228.5C6.58329 247.44 12.7688 265.417 21.2683 282C21.2683 282 82.5 315.5 110 321.5C149 330.009 173.5 318.5 173.5 318.5L169 262C169 262 116.162 275.511 90.5 268Z" fill="#9F773F"/>
		<path d="M267 193.5C248 204.5 183 252.5 183 252.5C183 252.5 184.438 270.675 186 282C187.562 293.325 191 310.5 191 310.5C191 310.5 223.344 292.261 242.5 275.5C262.5 258 277.06 242.182 305 232C323.821 225.141 335.524 221.502 355.5 223C365.986 223.786 381.859 228.5 381.859 228.5C383.922 217.148 385 205.451 385 193.5C385 191.325 385.071 189.158 385 187C385 187 367.266 180.755 355.5 179C298.5 170.5 286 182.5 267 193.5Z" fill="#9F773F"/>
		<path d="M191 310.5L173.5 318.5C173.5 318.5 149 330.009 110 321.5C82.5 315.5 21.2683 282 21.2683 282C46.1279 330.502 90.7835 367.078 144.5 380.936C144.5 380.936 178.906 375.88 199 367C218.617 358.331 227.382 349.231 245 337C265.403 322.836 273.386 309.271 296 299C312.778 291.38 323.13 287.956 341.5 286.5C349.228 285.887 361.35 286.5 361.35 286.5C371.081 268.687 378.103 249.167 381.859 228.5C381.859 228.5 365.986 223.786 355.5 223C335.524 221.502 323.821 225.141 305 232C277.06 242.182 262.5 258 242.5 275.5C223.344 292.261 191 310.5 191 310.5Z" fill="#727643"/>
		<path d="M180.5 202.5C180.5 202.5 191.478 186.427 201 177.5C209 170 219.997 162.188 228 155.5C234.582 149.999 238.5 146.5 238.5 146.5C238.5 146.5 227.288 152.537 220 156.5C210.38 161.731 195 173 195 173C195 173 198.355 161.016 201 153.5C203.793 145.565 209.5 133.5 209.5 133.5C209.5 133.5 231.535 116.945 240.5 105C245.023 98.9737 248.5 93 248.5 92.5C248.5 92 239.427 100.504 233.5 105.5C227.134 110.866 217 119 217 119L243 50.5L219 89.5L208.5 110.5L201 129C201 129 200.119 120.408 199 115C197.935 109.851 195.5 102 195.5 102C195.5 102 196.707 112.361 197 119C197.293 125.639 197.966 129.432 197 136C196.02 142.661 192 152.5 192 152.5C192 152.5 186.268 167.25 184 177C181.689 186.935 180.5 202.5 180.5 202.5Z" fill="#727643"/>
		<path d="M174 237C174 237 165.859 218.093 158.5 206C151.983 195.29 143 185 139 179C137.667 177 128.5 153.5 128.5 153.5L130.5 169C130.5 169 119.467 159.754 112.5 154.5C104.5 148.467 92 139.226 92 140.5C92 142 104.792 154.841 113.5 164.5C123.122 175.173 139 192.5 139 192.5C139 192.5 124.718 188.56 117.5 187.5C110.804 186.517 109.887 186.593 105.146 186.988L105 187C103.5 187.125 128.535 191.966 142.5 200.5C151.5 206 174 237 174 237Z" fill="#727643"/>
		<path d="M192.5 387C265.281 387 328.629 346.399 361.35 286.5C361.35 286.5 349.228 285.887 341.5 286.5C323.13 287.956 312.778 291.38 296 299C273.386 309.271 265.403 322.836 245 337C227.382 349.231 218.617 358.331 199 367C178.906 375.88 144.5 380.936 144.5 380.936C159.844 384.895 175.927 387 192.5 387Z" fill="#384C2F"/>
		<path d="M192.5 0C86.1852 0 0 86.6329 0 193.5C0 205.451 1.07777 217.148 3.14095 228.5C3.14095 228.5 70 262 90.5 268C116.162 275.511 169 262 169 262C169 262 167.02 246.779 161.5 238.5C158.5 234 140.147 233.399 127.5 227.5C112.678 220.586 103.852 216.274 92.5 204.5C74.3488 185.673 69.2591 168.948 66 143C64.5399 131.376 66 113 66 113C66 113 79.4644 112.021 88 113C101.806 114.583 109.874 116.712 122 123.5C137.301 132.065 144.151 140.492 154 155C167.006 174.16 173 211 173 211C173 211 174.5 192.741 174.5 182C174.5 176.5 155.885 135.709 167 104.5C181.232 64.5382 217 43.492 225 39.5C235.719 34.1511 254 29.5 254 29.5L267 70.5C267 70.5 269.581 104.548 267 121C263 146.5 251.276 164.267 230.5 183C216.794 195.358 191 207 191 207C191 207 186.562 210.616 185 219.5C183.438 228.384 183 252.5 183 252.5C183 252.5 248 204.5 267 193.5C286 182.5 298.5 170.5 355.5 179C367.266 180.755 385 187 385 187C381.59 83.142 296.651 0 192.5 0Z" fill="#E1C38E"/>
	</g>
	<path d="M86.875 429C85.5339 429 84.5117 428.831 83.8086 428.492C83.1185 428.154 82.6497 427.6 82.4023 426.832C82.168 426.064 82.0508 425.042 82.0508 423.766V406.227C82.0508 404.924 82.168 403.896 82.4023 403.141C82.6497 402.372 83.1185 401.826 83.8086 401.5C84.5117 401.161 85.5339 400.992 86.875 400.992H96.0547C96.3672 400.992 96.6016 401.044 96.7578 401.148C97.0964 401.383 97.4479 401.663 97.8125 401.988C98.1771 402.314 98.5612 402.704 98.9648 403.16C99.0951 403.329 99.1602 403.466 99.1602 403.57C99.1602 403.688 99.0951 403.818 98.9648 403.961C98.5612 404.417 98.1771 404.807 97.8125 405.133C97.4479 405.458 97.0964 405.738 96.7578 405.973C96.5755 406.077 96.3411 406.129 96.0547 406.129H90.5859C89.7266 406.129 89.1406 406.311 88.8281 406.676C88.5156 407.04 88.3594 407.665 88.3594 408.551V412.34H95.3711C95.6836 412.34 95.918 412.392 96.0742 412.496C96.4128 412.73 96.7643 413.01 97.1289 413.336C97.4935 413.661 97.8776 414.052 98.2812 414.508C98.4115 414.677 98.4766 414.814 98.4766 414.918C98.4766 415.035 98.4115 415.165 98.2812 415.309C97.8776 415.764 97.4935 416.155 97.1289 416.48C96.7643 416.806 96.4128 417.086 96.0742 417.32C95.8919 417.424 95.6576 417.477 95.3711 417.477H88.3594V421.422C88.3594 422.294 88.5156 422.919 88.8281 423.297C89.1406 423.674 89.7266 423.863 90.5859 423.863H96.6992C97.0117 423.863 97.2461 423.915 97.4023 424.02C97.7409 424.254 98.0924 424.534 98.457 424.859C98.8216 425.185 99.2057 425.576 99.6094 426.031C99.7396 426.201 99.8047 426.337 99.8047 426.441C99.8047 426.559 99.7396 426.689 99.6094 426.832C99.2057 427.288 98.8216 427.678 98.457 428.004C98.0924 428.329 97.7409 428.609 97.4023 428.844C97.2201 428.948 96.9857 429 96.6992 429H86.875ZM119.004 402.535C119.72 403.538 120.449 404.833 121.191 406.422C121.947 407.997 122.676 409.729 123.379 411.617C124.082 413.505 124.714 415.439 125.273 417.418C125.846 419.384 126.315 421.279 126.68 423.102C127.044 424.924 127.253 426.546 127.305 427.965C127.318 428.655 127.005 429 126.367 429H121.641C121.029 429 120.71 428.694 120.684 428.082C120.632 426.624 120.397 424.853 119.98 422.77H109.316C108.952 424.801 108.743 426.572 108.691 428.082C108.665 428.694 108.333 429 107.695 429H103.066C102.832 429 102.637 428.935 102.48 428.805C102.324 428.661 102.253 428.421 102.266 428.082C102.331 426.637 102.539 424.996 102.891 423.16C103.255 421.311 103.724 419.397 104.297 417.418C104.87 415.439 105.508 413.505 106.211 411.617C106.914 409.716 107.643 407.978 108.398 406.402C109.154 404.827 109.889 403.538 110.605 402.535C110.983 402.001 111.38 401.611 111.797 401.363C112.227 401.116 112.754 400.992 113.379 400.992H116.191C116.829 400.992 117.363 401.116 117.793 401.363C118.223 401.611 118.626 402.001 119.004 402.535ZM114.59 407.164C113.73 408.531 112.943 410.165 112.227 412.066C111.51 413.967 110.892 415.921 110.371 417.926H118.848C118.301 415.921 117.669 413.967 116.953 412.066C116.237 410.165 115.488 408.531 114.707 407.164H114.59ZM138.203 427.965C138.203 428.355 138.118 428.629 137.949 428.785C137.793 428.928 137.52 429 137.129 429H132.969C132.578 429 132.298 428.928 132.129 428.785C131.973 428.629 131.895 428.355 131.895 427.965V406.227C131.895 404.924 132.012 403.896 132.246 403.141C132.493 402.372 132.962 401.826 133.652 401.5C134.355 401.161 135.378 400.992 136.719 400.992H141.895C148.691 400.992 152.09 403.603 152.09 408.824C152.09 410.413 151.823 411.715 151.289 412.73C150.755 413.746 150.091 414.54 149.297 415.113C148.503 415.673 147.721 416.096 146.953 416.383V416.48C147.826 417.053 148.652 417.809 149.434 418.746C150.228 419.671 150.944 420.68 151.582 421.773C152.22 422.854 152.76 423.928 153.203 424.996C153.646 426.051 153.952 426.995 154.121 427.828C154.199 428.219 154.199 428.512 154.121 428.707C154.056 428.902 153.835 429 153.457 429H148.945C148.607 429 148.307 428.928 148.047 428.785C147.799 428.642 147.572 428.31 147.363 427.789C146.374 425.302 145.234 423.277 143.945 421.715C142.656 420.139 141.413 418.876 140.215 417.926C139.447 417.314 139.062 416.878 139.062 416.617C139.062 416.409 139.186 416.122 139.434 415.758C139.59 415.536 139.818 415.27 140.117 414.957C140.417 414.645 140.677 414.41 140.898 414.254C141.12 414.098 141.296 414 141.426 413.961C141.569 413.922 141.784 413.902 142.07 413.902C143.034 413.902 143.835 413.57 144.473 412.906C145.124 412.242 145.449 411.194 145.449 409.762C145.449 408.408 145.104 407.418 144.414 406.793C143.737 406.155 142.799 405.836 141.602 405.836H140.43C139.57 405.836 138.984 406.018 138.672 406.383C138.359 406.747 138.203 407.372 138.203 408.258V427.965ZM169.512 427.965C169.512 428.355 169.427 428.629 169.258 428.785C169.102 428.928 168.828 429 168.438 429H164.277C163.887 429 163.607 428.928 163.438 428.785C163.281 428.629 163.203 428.355 163.203 427.965V406.129H157.383C157.07 406.129 156.836 406.077 156.68 405.973C156.341 405.738 155.99 405.458 155.625 405.133C155.273 404.807 154.889 404.417 154.473 403.961C154.342 403.792 154.277 403.655 154.277 403.551C154.277 403.434 154.342 403.303 154.473 403.16C154.889 402.704 155.273 402.314 155.625 401.988C155.99 401.663 156.341 401.383 156.68 401.148C156.862 401.044 157.096 400.992 157.383 400.992H175.352C175.664 400.992 175.898 401.044 176.055 401.148C176.393 401.383 176.745 401.663 177.109 401.988C177.474 402.314 177.858 402.704 178.262 403.16C178.392 403.329 178.457 403.466 178.457 403.57C178.457 403.688 178.392 403.818 178.262 403.961C177.858 404.417 177.474 404.807 177.109 405.133C176.745 405.458 176.393 405.738 176.055 405.973C175.872 406.077 175.638 406.129 175.352 406.129H169.512V427.965ZM199.492 404.117C199.492 403.74 199.557 403.453 199.688 403.258C200.273 402.398 201.094 401.493 202.148 400.543C202.344 400.387 202.513 400.309 202.656 400.309C202.812 400.309 202.975 400.387 203.145 400.543C203.717 401.038 204.199 401.513 204.59 401.969C204.98 402.411 205.319 402.841 205.605 403.258C205.736 403.466 205.801 403.753 205.801 404.117V427.965C205.801 428.355 205.716 428.629 205.547 428.785C205.391 428.928 205.117 429 204.727 429H200.566C200.176 429 199.896 428.928 199.727 428.785C199.57 428.629 199.492 428.355 199.492 427.965V417.594H187.891V427.965C187.891 428.355 187.806 428.629 187.637 428.785C187.48 428.928 187.207 429 186.816 429H182.656C182.266 429 181.986 428.928 181.816 428.785C181.66 428.629 181.582 428.355 181.582 427.965V402.027C181.582 401.637 181.66 401.37 181.816 401.227C181.986 401.07 182.266 400.992 182.656 400.992H186.816C187.207 400.992 187.48 401.07 187.637 401.227C187.806 401.37 187.891 401.637 187.891 402.027V412.164H199.492V404.117ZM227.93 429C226.589 429 225.566 428.831 224.863 428.492C224.173 428.154 223.704 427.6 223.457 426.832C223.223 426.064 223.105 425.042 223.105 423.766V404.117C223.105 403.74 223.171 403.453 223.301 403.258C223.887 402.398 224.707 401.493 225.762 400.543C225.957 400.387 226.126 400.309 226.27 400.309C226.426 400.309 226.589 400.387 226.758 400.543C227.331 401.038 227.812 401.513 228.203 401.969C228.594 402.411 228.932 402.841 229.219 403.258C229.349 403.466 229.414 403.753 229.414 404.117V421.441C229.414 422.314 229.57 422.939 229.883 423.316C230.195 423.694 230.781 423.883 231.641 423.883L237.637 423.863C237.949 423.863 238.184 423.915 238.34 424.02C238.678 424.254 239.03 424.534 239.395 424.859C239.759 425.185 240.143 425.576 240.547 426.031C240.677 426.201 240.742 426.337 240.742 426.441C240.742 426.559 240.677 426.689 240.547 426.832C240.143 427.288 239.759 427.678 239.395 428.004C239.03 428.329 238.678 428.609 238.34 428.844C238.158 428.948 237.923 429 237.637 429H227.93ZM249.609 427.965C249.609 428.355 249.525 428.629 249.355 428.785C249.199 428.928 248.926 429 248.535 429H244.375C243.984 429 243.704 428.928 243.535 428.785C243.379 428.629 243.301 428.355 243.301 427.965V404.117C243.301 403.74 243.366 403.453 243.496 403.258C244.082 402.398 244.902 401.493 245.957 400.543C246.152 400.387 246.322 400.309 246.465 400.309C246.621 400.309 246.784 400.387 246.953 400.543C247.526 401.038 248.008 401.513 248.398 401.969C248.789 402.411 249.128 402.841 249.414 403.258C249.544 403.466 249.609 403.753 249.609 404.117V427.965ZM261.836 427.965C261.836 428.355 261.758 428.629 261.602 428.785C261.458 428.928 261.198 429 260.82 429H256.895C256.53 429 256.27 428.928 256.113 428.785C255.957 428.629 255.879 428.355 255.879 427.965V403.219C255.879 402.451 256.029 401.891 256.328 401.539C256.628 401.174 257.155 400.992 257.91 400.992H259.727C260.391 400.992 261.016 401.083 261.602 401.266C262.201 401.435 262.832 401.826 263.496 402.438C264.173 403.049 264.954 404 265.84 405.289C266.738 406.565 267.819 408.31 269.082 410.523C270.293 412.633 271.263 414.319 271.992 415.582C272.734 416.845 273.307 417.809 273.711 418.473C274.115 419.137 274.414 419.612 274.609 419.898C274.818 420.185 274.987 420.419 275.117 420.602V404.117C275.117 403.74 275.176 403.453 275.293 403.258C275.853 402.398 276.628 401.493 277.617 400.543C277.812 400.387 277.975 400.309 278.105 400.309C278.249 400.309 278.405 400.387 278.574 400.543C279.108 401.038 279.557 401.513 279.922 401.969C280.299 402.411 280.625 402.841 280.898 403.258C281.016 403.466 281.074 403.753 281.074 404.117V427.379C281.074 427.965 280.964 428.382 280.742 428.629C280.521 428.876 280.117 429 279.531 429H277.656C277.096 429 276.523 428.909 275.938 428.727C275.352 428.531 274.688 428.102 273.945 427.438C273.203 426.76 272.324 425.712 271.309 424.293C270.293 422.874 269.069 420.934 267.637 418.473C266.426 416.376 265.456 414.71 264.727 413.473C264.01 412.236 263.464 411.305 263.086 410.68C262.708 410.042 262.435 409.599 262.266 409.352C262.096 409.091 261.953 408.896 261.836 408.766V427.965ZM292.148 429C290.807 429 289.785 428.831 289.082 428.492C288.392 428.154 287.923 427.6 287.676 426.832C287.441 426.064 287.324 425.042 287.324 423.766V406.227C287.324 404.924 287.441 403.896 287.676 403.141C287.923 402.372 288.392 401.826 289.082 401.5C289.785 401.161 290.807 400.992 292.148 400.992H301.328C301.641 400.992 301.875 401.044 302.031 401.148C302.37 401.383 302.721 401.663 303.086 401.988C303.451 402.314 303.835 402.704 304.238 403.16C304.368 403.329 304.434 403.466 304.434 403.57C304.434 403.688 304.368 403.818 304.238 403.961C303.835 404.417 303.451 404.807 303.086 405.133C302.721 405.458 302.37 405.738 302.031 405.973C301.849 406.077 301.615 406.129 301.328 406.129H295.859C295 406.129 294.414 406.311 294.102 406.676C293.789 407.04 293.633 407.665 293.633 408.551V412.34H300.645C300.957 412.34 301.191 412.392 301.348 412.496C301.686 412.73 302.038 413.01 302.402 413.336C302.767 413.661 303.151 414.052 303.555 414.508C303.685 414.677 303.75 414.814 303.75 414.918C303.75 415.035 303.685 415.165 303.555 415.309C303.151 415.764 302.767 416.155 302.402 416.48C302.038 416.806 301.686 417.086 301.348 417.32C301.165 417.424 300.931 417.477 300.645 417.477H293.633V421.422C293.633 422.294 293.789 422.919 294.102 423.297C294.414 423.674 295 423.863 295.859 423.863H301.973C302.285 423.863 302.52 423.915 302.676 424.02C303.014 424.254 303.366 424.534 303.73 424.859C304.095 425.185 304.479 425.576 304.883 426.031C305.013 426.201 305.078 426.337 305.078 426.441C305.078 426.559 305.013 426.689 304.883 426.832C304.479 427.288 304.095 427.678 303.73 428.004C303.366 428.329 303.014 428.609 302.676 428.844C302.493 428.948 302.259 429 301.973 429H292.148ZM152.812 469.789C152.995 469.086 153.19 468.396 153.398 467.719C153.62 467.029 153.887 466.26 154.199 465.414C154.473 464.659 154.805 463.793 155.195 462.816C155.586 461.827 155.996 460.824 156.426 459.809C156.868 458.793 157.298 457.849 157.715 456.977C158.132 456.104 158.509 455.408 158.848 454.887C159.264 454.249 159.714 453.773 160.195 453.461C160.69 453.148 161.413 452.992 162.363 452.992H164.922C165.599 452.992 166.165 453.096 166.621 453.305C167.09 453.5 167.422 453.975 167.617 454.73C167.76 455.29 167.897 456.111 168.027 457.191C168.158 458.272 168.268 459.77 168.359 461.684C168.451 463.598 168.522 466.059 168.574 469.066C168.626 472.061 168.652 475.766 168.652 480.18C168.652 480.414 168.574 480.609 168.418 480.766C168.262 480.922 168.073 481 167.852 481H163.398C163.177 481 162.988 480.922 162.832 480.766C162.676 480.609 162.598 480.408 162.598 480.16C162.598 476.723 162.598 473.806 162.598 471.41C162.598 469.014 162.591 467.029 162.578 465.453C162.565 463.878 162.546 462.628 162.52 461.703C162.507 460.766 162.48 460.043 162.441 459.535H162.324C161.634 461.124 160.898 462.895 160.117 464.848C159.336 466.788 158.574 468.793 157.832 470.863C157.09 472.921 156.426 474.932 155.84 476.898C155.671 477.484 155.456 477.895 155.195 478.129C154.948 478.35 154.375 478.461 153.477 478.461H151.23C150.462 478.461 149.948 478.363 149.688 478.168C149.44 477.973 149.225 477.549 149.043 476.898C148.613 475.414 148.138 473.845 147.617 472.191C147.096 470.538 146.556 468.917 145.996 467.328C145.449 465.727 144.915 464.255 144.395 462.914C143.887 461.56 143.431 460.434 143.027 459.535H142.91C142.806 461.072 142.715 462.94 142.637 465.141C142.559 467.341 142.493 469.73 142.441 472.309C142.402 474.887 142.376 477.517 142.363 480.199C142.363 480.434 142.285 480.629 142.129 480.785C141.973 480.928 141.784 481 141.562 481H137.559C137.337 481 137.148 480.922 136.992 480.766C136.836 480.609 136.758 480.408 136.758 480.16C136.771 473.22 136.908 467.68 137.168 463.539C137.441 459.398 137.734 456.625 138.047 455.219C138.255 454.294 138.62 453.695 139.141 453.422C139.674 453.135 140.28 452.992 140.957 452.992H144.121C144.837 452.992 145.358 453.122 145.684 453.383C146.022 453.63 146.432 454.118 146.914 454.848C147.201 455.277 147.539 455.922 147.93 456.781C148.333 457.641 148.75 458.598 149.18 459.652C149.609 460.694 150.013 461.729 150.391 462.758C150.781 463.773 151.1 464.659 151.348 465.414C151.608 466.182 151.849 466.931 152.07 467.66C152.292 468.376 152.487 469.086 152.656 469.789H152.812ZM189.805 454.535C190.521 455.538 191.25 456.833 191.992 458.422C192.747 459.997 193.477 461.729 194.18 463.617C194.883 465.505 195.514 467.439 196.074 469.418C196.647 471.384 197.116 473.279 197.48 475.102C197.845 476.924 198.053 478.546 198.105 479.965C198.118 480.655 197.806 481 197.168 481H192.441C191.829 481 191.51 480.694 191.484 480.082C191.432 478.624 191.198 476.853 190.781 474.77H180.117C179.753 476.801 179.544 478.572 179.492 480.082C179.466 480.694 179.134 481 178.496 481H173.867C173.633 481 173.438 480.935 173.281 480.805C173.125 480.661 173.053 480.421 173.066 480.082C173.132 478.637 173.34 476.996 173.691 475.16C174.056 473.311 174.525 471.397 175.098 469.418C175.671 467.439 176.309 465.505 177.012 463.617C177.715 461.716 178.444 459.978 179.199 458.402C179.954 456.827 180.69 455.538 181.406 454.535C181.784 454.001 182.181 453.611 182.598 453.363C183.027 453.116 183.555 452.992 184.18 452.992H186.992C187.63 452.992 188.164 453.116 188.594 453.363C189.023 453.611 189.427 454.001 189.805 454.535ZM185.391 459.164C184.531 460.531 183.743 462.165 183.027 464.066C182.311 465.967 181.693 467.921 181.172 469.926H189.648C189.102 467.921 188.47 465.967 187.754 464.066C187.038 462.165 186.289 460.531 185.508 459.164H185.391ZM207.52 481C206.178 481 205.156 480.831 204.453 480.492C203.763 480.154 203.294 479.6 203.047 478.832C202.812 478.064 202.695 477.042 202.695 475.766V458.227C202.695 456.924 202.812 455.896 203.047 455.141C203.294 454.372 203.763 453.826 204.453 453.5C205.156 453.161 206.178 452.992 207.52 452.992H213.516C216.315 452.992 218.763 453.409 220.859 454.242C222.969 455.076 224.609 456.488 225.781 458.48C226.953 460.46 227.539 463.181 227.539 466.645C227.539 470.108 226.953 472.895 225.781 475.004C224.609 477.1 222.969 478.624 220.859 479.574C218.763 480.525 216.315 481 213.516 481H207.52ZM211.23 458.129C210.371 458.129 209.785 458.311 209.473 458.676C209.16 459.04 209.004 459.665 209.004 460.551V473.441C209.004 474.314 209.16 474.939 209.473 475.316C209.785 475.694 210.371 475.883 211.23 475.883H212.129C214.915 475.883 217.07 475.199 218.594 473.832C220.13 472.465 220.898 470.095 220.898 466.723C220.898 464.47 220.547 462.725 219.844 461.488C219.154 460.238 218.151 459.366 216.836 458.871C215.521 458.376 213.939 458.129 212.09 458.129H211.23ZM237.246 481C235.905 481 234.883 480.831 234.18 480.492C233.49 480.154 233.021 479.6 232.773 478.832C232.539 478.064 232.422 477.042 232.422 475.766V458.227C232.422 456.924 232.539 455.896 232.773 455.141C233.021 454.372 233.49 453.826 234.18 453.5C234.883 453.161 235.905 452.992 237.246 452.992H246.426C246.738 452.992 246.973 453.044 247.129 453.148C247.467 453.383 247.819 453.663 248.184 453.988C248.548 454.314 248.932 454.704 249.336 455.16C249.466 455.329 249.531 455.466 249.531 455.57C249.531 455.688 249.466 455.818 249.336 455.961C248.932 456.417 248.548 456.807 248.184 457.133C247.819 457.458 247.467 457.738 247.129 457.973C246.947 458.077 246.712 458.129 246.426 458.129H240.957C240.098 458.129 239.512 458.311 239.199 458.676C238.887 459.04 238.73 459.665 238.73 460.551V464.34H245.742C246.055 464.34 246.289 464.392 246.445 464.496C246.784 464.73 247.135 465.01 247.5 465.336C247.865 465.661 248.249 466.052 248.652 466.508C248.783 466.677 248.848 466.814 248.848 466.918C248.848 467.035 248.783 467.165 248.652 467.309C248.249 467.764 247.865 468.155 247.5 468.48C247.135 468.806 246.784 469.086 246.445 469.32C246.263 469.424 246.029 469.477 245.742 469.477H238.73V473.422C238.73 474.294 238.887 474.919 239.199 475.297C239.512 475.674 240.098 475.863 240.957 475.863H247.07C247.383 475.863 247.617 475.915 247.773 476.02C248.112 476.254 248.464 476.534 248.828 476.859C249.193 477.185 249.577 477.576 249.98 478.031C250.111 478.201 250.176 478.337 250.176 478.441C250.176 478.559 250.111 478.689 249.98 478.832C249.577 479.288 249.193 479.678 248.828 480.004C248.464 480.329 248.112 480.609 247.773 480.844C247.591 480.948 247.357 481 247.07 481H237.246ZM83.9062 491.414C84.1927 491.815 84.4844 492.333 84.7812 492.969C85.0833 493.599 85.375 494.292 85.6562 495.047C85.9375 495.802 86.1901 496.576 86.4141 497.367C86.6432 498.154 86.8307 498.911 86.9766 499.641C87.1224 500.37 87.2057 501.018 87.2266 501.586C87.2318 501.862 87.1068 502 86.8516 502H84.9609C84.7161 502 84.5885 501.878 84.5781 501.633C84.5573 501.049 84.4635 500.341 84.2969 499.508H80.0312C79.8854 500.32 79.8021 501.029 79.7812 501.633C79.7708 501.878 79.638 502 79.3828 502H77.5312C77.4375 502 77.3594 501.974 77.2969 501.922C77.2344 501.865 77.2057 501.768 77.2109 501.633C77.237 501.055 77.3203 500.398 77.4609 499.664C77.6068 498.924 77.7943 498.159 78.0234 497.367C78.2526 496.576 78.5078 495.802 78.7891 495.047C79.0703 494.286 79.362 493.591 79.6641 492.961C79.9661 492.331 80.2604 491.815 80.5469 491.414C80.6979 491.201 80.8568 491.044 81.0234 490.945C81.1953 490.846 81.4062 490.797 81.6562 490.797H82.7812C83.0365 490.797 83.25 490.846 83.4219 490.945C83.5938 491.044 83.7552 491.201 83.9062 491.414ZM82.1406 493.266C81.7969 493.812 81.4818 494.466 81.1953 495.227C80.9089 495.987 80.6615 496.768 80.4531 497.57H83.8438C83.625 496.768 83.3724 495.987 83.0859 495.227C82.7995 494.466 82.5 493.812 82.1875 493.266H82.1406ZM96.0703 501.383C95.6536 500.727 95.2448 499.992 94.8438 499.18C94.4479 498.362 94.0885 497.523 93.7656 496.664C93.4427 495.799 93.1849 494.969 92.9922 494.172C92.7995 493.37 92.7031 492.654 92.7031 492.023C92.7031 491.888 92.7318 491.781 92.7891 491.703C92.9089 491.536 93.0547 491.365 93.2266 491.188C93.4036 491.005 93.612 490.815 93.8516 490.617C93.9297 490.555 94.0026 490.523 94.0703 490.523C94.138 490.523 94.2057 490.555 94.2734 490.617C94.5182 490.815 94.7266 491.005 94.8984 491.188C95.0703 491.365 95.2161 491.536 95.3359 491.703C95.3932 491.781 95.4219 491.896 95.4219 492.047V492.016C95.4219 492.458 95.4818 492.992 95.6016 493.617C95.7266 494.237 95.8958 494.891 96.1094 495.578C96.3281 496.26 96.5755 496.924 96.8516 497.57C97.1328 498.211 97.4323 498.771 97.75 499.25H97.7969C98.1458 498.771 98.4609 498.214 98.7422 497.578C99.0286 496.938 99.2734 496.276 99.4766 495.594C99.6849 494.911 99.8438 494.26 99.9531 493.641C100.068 493.016 100.125 492.477 100.125 492.023V492.047C100.125 491.896 100.151 491.781 100.203 491.703C100.453 491.359 100.797 490.997 101.234 490.617C101.318 490.555 101.391 490.523 101.453 490.523C101.51 490.523 101.578 490.555 101.656 490.617C101.891 490.815 102.091 491.005 102.258 491.188C102.424 491.365 102.568 491.536 102.688 491.703C102.74 491.786 102.766 491.898 102.766 492.039C102.766 492.513 102.698 493.062 102.562 493.688C102.432 494.307 102.253 494.964 102.023 495.656C101.794 496.349 101.534 497.042 101.242 497.734C100.951 498.427 100.643 499.089 100.32 499.719C99.9974 500.344 99.6745 500.898 99.3516 501.383C99.0807 501.794 98.7109 502 98.2422 502H97.1641C96.6953 502 96.3307 501.794 96.0703 501.383ZM92.7031 492.016V492.023V492.047V492.016ZM102.766 492.023V492.047V492.039V492.023ZM107.586 502.195C106.706 502.195 105.94 502.055 105.289 501.773C104.638 501.487 104.133 501.044 103.773 500.445C103.414 499.846 103.234 499.073 103.234 498.125C103.234 496.703 103.599 495.628 104.328 494.898C105.057 494.169 106.026 493.805 107.234 493.805C108.021 493.805 108.685 493.945 109.227 494.227C109.773 494.508 110.188 494.896 110.469 495.391C110.755 495.885 110.898 496.451 110.898 497.086C110.898 497.706 110.74 498.138 110.422 498.383C110.104 498.628 109.641 498.75 109.031 498.75H105.68C105.721 499.286 105.917 499.695 106.266 499.977C106.62 500.258 107.099 500.398 107.703 500.398C108.182 500.398 108.565 500.328 108.852 500.188C109.143 500.042 109.346 499.927 109.461 499.844C109.56 499.771 109.672 499.737 109.797 499.742C109.896 499.742 110.036 499.763 110.219 499.805C110.406 499.841 110.591 499.911 110.773 500.016C110.904 500.083 110.969 500.177 110.969 500.297C110.969 500.365 110.956 500.461 110.93 500.586C110.914 500.659 110.888 500.766 110.852 500.906C110.815 501.042 110.768 501.169 110.711 501.289C110.68 501.346 110.63 501.401 110.562 501.453C110.458 501.526 110.289 501.622 110.055 501.742C109.826 501.862 109.51 501.966 109.109 502.055C108.708 502.148 108.201 502.195 107.586 502.195ZM105.664 497.148H108.211C108.477 497.148 108.609 497.026 108.609 496.781C108.609 496.411 108.492 496.102 108.258 495.852C108.029 495.596 107.682 495.469 107.219 495.469C106.714 495.469 106.341 495.63 106.102 495.953C105.867 496.276 105.721 496.674 105.664 497.148ZM120.352 497.023V501.586C120.352 501.742 120.318 501.852 120.25 501.914C120.188 501.971 120.078 502 119.922 502H118.312C118.156 502 118.044 501.971 117.977 501.914C117.914 501.852 117.883 501.742 117.883 501.586V497.43C117.883 496.862 117.763 496.448 117.523 496.188C117.284 495.927 116.958 495.797 116.547 495.797C116.135 495.797 115.818 495.885 115.594 496.062C115.375 496.24 115.206 496.464 115.086 496.734V501.586C115.086 501.742 115.052 501.852 114.984 501.914C114.922 501.971 114.812 502 114.656 502H113.047C112.891 502 112.779 501.971 112.711 501.914C112.648 501.852 112.617 501.742 112.617 501.586V495.039C112.617 494.914 112.643 494.818 112.695 494.75C112.805 494.604 112.935 494.456 113.086 494.305C113.242 494.154 113.432 493.992 113.656 493.82C113.724 493.768 113.789 493.742 113.852 493.742C113.909 493.742 113.974 493.768 114.047 493.82C114.266 493.992 114.453 494.156 114.609 494.312C114.766 494.469 114.904 494.63 115.023 494.797H115.062C115.151 494.682 115.284 494.549 115.461 494.398C115.638 494.242 115.885 494.104 116.203 493.984C116.526 493.865 116.938 493.805 117.438 493.805C117.927 493.805 118.393 493.904 118.836 494.102C119.279 494.299 119.641 494.633 119.922 495.102C120.208 495.57 120.352 496.211 120.352 497.023ZM125.469 502.195C123.729 502.195 122.859 501.292 122.859 499.484V495.82H121.977C121.82 495.82 121.711 495.789 121.648 495.727C121.591 495.659 121.562 495.547 121.562 495.391V494.43C121.562 494.273 121.591 494.164 121.648 494.102C121.711 494.034 121.82 494 121.977 494H122.859V492.742C122.859 492.617 122.885 492.521 122.938 492.453C123.156 492.167 123.477 491.857 123.898 491.523C123.971 491.471 124.036 491.445 124.094 491.445C124.156 491.445 124.219 491.471 124.281 491.523C124.505 491.695 124.693 491.857 124.844 492.008C125 492.159 125.133 492.307 125.242 492.453C125.294 492.521 125.32 492.617 125.32 492.742V494H126.703C126.859 494 126.966 494.034 127.023 494.102C127.086 494.164 127.117 494.273 127.117 494.43V495.391C127.117 495.547 127.086 495.659 127.023 495.727C126.966 495.789 126.859 495.82 126.703 495.82H125.32V499.055C125.32 499.888 125.622 500.305 126.227 500.305C126.32 500.305 126.406 500.297 126.484 500.281C126.562 500.26 126.63 500.24 126.688 500.219C126.797 500.177 126.872 500.161 126.914 500.172C126.961 500.182 127.003 500.24 127.039 500.344L127.492 501.555C127.539 501.685 127.508 501.779 127.398 501.836C127.32 501.872 127.13 501.94 126.828 502.039C126.531 502.143 126.078 502.195 125.469 502.195ZM131.438 502.195C129.583 502.195 128.656 501.073 128.656 498.828L128.648 494.859C128.648 494.734 128.674 494.638 128.727 494.57C128.945 494.284 129.266 493.974 129.688 493.641C129.76 493.589 129.826 493.562 129.883 493.562C129.951 493.562 130.016 493.589 130.078 493.641C130.302 493.812 130.49 493.974 130.641 494.125C130.797 494.276 130.93 494.424 131.039 494.57C131.091 494.638 131.117 494.734 131.117 494.859V498.609C131.117 499.74 131.565 500.305 132.461 500.305C132.904 500.305 133.258 500.151 133.523 499.844C133.789 499.531 133.922 499.109 133.922 498.578V494.859C133.922 494.734 133.948 494.638 134 494.57C134.219 494.284 134.539 493.974 134.961 493.641C135.034 493.589 135.099 493.562 135.156 493.562C135.224 493.562 135.289 493.589 135.352 493.641C135.576 493.812 135.763 493.974 135.914 494.125C136.07 494.276 136.203 494.424 136.312 494.57C136.365 494.638 136.391 494.734 136.391 494.859V501.641C136.391 501.74 136.357 501.826 136.289 501.898C136.221 501.966 136.135 502 136.031 502H134.859C134.776 502 134.701 501.99 134.633 501.969C134.57 501.943 134.51 501.896 134.453 501.828L133.969 501.203H133.914C133.831 501.323 133.701 501.461 133.523 501.617C133.352 501.773 133.099 501.909 132.766 502.023C132.438 502.138 131.995 502.195 131.438 502.195ZM140.977 495.484H141.008C141.398 494.401 142.102 493.859 143.117 493.859C143.247 493.859 143.354 493.867 143.438 493.883C143.521 493.893 143.578 493.904 143.609 493.914C143.688 493.94 143.727 494 143.727 494.094V495.977C143.727 496.138 143.633 496.182 143.445 496.109C143.383 496.083 143.292 496.057 143.172 496.031C143.057 496 142.896 495.984 142.688 495.984C142.151 495.984 141.732 496.182 141.43 496.578C141.128 496.969 140.977 497.503 140.977 498.18V501.586C140.977 501.742 140.943 501.852 140.875 501.914C140.812 501.971 140.703 502 140.547 502H138.938C138.781 502 138.669 501.971 138.602 501.914C138.539 501.852 138.508 501.742 138.508 501.586V495.039C138.508 494.914 138.534 494.818 138.586 494.75C138.695 494.604 138.826 494.456 138.977 494.305C139.133 494.154 139.323 493.992 139.547 493.82C139.589 493.789 139.63 493.768 139.672 493.758C139.714 493.747 139.75 493.742 139.781 493.742C139.854 493.742 139.927 493.768 140 493.82C140.432 494.159 140.734 494.448 140.906 494.688C140.953 494.75 140.977 494.823 140.977 494.906V495.484ZM148.82 502.195C147.94 502.195 147.174 502.055 146.523 501.773C145.872 501.487 145.367 501.044 145.008 500.445C144.648 499.846 144.469 499.073 144.469 498.125C144.469 496.703 144.833 495.628 145.562 494.898C146.292 494.169 147.26 493.805 148.469 493.805C149.255 493.805 149.919 493.945 150.461 494.227C151.008 494.508 151.422 494.896 151.703 495.391C151.99 495.885 152.133 496.451 152.133 497.086C152.133 497.706 151.974 498.138 151.656 498.383C151.339 498.628 150.875 498.75 150.266 498.75H146.914C146.956 499.286 147.151 499.695 147.5 499.977C147.854 500.258 148.333 500.398 148.938 500.398C149.417 500.398 149.799 500.328 150.086 500.188C150.378 500.042 150.581 499.927 150.695 499.844C150.794 499.771 150.906 499.737 151.031 499.742C151.13 499.742 151.271 499.763 151.453 499.805C151.641 499.841 151.826 499.911 152.008 500.016C152.138 500.083 152.203 500.177 152.203 500.297C152.203 500.365 152.19 500.461 152.164 500.586C152.148 500.659 152.122 500.766 152.086 500.906C152.049 501.042 152.003 501.169 151.945 501.289C151.914 501.346 151.865 501.401 151.797 501.453C151.693 501.526 151.523 501.622 151.289 501.742C151.06 501.862 150.745 501.966 150.344 502.055C149.943 502.148 149.435 502.195 148.82 502.195ZM146.898 497.148H149.445C149.711 497.148 149.844 497.026 149.844 496.781C149.844 496.411 149.727 496.102 149.492 495.852C149.263 495.596 148.917 495.469 148.453 495.469C147.948 495.469 147.576 495.63 147.336 495.953C147.102 496.276 146.956 496.674 146.898 497.148ZM161.945 502.195C161.273 502.195 160.708 502.146 160.25 502.047C159.792 501.948 159.406 501.826 159.094 501.68C158.781 501.534 158.508 501.388 158.273 501.242V491.016C158.273 490.891 158.299 490.794 158.352 490.727C158.57 490.44 158.891 490.13 159.312 489.797C159.385 489.745 159.451 489.719 159.508 489.719C159.576 489.719 159.641 489.745 159.703 489.797C159.927 489.969 160.115 490.13 160.266 490.281C160.422 490.432 160.555 490.581 160.664 490.727C160.716 490.794 160.742 490.891 160.742 491.016V494.805H160.773C160.982 494.539 161.271 494.307 161.641 494.109C162.01 493.906 162.526 493.805 163.188 493.805C163.927 493.805 164.536 493.977 165.016 494.32C165.495 494.659 165.852 495.128 166.086 495.727C166.32 496.32 166.438 497.003 166.438 497.773C166.438 498.607 166.299 499.359 166.023 500.031C165.747 500.698 165.281 501.227 164.625 501.617C163.974 502.003 163.081 502.195 161.945 502.195ZM162.047 500.305C162.651 500.305 163.112 500.104 163.43 499.703C163.747 499.297 163.906 498.719 163.906 497.969C163.906 497.208 163.763 496.656 163.477 496.312C163.195 495.969 162.786 495.797 162.25 495.797C161.818 495.797 161.487 495.885 161.258 496.062C161.034 496.24 160.862 496.464 160.742 496.734V499.961C160.857 500.044 161.018 500.122 161.227 500.195C161.44 500.268 161.714 500.305 162.047 500.305ZM168.445 505.758C168.253 505.758 168.107 505.737 168.008 505.695C167.909 505.659 167.826 505.612 167.758 505.555C167.622 505.424 167.477 505.242 167.32 505.008C167.284 504.951 167.245 504.883 167.203 504.805C167.161 504.732 167.141 504.669 167.141 504.617C167.141 504.56 167.154 504.508 167.18 504.461C167.206 504.414 167.237 504.37 167.273 504.328C167.357 504.219 167.458 504.104 167.578 503.984C167.698 503.87 167.799 503.779 167.883 503.711C167.94 503.664 167.987 503.633 168.023 503.617C168.06 503.607 168.091 503.602 168.117 503.602C168.143 503.602 168.182 503.607 168.234 503.617C168.286 503.628 168.365 503.633 168.469 503.633C168.828 503.633 169.203 503.516 169.594 503.281C169.984 503.047 170.37 502.607 170.75 501.961C170.354 501.596 169.964 501.141 169.578 500.594C169.198 500.042 168.854 499.445 168.547 498.805C168.24 498.159 167.992 497.516 167.805 496.875C167.622 496.234 167.531 495.643 167.531 495.102C167.531 494.987 167.56 494.896 167.617 494.828C167.857 494.531 168.198 494.221 168.641 493.898C168.719 493.846 168.789 493.82 168.852 493.82C168.919 493.82 168.99 493.846 169.062 493.898C169.302 494.07 169.503 494.232 169.664 494.383C169.831 494.534 169.971 494.682 170.086 494.828C170.143 494.896 170.172 494.992 170.172 495.117V495.086C170.172 495.497 170.221 495.932 170.32 496.391C170.419 496.849 170.555 497.297 170.727 497.734C170.898 498.167 171.091 498.56 171.305 498.914C171.518 499.263 171.74 499.542 171.969 499.75H172.008C172.112 499.552 172.227 499.268 172.352 498.898C172.482 498.523 172.604 498.109 172.719 497.656C172.833 497.198 172.927 496.745 173 496.297C173.073 495.844 173.109 495.443 173.109 495.094V495.117C173.109 494.992 173.135 494.896 173.188 494.828C173.307 494.682 173.448 494.534 173.609 494.383C173.771 494.232 173.966 494.07 174.195 493.898C174.268 493.846 174.336 493.82 174.398 493.82C174.471 493.82 174.539 493.846 174.602 493.898C174.836 494.07 175.034 494.232 175.195 494.383C175.357 494.534 175.495 494.682 175.609 494.828C175.661 494.896 175.688 494.99 175.688 495.109C175.682 495.583 175.591 496.203 175.414 496.969C175.237 497.729 174.979 498.555 174.641 499.445C174.302 500.336 173.891 501.208 173.406 502.062C172.682 503.349 171.901 504.286 171.062 504.875C170.224 505.464 169.352 505.758 168.445 505.758ZM175.688 495.094V495.117V495.109C175.688 495.104 175.688 495.099 175.688 495.094ZM167.531 495.094V495.102V495.117V495.094ZM188.898 492.047C188.898 491.896 188.924 491.781 188.977 491.703C189.211 491.359 189.539 490.997 189.961 490.617C190.039 490.555 190.107 490.523 190.164 490.523C190.227 490.523 190.292 490.555 190.359 490.617C190.589 490.815 190.781 491.005 190.938 491.188C191.094 491.365 191.229 491.536 191.344 491.703C191.396 491.786 191.422 491.901 191.422 492.047V501.586C191.422 501.742 191.388 501.852 191.32 501.914C191.258 501.971 191.148 502 190.992 502H189.328C189.172 502 189.06 501.971 188.992 501.914C188.93 501.852 188.898 501.742 188.898 501.586V497.438H184.258V501.586C184.258 501.742 184.224 501.852 184.156 501.914C184.094 501.971 183.984 502 183.828 502H182.164C182.008 502 181.896 501.971 181.828 501.914C181.766 501.852 181.734 501.742 181.734 501.586V491.211C181.734 491.055 181.766 490.948 181.828 490.891C181.896 490.828 182.008 490.797 182.164 490.797H183.828C183.984 490.797 184.094 490.828 184.156 490.891C184.224 490.948 184.258 491.055 184.258 491.211V495.266H188.898V492.047ZM195.406 502.195C194.641 502.195 194.031 501.982 193.578 501.555C193.13 501.122 192.906 500.529 192.906 499.773C192.906 499.383 192.977 499.021 193.117 498.688C193.263 498.349 193.513 498.052 193.867 497.797C194.227 497.536 194.727 497.328 195.367 497.172C196.013 497.016 196.836 496.924 197.836 496.898C197.836 496.424 197.716 496.083 197.477 495.875C197.242 495.667 196.888 495.562 196.414 495.562C195.987 495.562 195.638 495.635 195.367 495.781C195.096 495.927 194.927 496.026 194.859 496.078C194.786 496.141 194.698 496.164 194.594 496.148C194.453 496.128 194.302 496.091 194.141 496.039C193.984 495.987 193.815 495.927 193.633 495.859C193.607 495.849 193.578 495.833 193.547 495.812C193.516 495.786 193.497 495.75 193.492 495.703C193.492 495.677 193.495 495.646 193.5 495.609C193.505 495.568 193.518 495.495 193.539 495.391C193.56 495.286 193.591 495.159 193.633 495.008C193.674 494.852 193.714 494.732 193.75 494.648C193.797 494.56 193.875 494.477 193.984 494.398C194.073 494.326 194.341 494.208 194.789 494.047C195.237 493.885 195.885 493.805 196.734 493.805C199.073 493.805 200.242 494.943 200.242 497.219V501.641C200.242 501.74 200.214 501.826 200.156 501.898C200.104 501.966 200.013 502 199.883 502H198.711C198.628 502 198.552 501.99 198.484 501.969C198.422 501.943 198.362 501.896 198.305 501.828L197.82 501.203H197.766C197.526 501.552 197.203 501.805 196.797 501.961C196.396 502.117 195.932 502.195 195.406 502.195ZM196.266 500.383C196.745 500.383 197.107 500.26 197.352 500.016C197.596 499.771 197.753 499.518 197.82 499.258V498.391C197.096 498.391 196.552 498.448 196.188 498.562C195.828 498.672 195.589 498.818 195.469 499C195.349 499.177 195.289 499.37 195.289 499.578C195.289 499.88 195.383 500.091 195.57 500.211C195.758 500.326 195.99 500.383 196.266 500.383ZM210.008 497.023V501.586C210.008 501.742 209.974 501.852 209.906 501.914C209.844 501.971 209.734 502 209.578 502H207.969C207.812 502 207.701 501.971 207.633 501.914C207.57 501.852 207.539 501.742 207.539 501.586V497.43C207.539 496.862 207.419 496.448 207.18 496.188C206.94 495.927 206.615 495.797 206.203 495.797C205.792 495.797 205.474 495.885 205.25 496.062C205.031 496.24 204.862 496.464 204.742 496.734V501.586C204.742 501.742 204.708 501.852 204.641 501.914C204.578 501.971 204.469 502 204.312 502H202.703C202.547 502 202.435 501.971 202.367 501.914C202.305 501.852 202.273 501.742 202.273 501.586V495.039C202.273 494.914 202.299 494.818 202.352 494.75C202.461 494.604 202.591 494.456 202.742 494.305C202.898 494.154 203.089 493.992 203.312 493.82C203.38 493.768 203.445 493.742 203.508 493.742C203.565 493.742 203.63 493.768 203.703 493.82C203.922 493.992 204.109 494.156 204.266 494.312C204.422 494.469 204.56 494.63 204.68 494.797H204.719C204.807 494.682 204.94 494.549 205.117 494.398C205.294 494.242 205.542 494.104 205.859 493.984C206.182 493.865 206.594 493.805 207.094 493.805C207.583 493.805 208.049 493.904 208.492 494.102C208.935 494.299 209.297 494.633 209.578 495.102C209.865 495.57 210.008 496.211 210.008 497.023ZM214.945 502.195C214.253 502.195 213.661 502.026 213.172 501.688C212.688 501.344 212.318 500.872 212.062 500.273C211.812 499.669 211.688 498.974 211.688 498.188C211.688 497.151 211.87 496.312 212.234 495.672C212.604 495.026 213.122 494.552 213.789 494.25C214.461 493.948 215.253 493.797 216.164 493.797C216.477 493.797 216.734 493.812 216.938 493.844C217.146 493.875 217.294 493.904 217.383 493.93V491.016C217.383 490.891 217.409 490.794 217.461 490.727C217.68 490.44 218 490.13 218.422 489.797C218.495 489.745 218.56 489.719 218.617 489.719C218.685 489.719 218.75 489.745 218.812 489.797C219.036 489.969 219.224 490.13 219.375 490.281C219.531 490.432 219.664 490.581 219.773 490.727C219.826 490.794 219.852 490.891 219.852 491.016V501.641C219.852 501.74 219.818 501.826 219.75 501.898C219.682 501.966 219.596 502 219.492 502H218.328C218.245 502 218.169 501.99 218.102 501.969C218.039 501.943 217.979 501.896 217.922 501.828L217.438 501.203H217.383C217.315 501.307 217.193 501.44 217.016 501.602C216.844 501.758 216.591 501.896 216.258 502.016C215.93 502.135 215.492 502.195 214.945 502.195ZM215.703 500.195C216.172 500.195 216.539 500.107 216.805 499.93C217.076 499.753 217.268 499.529 217.383 499.258V495.984C217.299 495.932 217.161 495.87 216.969 495.797C216.776 495.724 216.505 495.688 216.156 495.688C215.51 495.688 215.026 495.898 214.703 496.32C214.38 496.742 214.219 497.31 214.219 498.023C214.219 498.763 214.354 499.31 214.625 499.664C214.896 500.018 215.255 500.195 215.703 500.195ZM225.797 502.195C224.484 502.195 223.445 501.846 222.68 501.148C221.914 500.451 221.531 499.411 221.531 498.031C221.531 496.615 221.927 495.557 222.719 494.859C223.516 494.156 224.578 493.805 225.906 493.805C227.188 493.805 228.214 494.151 228.984 494.844C229.755 495.531 230.141 496.547 230.141 497.891C230.141 499.292 229.755 500.359 228.984 501.094C228.214 501.828 227.151 502.195 225.797 502.195ZM225.875 500.305C226.448 500.305 226.88 500.128 227.172 499.773C227.464 499.414 227.609 498.802 227.609 497.938C227.609 497.115 227.461 496.536 227.164 496.203C226.872 495.865 226.438 495.695 225.859 495.695C225.302 495.695 224.862 495.878 224.539 496.242C224.221 496.602 224.062 497.188 224.062 498C224.062 498.849 224.214 499.445 224.516 499.789C224.823 500.133 225.276 500.305 225.875 500.305ZM234.609 502.195C232.755 502.195 231.828 501.073 231.828 498.828L231.82 494.859C231.82 494.734 231.846 494.638 231.898 494.57C232.117 494.284 232.438 493.974 232.859 493.641C232.932 493.589 232.997 493.562 233.055 493.562C233.122 493.562 233.188 493.589 233.25 493.641C233.474 493.812 233.661 493.974 233.812 494.125C233.969 494.276 234.102 494.424 234.211 494.57C234.263 494.638 234.289 494.734 234.289 494.859V498.609C234.289 499.74 234.737 500.305 235.633 500.305C236.076 500.305 236.43 500.151 236.695 499.844C236.961 499.531 237.094 499.109 237.094 498.578V494.859C237.094 494.734 237.12 494.638 237.172 494.57C237.391 494.284 237.711 493.974 238.133 493.641C238.206 493.589 238.271 493.562 238.328 493.562C238.396 493.562 238.461 493.589 238.523 493.641C238.747 493.812 238.935 493.974 239.086 494.125C239.242 494.276 239.375 494.424 239.484 494.57C239.536 494.638 239.562 494.734 239.562 494.859V501.641C239.562 501.74 239.529 501.826 239.461 501.898C239.393 501.966 239.307 502 239.203 502H238.031C237.948 502 237.872 501.99 237.805 501.969C237.742 501.943 237.682 501.896 237.625 501.828L237.141 501.203H237.086C237.003 501.323 236.872 501.461 236.695 501.617C236.523 501.773 236.271 501.909 235.938 502.023C235.609 502.138 235.167 502.195 234.609 502.195ZM244.688 502.195C242.948 502.195 242.078 501.292 242.078 499.484V495.82H241.195C241.039 495.82 240.93 495.789 240.867 495.727C240.81 495.659 240.781 495.547 240.781 495.391V494.43C240.781 494.273 240.81 494.164 240.867 494.102C240.93 494.034 241.039 494 241.195 494H242.078V492.742C242.078 492.617 242.104 492.521 242.156 492.453C242.375 492.167 242.695 491.857 243.117 491.523C243.19 491.471 243.255 491.445 243.312 491.445C243.375 491.445 243.438 491.471 243.5 491.523C243.724 491.695 243.911 491.857 244.062 492.008C244.219 492.159 244.352 492.307 244.461 492.453C244.513 492.521 244.539 492.617 244.539 492.742V494H245.922C246.078 494 246.185 494.034 246.242 494.102C246.305 494.164 246.336 494.273 246.336 494.43V495.391C246.336 495.547 246.305 495.659 246.242 495.727C246.185 495.789 246.078 495.82 245.922 495.82H244.539V499.055C244.539 499.888 244.841 500.305 245.445 500.305C245.539 500.305 245.625 500.297 245.703 500.281C245.781 500.26 245.849 500.24 245.906 500.219C246.016 500.177 246.091 500.161 246.133 500.172C246.18 500.182 246.221 500.24 246.258 500.344L246.711 501.555C246.758 501.685 246.727 501.779 246.617 501.836C246.539 501.872 246.349 501.94 246.047 502.039C245.75 502.143 245.297 502.195 244.688 502.195ZM255.672 502.188C255.01 502.188 254.461 502.128 254.023 502.008C253.591 501.888 253.242 501.74 252.977 501.562C252.716 501.38 252.516 501.201 252.375 501.023C252.328 500.956 252.286 500.891 252.25 500.828C252.214 500.766 252.188 500.695 252.172 500.617C252.151 500.513 252.13 500.378 252.109 500.211C252.089 500.039 252.086 499.841 252.102 499.617C252.107 499.523 252.125 499.458 252.156 499.422C252.193 499.38 252.253 499.349 252.336 499.328C252.487 499.292 252.682 499.26 252.922 499.234C253.167 499.203 253.341 499.188 253.445 499.188C253.555 499.188 253.643 499.208 253.711 499.25C253.779 499.292 253.859 499.362 253.953 499.461C254.057 499.57 254.237 499.711 254.492 499.883C254.747 500.049 255.141 500.133 255.672 500.133C256.182 500.133 256.568 500.026 256.828 499.812C257.089 499.599 257.219 499.302 257.219 498.922C257.219 498.719 257.156 498.529 257.031 498.352C256.911 498.169 256.69 497.99 256.367 497.812C256.044 497.63 255.583 497.44 254.984 497.242C253.995 496.909 253.281 496.495 252.844 496C252.406 495.505 252.188 494.818 252.188 493.938C252.188 493.208 252.365 492.599 252.719 492.109C253.073 491.62 253.562 491.25 254.188 491C254.812 490.75 255.534 490.625 256.352 490.625C256.982 490.625 257.503 490.701 257.914 490.852C258.331 490.997 258.654 491.164 258.883 491.352C259.112 491.534 259.26 491.682 259.328 491.797C259.37 491.865 259.396 491.917 259.406 491.953C259.422 491.984 259.432 492.029 259.438 492.086C259.453 492.247 259.458 492.427 259.453 492.625C259.448 492.823 259.43 493.047 259.398 493.297C259.383 493.38 259.354 493.438 259.312 493.469C259.276 493.495 259.219 493.508 259.141 493.508C258.635 493.518 258.245 493.492 257.969 493.43C257.859 493.404 257.786 493.378 257.75 493.352C257.714 493.326 257.667 493.284 257.609 493.227C257.526 493.128 257.393 493.013 257.211 492.883C257.034 492.747 256.747 492.68 256.352 492.68C255.805 492.68 255.417 492.805 255.188 493.055C254.958 493.299 254.844 493.576 254.844 493.883C254.844 494.247 255.013 494.534 255.352 494.742C255.69 494.945 256.224 495.177 256.953 495.438C257.562 495.651 258.086 495.883 258.523 496.133C258.961 496.383 259.294 496.703 259.523 497.094C259.758 497.484 259.875 498 259.875 498.641C259.875 499.438 259.69 500.099 259.32 500.625C258.956 501.151 258.456 501.544 257.82 501.805C257.19 502.06 256.474 502.188 255.672 502.188ZM264.797 502.195C263.057 502.195 262.188 501.292 262.188 499.484V495.82H261.305C261.148 495.82 261.039 495.789 260.977 495.727C260.919 495.659 260.891 495.547 260.891 495.391V494.43C260.891 494.273 260.919 494.164 260.977 494.102C261.039 494.034 261.148 494 261.305 494H262.188V492.742C262.188 492.617 262.214 492.521 262.266 492.453C262.484 492.167 262.805 491.857 263.227 491.523C263.299 491.471 263.365 491.445 263.422 491.445C263.484 491.445 263.547 491.471 263.609 491.523C263.833 491.695 264.021 491.857 264.172 492.008C264.328 492.159 264.461 492.307 264.57 492.453C264.622 492.521 264.648 492.617 264.648 492.742V494H266.031C266.188 494 266.294 494.034 266.352 494.102C266.414 494.164 266.445 494.273 266.445 494.43V495.391C266.445 495.547 266.414 495.659 266.352 495.727C266.294 495.789 266.188 495.82 266.031 495.82H264.648V499.055C264.648 499.888 264.951 500.305 265.555 500.305C265.648 500.305 265.734 500.297 265.812 500.281C265.891 500.26 265.958 500.24 266.016 500.219C266.125 500.177 266.201 500.161 266.242 500.172C266.289 500.182 266.331 500.24 266.367 500.344L266.82 501.555C266.867 501.685 266.836 501.779 266.727 501.836C266.648 501.872 266.458 501.94 266.156 502.039C265.859 502.143 265.406 502.195 264.797 502.195ZM270.766 502.195C268.911 502.195 267.984 501.073 267.984 498.828L267.977 494.859C267.977 494.734 268.003 494.638 268.055 494.57C268.273 494.284 268.594 493.974 269.016 493.641C269.089 493.589 269.154 493.562 269.211 493.562C269.279 493.562 269.344 493.589 269.406 493.641C269.63 493.812 269.818 493.974 269.969 494.125C270.125 494.276 270.258 494.424 270.367 494.57C270.419 494.638 270.445 494.734 270.445 494.859V498.609C270.445 499.74 270.893 500.305 271.789 500.305C272.232 500.305 272.586 500.151 272.852 499.844C273.117 499.531 273.25 499.109 273.25 498.578V494.859C273.25 494.734 273.276 494.638 273.328 494.57C273.547 494.284 273.867 493.974 274.289 493.641C274.362 493.589 274.427 493.562 274.484 493.562C274.552 493.562 274.617 493.589 274.68 493.641C274.904 493.812 275.091 493.974 275.242 494.125C275.398 494.276 275.531 494.424 275.641 494.57C275.693 494.638 275.719 494.734 275.719 494.859V501.641C275.719 501.74 275.685 501.826 275.617 501.898C275.549 501.966 275.464 502 275.359 502H274.188C274.104 502 274.029 501.99 273.961 501.969C273.898 501.943 273.839 501.896 273.781 501.828L273.297 501.203H273.242C273.159 501.323 273.029 501.461 272.852 501.617C272.68 501.773 272.427 501.909 272.094 502.023C271.766 502.138 271.323 502.195 270.766 502.195ZM280.664 502.195C279.971 502.195 279.38 502.026 278.891 501.688C278.406 501.344 278.036 500.872 277.781 500.273C277.531 499.669 277.406 498.974 277.406 498.188C277.406 497.151 277.589 496.312 277.953 495.672C278.323 495.026 278.841 494.552 279.508 494.25C280.18 493.948 280.971 493.797 281.883 493.797C282.195 493.797 282.453 493.812 282.656 493.844C282.865 493.875 283.013 493.904 283.102 493.93V491.016C283.102 490.891 283.128 490.794 283.18 490.727C283.398 490.44 283.719 490.13 284.141 489.797C284.214 489.745 284.279 489.719 284.336 489.719C284.404 489.719 284.469 489.745 284.531 489.797C284.755 489.969 284.943 490.13 285.094 490.281C285.25 490.432 285.383 490.581 285.492 490.727C285.544 490.794 285.57 490.891 285.57 491.016V501.641C285.57 501.74 285.536 501.826 285.469 501.898C285.401 501.966 285.315 502 285.211 502H284.047C283.964 502 283.888 501.99 283.82 501.969C283.758 501.943 283.698 501.896 283.641 501.828L283.156 501.203H283.102C283.034 501.307 282.911 501.44 282.734 501.602C282.562 501.758 282.31 501.896 281.977 502.016C281.648 502.135 281.211 502.195 280.664 502.195ZM281.422 500.195C281.891 500.195 282.258 500.107 282.523 499.93C282.794 499.753 282.987 499.529 283.102 499.258V495.984C283.018 495.932 282.88 495.87 282.688 495.797C282.495 495.724 282.224 495.688 281.875 495.688C281.229 495.688 280.745 495.898 280.422 496.32C280.099 496.742 279.938 497.31 279.938 498.023C279.938 498.763 280.073 499.31 280.344 499.664C280.615 500.018 280.974 500.195 281.422 500.195ZM287.32 491.375C287.32 491.307 287.341 491.247 287.383 491.195C287.424 491.143 287.479 491.076 287.547 490.992C287.693 490.826 287.862 490.651 288.055 490.469C288.247 490.281 288.443 490.102 288.641 489.93C288.766 489.831 288.859 489.781 288.922 489.781C288.984 489.781 289.081 489.831 289.211 489.93C289.633 490.294 289.992 490.648 290.289 490.992C290.357 491.07 290.411 491.138 290.453 491.195C290.5 491.247 290.523 491.307 290.523 491.375C290.523 491.443 290.5 491.503 290.453 491.555C290.411 491.607 290.354 491.677 290.281 491.766C290.141 491.927 289.977 492.102 289.789 492.289C289.602 492.471 289.409 492.646 289.211 492.812C289.138 492.875 289.081 492.917 289.039 492.938C288.997 492.953 288.958 492.961 288.922 492.961C288.885 492.961 288.846 492.953 288.805 492.938C288.768 492.917 288.708 492.875 288.625 492.812C288.417 492.646 288.221 492.471 288.039 492.289C287.857 492.102 287.693 491.922 287.547 491.75C287.479 491.667 287.424 491.602 287.383 491.555C287.341 491.503 287.32 491.443 287.32 491.375ZM290.148 501.586C290.148 501.742 290.115 501.852 290.047 501.914C289.984 501.971 289.875 502 289.719 502H288.109C287.953 502 287.841 501.971 287.773 501.914C287.711 501.852 287.68 501.742 287.68 501.586V494.414C287.68 494.258 287.711 494.151 287.773 494.094C287.841 494.031 287.953 494 288.109 494H289.719C289.875 494 289.984 494.031 290.047 494.094C290.115 494.151 290.148 494.258 290.148 494.414V501.586ZM296.109 502.195C294.797 502.195 293.758 501.846 292.992 501.148C292.227 500.451 291.844 499.411 291.844 498.031C291.844 496.615 292.24 495.557 293.031 494.859C293.828 494.156 294.891 493.805 296.219 493.805C297.5 493.805 298.526 494.151 299.297 494.844C300.068 495.531 300.453 496.547 300.453 497.891C300.453 499.292 300.068 500.359 299.297 501.094C298.526 501.828 297.464 502.195 296.109 502.195ZM296.188 500.305C296.76 500.305 297.193 500.128 297.484 499.773C297.776 499.414 297.922 498.802 297.922 497.938C297.922 497.115 297.773 496.536 297.477 496.203C297.185 495.865 296.75 495.695 296.172 495.695C295.615 495.695 295.174 495.878 294.852 496.242C294.534 496.602 294.375 497.188 294.375 498C294.375 498.849 294.526 499.445 294.828 499.789C295.135 500.133 295.589 500.305 296.188 500.305ZM304.359 502.195C303.802 502.195 303.339 502.148 302.969 502.055C302.604 501.961 302.31 501.849 302.086 501.719C301.867 501.583 301.695 501.461 301.57 501.352C301.477 501.263 301.466 501.164 301.539 501.055L302.336 499.875C302.451 499.708 302.581 499.698 302.727 499.844C302.878 499.99 303.081 500.133 303.336 500.273C303.596 500.409 303.919 500.477 304.305 500.477C304.648 500.477 304.93 500.419 305.148 500.305C305.372 500.185 305.484 500.013 305.484 499.789C305.484 499.633 305.435 499.505 305.336 499.406C305.237 499.307 305.062 499.206 304.812 499.102C304.562 498.997 304.214 498.865 303.766 498.703C303.104 498.464 302.604 498.174 302.266 497.836C301.927 497.497 301.758 497.003 301.758 496.352C301.758 495.753 301.922 495.266 302.25 494.891C302.583 494.516 303.008 494.242 303.523 494.07C304.044 493.893 304.586 493.805 305.148 493.805C305.862 493.805 306.362 493.872 306.648 494.008C306.94 494.138 307.128 494.24 307.211 494.312C307.289 494.38 307.344 494.458 307.375 494.547C307.443 494.75 307.495 495.018 307.531 495.352C307.552 495.544 307.503 495.672 307.383 495.734C307.32 495.771 307.221 495.81 307.086 495.852C306.951 495.893 306.815 495.93 306.68 495.961C306.544 495.992 306.443 496.008 306.375 496.008C306.354 496.008 306.331 496.003 306.305 495.992C306.284 495.977 306.245 495.943 306.188 495.891C306.12 495.823 306.003 495.745 305.836 495.656C305.674 495.568 305.451 495.523 305.164 495.523C304.883 495.523 304.646 495.57 304.453 495.664C304.266 495.753 304.172 495.911 304.172 496.141C304.172 496.391 304.292 496.578 304.531 496.703C304.776 496.828 305.177 496.99 305.734 497.188C306.172 497.339 306.552 497.505 306.875 497.688C307.203 497.865 307.456 498.099 307.633 498.391C307.81 498.677 307.898 499.065 307.898 499.555C307.898 500.19 307.724 500.703 307.375 501.094C307.031 501.479 306.589 501.76 306.047 501.938C305.51 502.109 304.948 502.195 304.359 502.195Z" fill="#2D333A"/>
	<defs>
		<filter id="filter0_n_1_47" x="0" y="0" width="385.031" height="387" filterUnits="userSpaceOnUse" color-interpolation-filters="sRGB">
			<feFlood flood-opacity="0" result="BackgroundImageFix"/>
			<feBlend mode="normal" in="SourceGraphic" in2="BackgroundImageFix" result="shape"/>
			<feTurbulence type="fractalNoise" baseFrequency="0.1428571492433548 0.1428571492433548" stitchTiles="stitch" numOctaves="3" result="noise" seed="519" />
			<feComponentTransfer in="noise" result="coloredNoise1">
				<feFuncR type="linear" slope="2" intercept="-0.5" />
				<feFuncG type="linear" slope="2" intercept="-0.5" />
				<feFuncB type="linear" slope="2" intercept="-0.5" />
				<feFuncA type="discrete" tableValues="0 0 0 0 0 0 0 0 0 0 0 0 0 0 0 0 0 0 0 1 1 1 1 1 1 1 1 1 1 1 0 0 0 0 0 0 0 0 0 0 0 0 0 0 0 0 0 0 0 0 0 0 0 0 0 0 0 0 0 0 0 0 0 0 0 0 0 0 0 0 0 0 0 0 0 0 0 0 0 0 0 0 0 0 0 0 0 0 0 0 0 0 0 0 0 0 0 0 0 0 "/>
			</feComponentTransfer>
			<feComposite operator="in" in2="shape" in="coloredNoise1" result="noise1Clipped" />
			<feComponentTransfer in="noise1Clipped" result="color1">
				<feFuncA type="table" tableValues="0 0.3" />
			</feComponentTransfer>
			<feMerge result="effect1_noise_1_47">
				<feMergeNode in="shape" />
				<feMergeNode in="color1" />
			</feMerge>
		</filter>
	</defs>
</svg>
