<svg width="750" height="989" viewBox="0 0 750 989" fill="none" xmlns="http://www.w3.org/2000/svg">
    <path d="M502.523 431.987C506.269 431.987 510.015 431.987 513.875 431.987C513.875 432.486 513.875 432.986 513.875 433.5C514.562 433.703 515.249 433.906 515.956 434.115C518.326 434.981 519.69 435.501 521.443 437.285C521.739 439.658 521.739 439.658 521.632 442.346C521.605 443.238 521.578 444.131 521.549 445.051C521.514 445.735 521.479 446.418 521.443 447.123C520.944 447.373 520.444 447.623 519.929 447.88C519.132 449.243 519.132 449.243 518.392 450.925C518.095 451.565 517.798 452.205 517.491 452.865C517.172 453.561 516.853 454.258 516.524 454.975C512.848 462.836 508.902 470.51 504.793 478.152C504.391 478.903 503.989 479.653 503.574 480.426C498.587 489.732 493.562 499.017 488.498 508.282C485.303 514.13 482.129 519.989 478.959 525.85C476.55 530.301 474.131 534.746 471.703 539.186C465.364 550.778 459.188 562.425 453.33 574.267C452.826 575.277 452.322 576.286 451.816 577.295C452.917 576.856 452.917 576.856 454.04 576.408C471.602 569.535 489.933 565.488 507.948 572.996C513.095 575.595 518.261 579.134 520.828 584.455C522.672 590.217 521.378 595.282 518.918 600.655C514.451 609.066 508.39 615.946 501.766 622.703C501.2 623.28 500.635 623.857 500.052 624.452C498.169 626.366 496.28 628.273 494.387 630.177C493.788 630.78 493.188 631.383 492.571 632.004C488.946 635.618 485.214 639.046 481.332 642.38C480.068 643.512 478.806 644.647 477.548 645.786C475.292 647.822 473.028 649.845 470.737 651.841C467.827 654.376 464.957 656.954 462.093 659.542C460.796 660.711 459.495 661.876 458.19 663.036C456.306 664.715 454.437 666.41 452.573 668.112C452.025 668.601 451.477 669.09 450.912 669.593C446.858 673.377 444.39 677.52 441.978 682.491C436.505 682.862 436.505 682.862 433.7 681.072C431.083 678.376 431.033 676.239 431.075 672.591C432.467 662.594 441.007 654.607 447.562 647.554C449.121 645.867 450.647 644.166 452.148 642.428C454.856 639.303 457.669 636.278 460.479 633.245C463.935 629.512 467.349 625.743 470.737 621.947C471.176 621.463 471.615 620.979 472.067 620.48C477.971 613.89 483.207 606.995 487.718 599.384C488.03 598.86 488.343 598.335 488.665 597.795C490.661 594.342 492.129 590.901 493.441 587.133C473.913 592.585 455.165 599.785 436.81 608.394C435.167 609.081 435.167 609.081 433.653 609.081C433.446 609.745 433.238 610.41 433.025 611.095C432.2 613.449 431.242 615.525 430.079 617.727C429.655 618.535 429.232 619.342 428.796 620.175C428.453 620.825 428.453 620.825 428.103 621.488C426.819 623.924 425.548 626.368 424.278 628.812C424.001 629.345 423.725 629.878 423.439 630.427C419.87 637.314 416.405 644.254 412.938 651.193C412.429 652.212 412.429 652.212 411.909 653.252C409.813 657.447 407.719 661.643 405.626 665.84C403.844 669.411 402.061 672.981 400.278 676.551C397.367 682.379 394.457 688.208 391.549 694.037C390.135 696.871 388.72 699.704 387.302 702.535C387.03 703.079 386.758 703.622 386.478 704.182C385.973 705.19 385.467 706.198 384.962 707.206C382.595 711.934 380.305 716.696 378.027 721.467C377.621 722.315 377.216 723.163 376.798 724.036C375.819 726.081 374.841 728.125 373.865 730.171C374.575 730.049 375.285 729.927 376.017 729.801C396.218 726.948 431.24 727.23 448.174 739.583C451.618 742.553 453.053 745.035 453.756 749.564C453.104 762.77 437.883 774.605 429.175 783.24C427.447 784.954 425.726 786.674 424.005 788.395C422.89 789.506 421.775 790.616 420.66 791.726C420.155 792.231 419.649 792.736 419.128 793.256C416.171 796.184 413.134 798.98 409.979 801.694C405.568 805.526 401.63 809.832 397.834 814.262C396.613 815.641 395.339 816.918 394.015 818.197C391.079 821.073 388.548 824.248 385.986 827.456C382.655 831.51 382.655 831.51 379.777 831.962C375.994 831.465 372.806 829.767 370.081 827.042C368.875 819.291 374.66 812.252 378.982 806.284C382.974 800.907 387.283 795.781 391.581 790.648C393.188 788.718 394.759 786.76 396.333 784.803C399.412 781.029 402.683 777.456 405.991 773.885C408.456 771.216 410.846 768.492 413.219 765.741C413.928 764.93 414.638 764.119 415.348 763.308C423.468 754.679 423.468 754.679 429.112 744.55C423.915 743.595 418.727 743.446 413.456 743.273C412.916 743.255 412.376 743.236 411.821 743.218C402.923 742.938 394.101 743.156 385.217 743.699C384.656 743.733 384.096 743.767 383.518 743.802C380.045 744.02 376.575 744.257 373.108 744.55C372.291 744.554 372.291 744.554 371.458 744.559C369.631 744.628 368.054 744.794 366.297 745.307C364.753 747.128 364 748.304 363.061 750.414C362.798 750.948 362.535 751.482 362.264 752.032C361.4 753.799 360.574 755.582 359.746 757.365C359.146 758.603 358.545 759.84 357.94 761.075C356.353 764.332 354.795 767.603 353.245 770.879C350.772 776.1 348.262 781.303 345.737 786.499C344.866 788.305 344.013 790.119 343.161 791.934C340.313 797.904 337.518 802.8 332.817 807.531C331.426 808.797 331.426 808.797 330.727 810.393C329.008 810.454 327.29 810.498 325.571 810.534C324.614 810.561 323.657 810.587 322.671 810.614C320.131 810.393 320.131 810.393 318.828 809.384C318.349 808.76 318.349 808.76 317.861 808.122C316.488 807.025 315.107 805.939 313.716 804.864C312.166 803.14 312.032 802.113 311.806 799.797C312.229 797.799 312.708 795.953 313.32 794.015C313.491 793.454 313.663 792.893 313.839 792.316C315.909 785.688 318.389 779.216 320.888 772.741C321.35 771.534 321.811 770.327 322.272 769.12C323.367 766.252 324.468 763.387 325.572 760.522C326.169 758.974 326.764 757.426 327.359 755.877C328.229 753.615 329.099 751.353 329.97 749.091C329.391 749.137 328.813 749.183 328.217 749.23C276.547 753.271 276.547 753.271 257.978 738.495C254.176 734.905 252.307 730.728 251.782 725.582C252.941 710.973 265.946 698.56 275.763 688.83C276.421 688.166 277.078 687.503 277.756 686.819C281.755 682.832 285.902 679.168 290.308 675.637C292.345 673.992 294.247 672.274 296.15 670.477C300.038 666.904 304.109 663.653 308.282 660.426C310.13 658.997 311.957 657.547 313.769 656.074C320.416 650.67 327.244 645.578 334.233 640.624C336.032 639.348 337.824 638.062 339.616 636.775C391.149 599.999 391.149 599.999 401.867 599.999C402.156 599.042 402.156 599.042 402.452 598.066C403.452 595.257 404.726 592.684 406.13 590.063C406.533 589.301 406.533 589.301 406.945 588.524C407.515 587.452 408.086 586.38 408.659 585.309C409.516 583.706 410.366 582.099 411.215 580.492C414.259 574.758 417.456 569.189 420.901 563.686C423.067 560.151 424.998 556.503 426.936 552.84C430.687 545.837 434.592 538.945 438.617 532.096C442.028 526.291 445.401 520.466 448.742 514.621C448.995 514.18 449.247 513.738 449.508 513.283C452.303 508.394 455.073 503.491 457.788 498.557C462.48 490.03 467.226 481.589 472.416 473.353C474.984 469.276 477.455 465.155 479.875 460.988C483.781 454.266 487.699 447.816 492.684 441.825C493.587 440.738 493.587 440.738 494.508 439.629C499.442 433.909 499.442 433.909 502.523 433.5C502.523 433.001 502.523 432.502 502.523 431.987ZM379.163 640.11C359.783 651.9 341.453 665.529 324.238 680.298C322.796 681.534 321.338 682.735 319.85 683.916C313.926 688.638 308.542 693.78 303.198 699.141C302.749 699.589 302.301 700.037 301.84 700.499C286.601 714.995 286.601 714.995 279.263 733.955C287.41 739.386 303.107 735.968 312.516 735.232C313.149 735.183 313.781 735.134 314.433 735.083C318.055 734.797 321.67 734.467 325.285 734.103C326.879 733.96 328.467 733.873 330.066 733.798C334.95 733.557 334.95 733.557 338.907 731.043C339.984 729.07 340.685 727.156 341.369 725.015C341.971 723.415 342.577 721.817 343.184 720.22C343.492 719.372 343.801 718.525 344.118 717.651C345.808 713.174 347.808 708.84 349.789 704.486C350.41 703.103 351.032 701.721 351.654 700.338C354.435 694.164 357.267 688.014 360.129 681.878C360.604 680.859 361.078 679.84 361.551 678.82C364.263 672.98 367.115 667.248 370.173 661.581C372.415 657.424 374.524 653.216 376.561 648.955C376.901 648.261 377.241 647.567 377.591 646.852C378.066 645.86 378.066 645.86 378.551 644.849C378.974 643.97 378.974 643.97 379.407 643.074C379.576 642.596 379.745 642.117 379.919 641.624C379.67 641.124 379.42 640.625 379.163 640.11Z" fill="#7B0003"/>
    <path d="M379.162 443.339C381.501 445.142 382.673 446.291 383.594 449.095C383.749 452.735 382.463 455.233 380.912 458.475C380.604 459.137 380.296 459.799 379.979 460.481C374.198 472.69 367.337 484.34 360.567 496.017C356.944 502.268 353.412 508.562 349.922 514.887C347.81 518.7 345.676 522.502 343.545 526.305C343.086 527.124 342.628 527.943 342.155 528.787C340.269 532.154 338.382 535.521 336.476 538.878C332.54 545.814 328.761 552.829 324.997 559.861C322.096 565.262 319.114 570.606 316.063 575.923C311.578 583.759 307.429 591.753 303.344 599.803C301.208 604.002 299.052 608.169 296.698 612.252C291.119 621.937 286.247 631.999 281.271 642.001C280.241 644.069 279.208 646.135 278.175 648.201C272.11 660.331 266.138 672.5 260.343 684.762C259.804 685.9 259.265 687.038 258.726 688.176C257.273 691.246 255.827 694.318 254.383 697.391C254.13 697.93 253.876 698.468 253.615 699.023C248.92 709.009 244.265 719.012 239.629 729.025C238.298 731.895 236.962 734.762 235.625 737.629C234.941 739.098 234.257 740.567 233.573 742.036C233.134 742.978 232.695 743.92 232.255 744.862C231.648 746.162 231.042 747.462 230.437 748.763C229.919 749.874 229.919 749.874 229.39 751.008C228.502 752.916 228.502 752.916 227.8 755.145C228.175 755.598 228.549 756.051 228.935 756.517C230.071 758.173 230.071 758.173 230.118 760.207C229.217 763.014 227.981 764.942 226.286 767.334C225.08 769.08 223.947 770.833 222.834 772.638C214.733 785.711 214.733 785.711 210.393 787.688C204.109 788.973 199.002 787.367 193.744 783.904C193.055 783.534 192.366 783.165 191.656 782.784C188.928 779.718 189.499 776.457 189.628 772.505C189.633 771.743 189.637 770.982 189.642 770.197C189.736 764.563 189.736 764.563 191.473 761.957C191.98 760.543 191.98 760.543 192.375 758.977C192.539 758.373 192.703 757.77 192.873 757.148C193.051 756.487 193.229 755.826 193.412 755.145C198.535 736.882 205.141 719.596 212.797 702.274C213.743 700.134 214.678 697.99 215.605 695.842C215.839 695.302 216.073 694.763 216.313 694.207C216.753 693.192 217.19 692.176 217.626 691.16C219.039 687.904 220.618 684.802 222.313 681.687C222.589 681.181 222.864 680.675 223.148 680.154C223.376 679.736 223.604 679.318 223.839 678.888C228.044 671.036 231.723 662.883 235.466 654.803C238.314 648.661 241.317 642.636 244.508 636.665C246.626 632.689 248.647 628.675 250.627 624.628C253.712 618.335 256.921 612.421 260.825 606.597C263.089 603.132 265.009 599.481 266.965 595.837C270.517 589.221 274.233 582.728 278.098 576.29C281.708 570.262 285.038 564.099 288.351 557.904C293.28 548.692 298.42 539.662 303.856 530.74C305.809 527.513 307.718 524.259 309.63 521.007C312.516 516.107 315.422 511.22 318.351 506.347C318.655 505.842 318.958 505.337 319.271 504.816C320.772 502.32 322.275 499.824 323.779 497.33C326.689 492.5 329.557 487.655 332.24 482.693C332.74 482.693 333.239 482.693 333.754 482.693C334.059 481.868 334.059 481.868 334.372 481.026C335.252 478.946 336.259 477.204 337.49 475.314C337.961 474.589 338.431 473.865 338.915 473.118C339.732 471.864 339.732 471.864 340.565 470.584C341.21 469.575 341.855 468.565 342.498 467.554C357.337 444.318 357.337 444.318 364.405 441.542C369.801 440.578 374.205 441.018 379.162 443.339Z" fill="#7B0003"/>
    <path d="M54.4904 429.716C57.5176 429.716 57.5176 429.716 59.2678 430.946C60.5449 432.744 60.5449 432.744 60.5065 434.662C59.4861 438.387 57.5962 441.41 55.6256 444.711C54.7868 446.154 53.9492 447.597 53.1128 449.042C52.4934 450.106 52.4934 450.106 51.8615 451.191C46.6908 460.082 42.4276 469.213 38.4082 478.673C38.1821 479.203 37.9561 479.734 37.7233 480.281C34.7398 487.312 31.9909 494.385 29.5156 501.614C29.3349 502.131 29.1542 502.649 28.9681 503.183C26.0507 511.553 23.6178 519.953 21.5691 528.575C21.4255 529.175 21.2819 529.774 21.1339 530.392C10.7436 573.925 6.55317 619.023 12.8658 663.571C12.9916 664.479 13.1175 665.386 13.2471 666.321C16.6055 689.799 21.8282 713.027 29.5156 735.468C29.7816 736.247 30.0476 737.026 30.3216 737.829C41.0465 768.775 57.0313 799.093 76.4379 825.529C77.0046 826.301 77.0046 826.301 77.5828 827.089C84.9327 837.032 92.9483 846.326 101.265 855.467C102.191 856.497 103.112 857.532 104.013 858.585C107.593 862.757 111.393 866.679 115.28 870.565C116.352 871.639 117.417 872.718 118.482 873.798C123.152 878.477 128.035 882.708 133.199 886.83C134.015 887.521 134.827 888.215 135.632 888.918C190.85 936.926 264.468 965.604 389.397 969.728C389.945 969.696 390.493 969.664 391.058 969.631C395.322 969.374 399.57 968.997 403.82 968.556C405.651 968.566 405.651 968.566 407.164 970.08C407.259 972.823 407.259 972.823 407.164 975.377C401.555 976.348 396.211 977.084 390.515 976.891C390.515 977.39 390.515 977.89 390.515 978.405C371.284 978.405 352.053 978.405 332.24 978.405C332.24 977.905 332.24 977.406 332.24 976.891C331.248 976.905 330.255 976.919 329.233 976.933C325.795 976.931 322.46 976.652 319.052 976.223C318.17 976.116 318.17 976.116 317.271 976.006C315.369 975.772 313.469 975.529 311.57 975.283C310.915 975.198 310.26 975.114 309.586 975.027C253.267 967.696 195.376 944.829 150.421 909.81C149.16 908.831 147.89 907.865 146.614 906.904C140.242 902.073 134.065 897.02 127.927 891.896C126.539 890.74 125.143 889.594 123.745 888.45C113.507 879.978 103.972 870.455 95.3582 860.342C94.63 859.497 93.9018 858.651 93.1735 857.806C92.0752 856.523 90.9786 855.24 89.883 853.956C87.9438 851.685 85.9968 849.423 84.0179 847.187C71.4513 832.915 61.1316 816.796 51.5282 800.424C50.6956 799.022 49.8405 797.637 48.9799 796.253C23.4442 754.733 8.27902 703.929 4.05602 655.571C3.88002 652.992 3.88002 652.992 3.02723 650.705C2.95049 648.696 2.9161 646.707 2.91729 644.698C2.91475 644.087 2.91221 643.475 2.90959 642.844C2.90239 640.815 2.90092 638.786 2.90011 636.758C2.89767 635.342 2.89513 633.927 2.89247 632.511C2.88794 629.537 2.88654 626.564 2.88699 623.59C2.88707 619.803 2.87678 616.016 2.8637 612.229C2.85523 609.301 2.85375 606.372 2.85415 603.444C2.85327 602.05 2.84996 600.655 2.84406 599.261C2.81443 591.522 3.09824 584.17 4.54085 576.538C4.77288 574.886 5.00027 573.234 5.21784 571.58C9.38215 540.694 16.9315 510.175 28.8061 481.321C29.0221 480.795 29.2381 480.268 29.4606 479.725C32.6651 471.954 36.2685 464.436 40.111 456.962C40.6099 455.984 40.6099 455.984 41.1189 454.987C41.8931 453.48 42.6771 451.979 43.4693 450.481C43.7449 449.959 44.0205 449.436 44.3045 448.898C46.5791 444.634 49.0264 440.487 51.5916 436.392C52.9444 434.205 54.0854 432.279 54.4904 429.716Z" fill="#790003"/>
    <path d="M608.334 339.278C612.471 342.114 614.221 346.259 615.288 351.008C615.882 350.643 616.476 350.278 617.088 349.902C625.589 344.792 625.589 344.792 629.667 344.197C631.464 344.67 631.464 344.67 632.694 345.71C633.696 348.345 633.315 350.497 632.836 353.231C632.706 354.003 632.577 354.775 632.443 355.57C631.962 357.709 631.299 359.597 630.424 361.603C630.981 361.75 631.538 361.896 632.112 362.047C632.85 362.244 633.589 362.441 634.35 362.644C635.079 362.837 635.807 363.03 636.558 363.229C638.614 363.834 640.559 364.557 642.533 365.387C642.533 367.385 642.533 369.383 642.533 371.442C641.409 371.817 641.409 371.817 640.262 372.199C639.716 372.761 639.17 373.323 638.607 373.902C635.686 376.758 632.379 379.767 628.153 379.767C628.972 380.714 629.792 381.66 630.613 382.605C631.093 383.16 631.573 383.715 632.067 384.287C633.473 385.906 633.473 385.906 635.343 387.477C636.478 388.849 636.478 388.849 636.336 390.835C635.721 392.633 635.721 392.633 634.965 394.146C629.72 394.146 624.475 394.146 619.072 394.146C619.072 393.647 619.072 393.147 619.072 392.633C618.075 392.526 618.075 392.526 617.058 392.417C611.113 391.144 606.496 386.601 603.084 381.754C602.018 380.106 601.029 378.494 600.151 376.74C599.386 376.443 598.622 376.147 597.834 375.841C592.294 373.566 588.58 369.394 585.704 364.255C585.477 363.88 585.249 363.504 585.015 363.117C584.765 363.117 584.516 363.117 584.258 363.117C584.258 358.122 584.258 353.127 584.258 347.981C588.042 347.224 588.042 347.224 590.206 348.448C590.928 349.012 591.65 349.576 592.394 350.157C593.124 350.717 593.853 351.277 594.605 351.854C596.367 353.279 596.367 353.279 597.124 354.035C597.281 353.568 597.438 353.101 597.6 352.619C598.97 348.853 603.059 337.822 608.334 339.278ZM606.963 348.738C603.175 353.843 602.919 359.392 603.717 365.485C603.789 365.952 603.861 366.42 603.935 366.901C606.847 363.99 609.022 358.91 609.233 354.792C608.84 352.724 608.304 350.765 607.719 348.738C607.47 348.738 607.22 348.738 606.963 348.738ZM621.011 353.941C619.889 354.547 619.889 354.547 618.743 355.165C615.321 357.175 614.792 359.014 613.679 362.739C613.412 363.621 613.145 364.502 612.869 365.411C612.194 367.513 612.194 367.513 612.26 369.172C613.27 368.668 614.279 368.163 615.288 367.658C616.024 367.307 616.024 367.307 616.775 366.948C621.432 364.44 623.328 361.208 625.126 356.306C625.77 353.736 625.77 353.736 625.883 351.765C624.216 351.765 622.418 353.176 621.011 353.941ZM590.313 357.063C590.84 363.39 593.135 367.981 597.881 372.199C598.38 371.949 598.88 371.699 599.395 371.442C598.458 369.466 597.511 367.497 596.556 365.529C596.161 364.692 596.161 364.692 595.758 363.837C594.328 360.91 593.246 358.734 590.313 357.063ZM620.585 372.199C619.595 372.772 618.602 373.34 617.605 373.902C616.84 374.339 616.076 374.776 615.288 375.226C615.288 375.476 615.288 375.726 615.288 375.983C620.563 376.234 625.836 376.12 630.178 372.719C631.34 371.599 631.34 371.599 632.694 369.928C628.185 367.674 624.427 369.699 620.585 372.199ZM611.504 376.74C610.005 377.489 610.005 377.489 608.476 378.253C612.451 383.951 617.712 386.327 624.464 387.572C625.692 387.757 626.921 387.935 628.153 388.092C627.447 387.237 626.737 386.387 626.025 385.538C625.63 385.063 625.235 384.589 624.828 384.101C622.743 381.86 620.856 381.056 617.936 380.476C615.968 380.079 614.172 379.647 612.26 379.01C612.011 378.261 611.761 377.512 611.504 376.74Z" fill="#790003"/>
    <path d="M666.751 775.579C672.102 776.558 677.29 777.86 682.508 779.393C683.626 779.717 683.626 779.717 684.766 780.048C687.118 780.731 689.469 781.419 691.82 782.107C693.426 782.574 695.033 783.041 696.639 783.508C700.552 784.646 704.464 785.787 708.375 786.931C708.375 789.638 707.552 790.756 706.105 792.986C699.546 791.28 693.108 789.262 686.664 787.168C685.681 786.85 684.698 786.532 683.715 786.214C681.339 785.446 678.964 784.676 676.589 783.904C676.34 784.154 676.09 784.404 675.832 784.661C679.649 788.858 683.481 793.036 687.38 797.157C687.927 797.735 688.473 798.313 689.037 798.909C690.128 800.061 691.221 801.211 692.315 802.36C692.817 802.89 693.319 803.42 693.836 803.966C694.287 804.439 694.737 804.912 695.201 805.4C696.266 806.608 696.266 806.608 697.023 808.122C696.435 809.429 696.435 809.429 695.557 810.866C695.042 811.708 694.527 812.551 693.996 813.42C687.325 813.007 681.121 811.073 674.745 809.21C673.079 808.728 671.413 808.247 669.746 807.768C668.715 807.471 667.685 807.172 666.656 806.871C664.096 806.106 664.096 806.106 661.453 805.852C666.97 811.507 666.97 811.507 672.805 816.825C676.817 820.244 680.464 824.044 684.157 827.799C683.26 830.353 682.435 832.073 680.373 833.854C677.708 831.262 675.117 828.648 672.711 825.813C669.831 822.463 666.693 819.396 663.555 816.293C660.822 813.579 658.222 810.799 655.727 807.862C654.191 806.087 652.542 804.458 650.858 802.824C652.277 799.23 652.277 799.23 653.128 797.527C657.181 798.015 660.98 798.898 664.903 800.013C665.799 800.263 665.799 800.263 666.713 800.519C668.603 801.048 670.491 801.581 672.379 802.115C673.668 802.476 674.956 802.838 676.245 803.198C679.388 804.079 682.53 804.964 685.671 805.852C685.921 805.602 686.17 805.352 686.428 805.095C679.964 798.021 679.964 798.021 673.252 791.186C671.393 789.29 669.671 787.28 667.945 785.264C666.779 783.888 666.779 783.888 665.453 782.71C665.132 782.355 664.811 782 664.48 781.634C664.678 779 665.263 777.811 666.751 775.579Z" fill="#7B0003"/>
    <path d="M747.73 590.16C747.73 593.157 747.73 596.154 747.73 599.242C746.798 599.582 745.865 599.922 744.905 600.272C741.455 601.531 738.005 602.791 734.556 604.051C733.061 604.597 731.566 605.142 730.072 605.687C727.926 606.47 725.781 607.253 723.636 608.037C722.629 608.404 722.629 608.404 721.603 608.778C720.982 609.005 720.36 609.232 719.721 609.466C719.173 609.666 718.625 609.866 718.06 610.072C716.654 610.587 716.654 610.587 715.187 611.351C726.176 614.848 737.164 618.344 748.486 621.947C748.486 624.694 748.486 627.441 748.486 630.271C734.6 630.831 720.761 631.143 706.862 631.028C706.862 629.03 706.862 627.032 706.862 624.974C707.683 624.955 708.505 624.936 709.351 624.916C712.387 624.845 715.424 624.769 718.461 624.692C719.777 624.659 721.093 624.628 722.409 624.597C724.297 624.554 726.185 624.506 728.073 624.456C728.665 624.444 729.257 624.431 729.867 624.418C732.592 624.59 732.592 624.59 734.864 623.46C734.019 623.189 733.175 622.918 732.305 622.639C729.183 621.635 726.062 620.629 722.942 619.622C721.589 619.185 720.236 618.75 718.883 618.316C716.941 617.692 715.001 617.066 713.061 616.439C712.453 616.244 711.844 616.049 711.217 615.849C706.948 614.465 706.948 614.465 706.105 613.622C706.074 611.856 706.073 610.09 706.105 608.324C716.135 604.362 726.233 600.631 736.377 596.972C726.387 596.972 716.398 596.972 706.105 596.972C706.105 594.974 706.105 592.976 706.105 590.917C719.987 590.4 733.836 590.043 747.73 590.16Z" fill="#7C0004"/>
    <path d="M140.01 310.14C143.36 313.272 145.985 316.742 148.666 320.452C149.597 321.731 150.528 323.01 151.46 324.289C151.938 324.947 152.416 325.605 152.909 326.282C154.403 328.322 155.917 330.346 157.437 332.366C157.925 333.017 158.413 333.668 158.916 334.339C159.858 335.595 160.805 336.849 161.755 338.1C162.391 338.952 162.391 338.952 163.04 339.821C163.416 340.32 163.793 340.819 164.18 341.334C164.985 342.683 164.985 342.683 164.985 344.954C163.85 346.278 163.85 346.278 161.958 347.224C157.261 346.929 153.247 345.704 148.855 344.076C148.209 343.841 147.562 343.607 146.896 343.366C144.851 342.624 142.809 341.873 140.767 341.122C139.373 340.615 137.978 340.108 136.584 339.601C133.183 338.365 129.784 337.12 126.388 335.872C127.426 338.116 128.635 339.954 130.18 341.882C130.627 342.445 131.074 343.008 131.534 343.588C132.005 344.179 132.477 344.77 132.962 345.379C136.9 350.369 140.577 355.355 143.794 360.847C142.044 362.408 142.044 362.408 140.01 363.874C137.468 363.026 137.127 362.56 135.626 360.456C135.217 359.891 134.808 359.326 134.387 358.743C133.948 358.126 133.509 357.509 133.057 356.873C132.113 355.567 131.168 354.261 130.222 352.956C129.724 352.27 129.227 351.583 128.714 350.876C125.53 346.539 122.23 342.288 118.937 338.034C118.449 337.399 117.962 336.765 117.46 336.111C117.028 335.553 116.596 334.994 116.151 334.419C115.098 332.932 114.285 331.468 113.522 329.817C115.089 328.451 116.165 327.555 118.063 326.79C122.698 327.132 127.318 329.043 131.665 330.604C132.276 330.82 132.888 331.036 133.519 331.259C135.447 331.941 137.374 332.629 139.301 333.318C140.618 333.785 141.937 334.252 143.255 334.719C146.463 335.856 149.67 336.998 152.876 338.142C151.832 335.893 150.615 334.027 149.083 332.079C148.634 331.505 148.184 330.931 147.722 330.339C147.253 329.745 146.784 329.152 146.301 328.54C145.384 327.371 144.466 326.201 143.549 325.031C143.095 324.454 142.641 323.877 142.173 323.283C139.928 320.424 137.698 317.553 135.469 314.681C136.983 313.168 138.497 311.654 140.01 310.14Z" fill="#7B0003"/>
    <path d="M728.809 497.829C729.978 503.146 729.978 503.146 728.165 506.394C727.483 507.227 726.782 508.046 726.066 508.851C725.694 509.295 725.322 509.74 724.939 510.199C723.724 511.642 722.486 513.062 721.241 514.479C720.369 515.486 719.498 516.493 718.628 517.501C717.363 518.963 716.096 520.422 714.812 521.867C712.196 524.828 709.867 527.88 707.619 531.129C715.148 529.341 722.567 527.31 729.961 525.023C730.578 524.833 731.195 524.643 731.831 524.448C732.654 524.192 732.654 524.192 733.495 523.93C734.864 523.561 734.864 523.561 736.377 523.561C737.127 526.558 737.127 526.558 737.891 529.616C732.559 531.238 727.225 532.854 721.89 534.466C720.075 535.015 718.26 535.565 716.446 536.118C713.84 536.91 711.232 537.698 708.624 538.484C707.812 538.733 706.999 538.981 706.163 539.237C705.405 539.464 704.648 539.691 703.868 539.926C703.202 540.127 702.537 540.329 701.851 540.537C700.05 540.968 700.05 540.968 697.023 540.968C695.102 535.812 695.102 535.812 696.126 533.554C697.188 532.196 698.315 530.981 699.53 529.757C700.384 528.834 701.238 527.91 702.09 526.984C702.517 526.533 702.943 526.083 703.383 525.618C705.056 523.818 706.598 521.927 708.139 520.014C708.938 519.03 708.938 519.03 709.753 518.027C710.297 517.356 710.842 516.684 711.403 515.993C712.678 514.431 713.956 512.871 715.234 511.31C715.805 510.613 716.375 509.915 716.963 509.196C717.376 508.692 717.789 508.188 718.214 507.668C715.283 507.668 712.716 508.51 709.927 509.324C709.343 509.492 708.758 509.66 708.155 509.833C706.289 510.37 704.423 510.911 702.557 511.452C701.292 511.817 700.026 512.182 698.76 512.546C695.657 513.44 692.556 514.337 689.455 515.236C688.956 513.238 688.456 511.24 687.941 509.182C693.804 507.354 699.668 505.532 705.534 503.718C707.808 503.015 710.081 502.31 712.353 501.602C714.431 500.954 716.511 500.313 718.592 499.674C719.196 499.484 719.801 499.294 720.423 499.099C723.286 498.227 725.806 497.597 728.809 497.829Z" fill="#7B0003"/>
    <path d="M182.581 293.159C189.384 297.172 193.377 303.445 195.745 310.924C196.646 315.902 196.686 320.971 194.066 325.41C190.383 330.122 184.945 332.903 179.837 335.825C179.04 336.281 179.04 336.281 178.227 336.747C174.349 338.899 174.349 338.899 171.796 338.899C171.473 338.332 171.15 337.766 170.817 337.182C164.367 325.877 157.903 314.581 151.362 303.329C154.655 300.47 158.247 298.455 162.052 296.376C162.973 295.864 162.973 295.864 163.912 295.343C169.844 292.072 176.018 290.154 182.581 293.159ZM159.687 304.843C164.38 313.847 169.186 322.875 174.823 331.331C180.136 329.364 185.129 326.491 188.966 322.297C190.815 317.984 190.338 314.546 188.872 310.235C186.702 305.282 183.283 300.692 178.599 297.872C171.812 295.532 164.899 301.066 159.687 304.843Z" fill="#7B0003"/>
    <path d="M468.466 256.407C471.246 257.196 474.019 258.005 476.791 258.819C477.96 259.15 477.96 259.15 479.153 259.489C485.959 261.504 491.685 263.989 495.711 270.029C498.227 276.661 497.363 283.354 494.86 289.896C492.6 294.866 489.733 298.514 485.4 301.815C475.801 304.66 465.23 301.279 456.357 297.274C455.311 295.182 455.902 294.344 456.614 292.139C456.854 291.387 457.094 290.634 457.341 289.859C457.608 289.044 457.874 288.228 458.149 287.389C458.417 286.554 458.685 285.72 458.961 284.861C459.822 282.186 460.691 279.513 461.56 276.841C462.141 275.037 462.722 273.234 463.301 271.431C463.854 269.718 464.407 268.005 464.96 266.292C465.223 265.477 465.487 264.662 465.758 263.822C466.003 263.07 466.248 262.317 466.5 261.542C466.716 260.877 466.931 260.213 467.154 259.529C467.709 257.92 467.709 257.92 468.466 256.407ZM473.007 263.975C470.516 269.938 468.416 276.005 466.385 282.138C466.074 283.066 465.762 283.994 465.442 284.95C465.001 286.274 465.001 286.274 464.552 287.625C464.286 288.425 464.02 289.225 463.746 290.049C463.096 291.883 463.096 291.883 463.168 293.49C465.09 294.129 467.013 294.758 468.939 295.382C469.479 295.563 470.018 295.743 470.574 295.929C473.739 296.946 476.453 297.604 479.818 297.274C485.916 293.982 488.346 289.265 490.414 282.895C491.46 279.013 491.164 275.92 489.793 272.193C487.398 268.419 483.755 267.07 479.676 265.678C478.279 265.192 478.279 265.192 476.853 264.696C474.687 263.9 474.687 263.9 473.007 263.975Z" fill="#7B0003"/>
    <path d="M740.918 543.238C741.282 545.146 741.645 547.053 742.006 548.962C742.108 549.495 742.21 550.028 742.315 550.577C745.294 566.343 745.294 566.343 740.162 574.362C736.154 578.919 729.336 580.842 723.473 581.232C716.431 581.334 711.034 580.646 705.75 575.698C700.534 569.257 699.294 557.352 699.294 549.293C704.491 548.425 709.689 547.564 714.888 546.706C716.656 546.414 718.424 546.12 720.191 545.825C722.734 545.401 725.278 544.981 727.822 544.563C729.004 544.364 729.004 544.364 730.209 544.161C733.815 543.572 737.249 543.063 740.918 543.238ZM726.43 551.043C725.556 551.194 725.556 551.194 724.664 551.348C722.813 551.669 720.963 551.994 719.113 552.32C717.854 552.539 716.595 552.758 715.336 552.976C712.258 553.511 709.182 554.05 706.105 554.59C706.206 556.025 706.313 557.46 706.421 558.895C706.48 559.694 706.539 560.493 706.599 561.316C707.056 565.417 708.029 568.999 710.504 572.328C714.525 575.2 718.735 575.495 723.512 575.024C729.088 574.091 733.329 572.509 737.134 568.213C739.694 563.093 737.811 555.337 736.377 550.049C732.981 549.91 729.76 550.452 726.43 551.043Z" fill="#7B0003"/>
    <path d="M701.564 677.194C706.655 678.348 711.745 679.507 716.835 680.667C718.566 681.062 720.297 681.455 722.028 681.848C724.519 682.413 727.01 682.981 729.501 683.55C730.272 683.724 731.043 683.898 731.838 684.078C735.439 684.903 738.952 685.769 742.432 687.032C741.773 690.19 741.088 693.341 740.398 696.492C740.213 697.38 740.028 698.268 739.838 699.183C738.443 705.468 736.939 710.555 731.742 714.609C726.007 717.725 718.257 717.303 711.943 716.057C706.049 714.117 701.27 710.733 698.158 705.29C695.615 699.182 697.368 692.886 698.868 686.701C699.042 685.95 699.216 685.2 699.396 684.426C700.681 678.959 700.681 678.959 701.564 677.194ZM705.348 684.762C703.422 690.585 701.214 697.676 703.69 703.644C706.584 707.619 712.014 709.565 716.7 710.493C720.961 710.855 724.59 711.079 728.478 709.169C732.243 705.694 733.204 702.72 734.249 697.817C734.383 697.217 734.517 696.617 734.655 695.999C734.984 694.525 735.303 693.049 735.62 691.573C732.283 690.72 728.945 689.872 725.606 689.028C724.472 688.741 723.339 688.452 722.206 688.163C720.569 687.744 718.93 687.33 717.291 686.917C716.793 686.788 716.294 686.66 715.781 686.527C712.306 685.658 708.901 685.151 705.348 684.762Z" fill="#7B0003"/>
    <path d="M538.85 915.589C545.04 919.891 549.432 925.553 550.959 932.996C551.641 939.554 550.767 944.873 546.749 950.166C542.523 954.726 536.957 956.94 530.814 957.267C524.239 957.073 519.787 954.241 515.294 949.598C510.552 944.039 508.714 937.948 508.997 930.669C509.822 925.249 512.484 920.638 516.837 917.292C523.988 913.007 531.249 911.887 538.85 915.589ZM519.267 922.637C516.284 926.41 514.945 929.436 515.122 934.235C515.938 939.717 519.159 945.497 523.353 949.131C527.007 951.585 530.779 951.836 535.065 951.159C539.148 949.754 541.683 946.998 544.147 943.591C545.891 938.359 545.03 933.7 542.835 928.73C539.961 923.364 536.504 920.527 530.667 918.711C526.25 918.538 522.693 919.881 519.267 922.637Z" fill="#7B0003"/>
    <path d="M228.025 272.761C233.095 276.9 237.15 282.43 238.396 288.95C239.281 300.73 239.281 300.73 235.368 305.599C230.517 310.946 225.632 313.835 218.387 314.255C212.86 314.015 208.192 311.938 204.102 308.248C198.486 302.062 196.89 295.218 197.217 286.998C197.921 281.124 200.493 277.825 205.06 274.174C211.341 269.644 221.206 268.551 228.025 272.761ZM205.096 282.138C202.908 285.742 203.148 289.401 203.582 293.49C204.976 298.954 207.61 304.234 212.575 307.211C216.22 308.804 219.447 308.993 223.259 307.87C226.871 306.377 229.408 304.323 231.584 301.059C233.381 295.667 232.796 290.793 230.402 285.686C227.94 281.194 225.18 277.733 220.232 276.084C213.635 275.43 209.537 277.08 205.096 282.138Z" fill="#7B0003"/>
    <path d="M550.438 289.091C554.533 293.377 556.766 297.771 557.06 303.734C556.887 310.587 554.228 317.039 549.67 322.193C544.515 326.872 539.83 327.986 532.964 327.813C527.485 327.215 522.971 324.707 519.172 320.736C515.095 315.073 514.532 309.399 515.388 302.572C516.065 300.042 517.037 297.981 518.416 295.761C518.737 295.233 519.058 294.705 519.388 294.161C522.279 289.886 526.28 286.291 531.27 284.681C538.525 283.387 544.355 285.074 550.438 289.091ZM528.127 293.464C523.614 298.273 520.517 303.354 520.686 310.14C521.458 314.882 523.936 317.472 527.545 320.473C530.76 322.709 534.323 322.792 538.093 322.249C543.666 319.893 547.032 315.693 549.572 310.321C551.15 306.075 551.668 301.999 549.776 297.795C547.308 293.653 544.389 291.278 539.701 290.085C534.878 289.356 531.754 290.176 528.127 293.464Z" fill="#7B0003"/>
    <path d="M690.969 718.062C696.011 719.513 700.938 721.152 705.845 723.01C706.502 723.257 707.16 723.504 707.838 723.759C709.212 724.275 710.585 724.793 711.958 725.312C714.066 726.108 716.175 726.901 718.285 727.693C719.625 728.197 720.965 728.702 722.305 729.207C723.251 729.563 723.251 729.563 724.216 729.926C725.089 730.256 725.089 730.256 725.979 730.592C726.49 730.785 727.002 730.978 727.529 731.177C728.809 731.684 728.809 731.684 730.323 732.441C729.163 738.804 726.884 744.65 724.552 750.652C724.158 751.678 723.763 752.704 723.37 753.731C722.413 756.222 721.45 758.712 720.484 761.2C716.889 760.538 716.889 760.538 715.187 759.686C715.691 756.793 716.503 754.152 717.507 751.394C717.812 750.552 718.117 749.711 718.431 748.844C718.75 747.973 719.068 747.103 719.396 746.205C719.718 745.32 720.039 744.435 720.37 743.523C721.163 741.341 721.958 739.162 722.755 736.982C719.508 735.733 716.261 734.484 712.916 733.198C711.47 735.368 710.666 737.23 709.765 739.663C709.462 740.475 709.16 741.288 708.848 742.124C708.38 743.395 708.38 743.395 707.902 744.692C707.584 745.548 707.266 746.404 706.939 747.286C706.154 749.4 705.371 751.515 704.591 753.632C703.093 753.382 701.594 753.132 700.05 752.875C698.902 749.924 699.738 748.113 700.875 745.248C701.219 744.37 701.563 743.492 701.917 742.587C702.285 741.674 702.652 740.761 703.03 739.82C703.395 738.895 703.759 737.97 704.135 737.017C705.036 734.732 705.945 732.45 706.862 730.171C706.305 730.024 705.748 729.878 705.174 729.727C704.435 729.53 703.697 729.333 702.936 729.13C702.207 728.937 701.478 728.744 700.727 728.545C698.537 727.9 698.537 727.9 694.753 726.386C691.756 734.129 688.759 741.871 685.671 749.848C683.923 749.348 682.175 748.849 680.373 748.334C682.21 741.741 684.57 735.352 686.948 728.941C687.339 727.881 687.73 726.822 688.12 725.763C689.067 723.195 690.017 720.628 690.969 718.062Z" fill="#7B0003"/>
    <path d="M460.141 940.564C462.475 948.369 464.447 956.233 466.307 964.163C466.77 966.136 467.238 968.108 467.707 970.08C468.003 971.337 468.3 972.594 468.596 973.852C468.736 974.44 468.875 975.028 469.019 975.634C469.98 979.743 469.98 979.743 469.98 981.432C463.528 983.182 457.063 984.884 450.587 986.54C449.942 986.709 449.296 986.877 448.632 987.051C445.6 987.819 442.864 988.475 439.707 988.243C439.458 986.495 439.208 984.747 438.951 982.946C441.926 982.188 444.902 981.433 447.88 980.682C448.892 980.426 449.904 980.169 450.916 979.911C452.372 979.541 453.828 979.174 455.284 978.807C456.16 978.585 457.036 978.363 457.938 978.134C460.141 977.648 460.141 977.648 462.412 977.648C461.413 973.902 460.414 970.155 459.385 966.296C458.054 966.623 456.723 966.951 455.352 967.289C453.606 967.715 451.86 968.141 450.114 968.566C449.237 968.783 448.36 968.999 447.456 969.222C446.612 969.427 445.768 969.632 444.899 969.843C444.122 970.033 443.345 970.224 442.545 970.42C440.464 970.837 440.464 970.837 437.437 970.837C437.187 969.088 436.938 967.34 436.68 965.539C447.17 962.917 447.17 962.917 457.871 960.241C457.122 956.745 456.372 953.248 455.6 949.646C455.6 948.897 455.6 948.147 455.6 947.375C454.898 947.559 454.195 947.742 453.471 947.931C450.868 948.61 448.264 949.286 445.66 949.962C444.532 950.255 443.405 950.549 442.277 950.843C440.658 951.266 439.039 951.686 437.419 952.105C436.914 952.238 436.409 952.37 435.888 952.507C432.312 953.43 432.312 953.43 430.626 953.43C430.376 951.432 430.126 949.434 429.869 947.375C433.814 946.402 437.761 945.432 441.708 944.465C443.051 944.136 444.393 943.806 445.736 943.474C447.665 942.998 449.594 942.526 451.524 942.054C452.125 941.905 452.725 941.756 453.344 941.603C455.663 941.038 457.746 940.564 460.141 940.564Z" fill="#7B0003"/>
    <path d="M364.499 243.919C367.562 245.803 369.544 248.533 370.838 251.866C370.696 254.136 370.696 254.136 370.081 255.65C368.333 255.65 366.584 255.65 364.783 255.65C364.29 254.32 363.798 252.989 363.305 251.659C362.251 249.921 361.392 249.516 359.485 248.839C355.787 248.414 352.31 248.425 348.795 249.69C346.916 251.569 346.793 253.046 346.62 255.65C350.347 258.506 353.805 259.544 358.35 260.569C368.249 262.801 368.249 262.801 371.5 267.57C372.863 271.507 372.888 274.564 371.5 278.496C369.261 281.854 366.864 283.864 363.128 285.402C356.906 286.524 350.854 286.549 345.106 283.652C342.151 281.275 340.446 278.851 339.051 275.327C338.91 273.151 338.91 273.151 339.051 271.543C341.674 271.168 341.674 271.168 344.349 270.786C344.524 271.197 344.698 271.608 344.878 272.031C346.431 275.436 347.496 277.727 351.16 279.111C355.524 280.081 359.049 280.043 363.269 278.354C364.802 277.517 364.802 277.517 365.54 276.084C365.946 273.036 365.946 273.036 364.674 270.36C362.787 268.898 360.973 268.414 358.681 267.759C357.805 267.5 356.929 267.242 356.027 266.975C354.442 266.53 352.854 266.095 351.261 265.681C347.057 264.55 344.221 263.524 341.322 260.191C339.791 256.754 339.445 253.711 340.612 250.116C342.12 246.775 344.261 245.08 347.533 243.482C352.525 241.834 359.613 241.808 364.499 243.919Z" fill="#7B0003"/>
    <path d="M71.897 369.928C75.7208 371.084 78.1695 373.414 81.0734 376.03C82.0895 376.929 83.1065 377.826 84.1243 378.723C84.6208 379.162 85.1174 379.601 85.629 380.053C88.1147 382.226 90.6855 384.291 93.2504 386.368C97.2788 389.662 101.233 393.045 105.197 396.417C104.198 397.915 103.199 399.414 102.169 400.958C99.6386 400.511 98.3336 399.696 96.4698 397.948C95.981 397.503 95.4922 397.058 94.9887 396.6C93.9707 395.655 92.9557 394.707 91.9437 393.756C91.4549 393.313 90.9661 392.87 90.4626 392.414C90.0221 392.003 89.5816 391.591 89.1278 391.167C87.8271 390.209 87.8271 390.209 86.2367 390.48C83.7177 391.572 82.2361 393.805 80.5531 395.896C80.1887 396.337 79.8243 396.777 79.4489 397.231C77.6301 399.44 75.8601 401.677 74.1675 403.985C75.3327 406.983 77.2096 408.448 79.7017 410.418C80.4168 410.987 81.1319 411.557 81.8686 412.144C82.574 412.698 83.2793 413.252 84.006 413.823C85.268 414.832 86.5296 415.84 87.7901 416.851C86.7251 419.424 85.4979 420.553 83.2492 422.148C82.8258 421.753 82.4024 421.358 81.9662 420.951C78.2968 417.582 74.5598 414.407 70.6199 411.364C66.6076 408.26 62.7189 405.041 58.8893 401.714C58.1676 401.088 58.1676 401.088 57.4313 400.448C55.3782 398.653 53.377 396.847 51.4631 394.903C52.7119 393.405 53.9606 391.906 55.2472 390.362C59.5804 393.586 63.8596 396.873 68.113 400.201C70.9517 398.069 73.1694 395.818 75.3973 393.058C75.969 392.357 76.5407 391.656 77.1297 390.933C78.566 389.037 79.8021 387.129 80.9788 385.065C80.6349 384.778 80.291 384.492 79.9367 384.197C78.3862 382.901 76.8444 381.594 75.3027 380.287C74.7612 379.837 74.2198 379.387 73.6619 378.923C73.1498 378.486 72.6376 378.05 72.1099 377.6C71.6343 377.2 71.1587 376.799 70.6687 376.387C69.6266 375.226 69.6266 375.226 69.6266 372.956C70.7618 371.3 70.7618 371.3 71.897 369.928Z" fill="#7B0003"/>
    <path d="M606.963 854.288C609.137 854.402 609.949 855.006 611.536 856.508C612.072 857.133 612.607 857.758 613.159 858.403C613.757 859.091 614.355 859.778 614.971 860.487C615.575 861.188 616.179 861.89 616.801 862.613C617.901 863.846 619.005 865.075 620.112 866.302C620.669 866.922 621.226 867.543 621.8 868.182C623.102 869.618 624.411 871.044 625.732 872.463C629.564 876.586 633.209 880.722 636.478 885.317C635.23 886.566 633.981 887.814 632.694 889.101C629.813 887.936 628.2 886.166 626.167 883.851C625.579 883.188 624.992 882.526 624.387 881.843C622.856 880.019 622.856 880.019 621.342 877.749C618.644 878.911 616.772 880.537 614.625 882.526C611.874 885.05 609.098 887.498 606.206 889.858C607.644 893.453 610.507 895.965 613.159 898.687C616.044 901.729 616.044 901.729 616.044 904.237C613.774 905.893 613.774 905.893 611.503 907.264C608.33 904.178 605.324 901.006 602.434 897.653C600.571 895.528 598.66 893.449 596.746 891.371C592.037 886.247 587.449 881.22 583.501 875.478C584.75 874.479 585.999 873.48 587.286 872.451C592.986 875.009 596.93 880.661 600.908 885.317C604.533 883.397 607.279 880.787 610.226 877.985C610.715 877.526 611.203 877.067 611.706 876.594C612.903 875.469 614.096 874.339 615.288 873.208C614.348 870.51 613.41 868.805 611.314 866.87C608.653 864.331 606.295 861.649 603.935 858.828C604.807 856.961 605.485 855.765 606.963 854.288Z" fill="#7B0003"/>
    <path d="M688.698 416.851C690.023 418.553 690.023 418.553 690.969 420.635C690.103 423.172 688.98 424.195 686.658 425.448C686.117 425.745 685.576 426.043 685.018 426.349C684.453 426.649 683.888 426.948 683.306 427.257C682.735 427.568 682.165 427.879 681.577 428.2C680.17 428.965 678.759 429.72 677.346 430.473C677.936 431.502 677.936 431.502 678.537 432.552C681.453 437.643 684.356 442.739 687.185 447.88C688.253 447.251 688.253 447.251 689.343 446.609C690.295 446.055 691.246 445.501 692.199 444.947C692.666 444.671 693.133 444.395 693.615 444.111C696.449 442.47 699.156 441.237 702.321 440.312C704.601 442.866 704.601 442.866 704.561 444.78C703.443 447.222 701.668 447.923 699.359 449.237C698.903 449.5 698.447 449.763 697.977 450.034C696.497 450.886 695.01 451.724 693.523 452.563C692.512 453.141 691.502 453.721 690.493 454.301C688.516 455.437 686.537 456.569 684.557 457.699C680.479 460.031 676.475 462.481 672.468 464.932C670.535 466.043 670.535 466.043 668.264 466.8C665.994 462.449 665.994 462.449 665.994 460.746C667.383 459.776 667.383 459.776 669.305 458.691C669.988 458.296 670.671 457.902 671.374 457.495C672.832 456.667 674.29 455.841 675.75 455.018C676.433 454.622 677.116 454.227 677.819 453.819C678.453 453.46 679.087 453.101 679.741 452.731C680.199 452.379 680.658 452.027 681.13 451.664C681.13 449.001 680.517 448.107 679.144 445.861C678.734 445.185 678.324 444.51 677.902 443.814C677.469 443.111 677.036 442.408 676.589 441.684C676.156 440.972 675.723 440.26 675.277 439.527C674.205 437.768 673.129 436.011 672.048 434.257C667.17 436.882 662.367 439.572 657.666 442.505C656.155 443.339 656.155 443.339 654.642 443.339C653.097 441.14 652.371 440.008 652.371 437.285C652.793 437.045 653.215 436.806 653.65 436.559C663.161 431.157 672.62 425.691 681.94 419.964C682.625 419.545 683.31 419.127 684.016 418.695C684.889 418.155 684.889 418.155 685.78 417.605C687.185 416.851 687.185 416.851 688.698 416.851Z" fill="#7B0003"/>
    <path d="M93.8446 347.224C98.7879 348.757 103.465 350.654 108.168 352.808C108.857 353.121 109.545 353.433 110.255 353.755C112.433 354.744 114.609 355.738 116.785 356.731C118.26 357.401 119.735 358.071 121.21 358.74C123.903 359.964 126.597 361.189 129.289 362.418C129.826 362.663 130.363 362.909 130.917 363.161C132.449 363.877 133.961 364.625 135.469 365.387C134.491 367.57 133.457 369.075 131.685 370.685C128.27 369.634 125.151 368.264 121.959 366.679C119.949 366.018 119.236 366.03 117.306 366.901C115.37 368.59 115.37 368.59 113.474 370.638C111.511 372.69 109.834 374.405 107.467 375.983C107.605 376.395 107.742 376.808 107.884 377.233C109.259 381.357 110.633 385.481 112.008 389.605C108.413 392.633 108.413 392.633 106.71 392.633C105.068 388.745 103.426 384.858 101.786 380.969C101.23 379.652 100.674 378.334 100.118 377.017C98.5192 373.235 96.9315 369.449 95.3523 365.659C94.6271 363.935 93.8849 362.219 93.1388 360.504C92.7056 359.484 92.2727 358.464 91.8403 357.444C91.4585 356.562 91.0766 355.679 90.6833 354.77C90.0606 352.522 90.0606 352.522 90.5643 350.842C91.5655 349.506 92.6542 348.391 93.8446 347.224ZM97.6287 354.792C99.3992 360.595 101.827 365.971 104.44 371.442C105.248 370.785 106.051 370.121 106.852 369.455C107.3 369.087 107.748 368.718 108.209 368.338C110.181 366.485 111.817 364.462 113.522 362.36C111.159 361.094 108.793 359.834 106.427 358.576C105.753 358.215 105.08 357.854 104.387 357.482C103.743 357.141 103.099 356.799 102.436 356.448C101.841 356.131 101.247 355.814 100.634 355.487C99.1879 354.686 99.1879 354.686 97.6287 354.792Z" fill="#7B0003"/>
    <path d="M715.943 468.314C717.173 470.395 717.173 470.395 718.214 472.855C717.538 475.19 716.087 476.711 714.436 478.46C713.739 479.2 713.739 479.2 713.029 479.955C712.523 480.484 712.018 481.013 711.497 481.558C710.973 482.111 710.449 482.665 709.909 483.235C704.823 488.572 699.606 493.778 694.357 498.954C693.74 499.565 693.124 500.175 692.488 500.803C691.939 501.344 691.39 501.884 690.824 502.441C689.326 503.938 689.326 503.938 687.941 506.154C685.671 505.398 685.671 505.398 684.725 503.647C684.091 501.376 684.053 500.741 684.914 498.586C686.644 496.635 686.644 496.635 688.745 494.613C689.441 493.938 690.137 493.263 690.853 492.567C691.391 492.056 691.928 491.545 692.482 491.018C690.842 485.753 688.767 480.877 686.428 475.882C681.932 475.882 677.437 475.882 672.805 475.882C671.292 472.098 671.292 472.098 671.292 469.827C675.704 469.608 680.117 469.393 684.53 469.181C686.026 469.108 687.521 469.035 689.017 468.961C698.001 468.514 706.947 468.197 715.943 468.314ZM704.588 473.677C703.748 473.726 703.748 473.726 702.89 473.777C702.023 473.836 702.023 473.836 701.138 473.895C700.267 473.945 700.267 473.945 699.378 473.996C696.936 474.149 694.813 474.348 692.482 475.125C693.723 479.085 695.047 482.808 697.023 486.477C702.119 482.976 706.362 478.81 710.646 474.368C708.535 473.759 706.778 473.544 704.588 473.677Z" fill="#7B0003"/>
    <path d="M271.695 253.379C272.532 256.233 273.367 259.087 274.202 261.941C274.553 263.136 274.553 263.136 274.91 264.355C275.61 266.749 276.303 269.146 276.993 271.543C277.213 272.3 277.434 273.056 277.661 273.836C279.398 279.954 280.992 286.37 277.844 292.308C274.917 296.346 270.229 298.016 265.641 299.545C256.134 300.258 256.134 300.258 252.018 297.274C246.705 291.961 245.041 283.974 243.149 276.955C242.744 275.457 242.329 273.962 241.914 272.467C239.909 265.131 239.909 265.131 239.909 261.704C241.657 261.205 243.406 260.705 245.207 260.191C247.77 266.563 249.45 273.173 251.224 279.8C251.478 280.714 251.731 281.628 251.992 282.57C252.215 283.395 252.438 284.221 252.668 285.071C253.819 288.222 255.265 291.069 258.055 293.026C261.739 294.143 265.505 293.074 268.999 291.74C271.116 290.346 271.797 289.859 272.452 287.436C272.645 283.145 272.165 279.533 270.935 275.407C270.706 274.596 270.706 274.596 270.472 273.769C269.988 272.063 269.495 270.36 268.999 268.658C268.501 266.941 268.006 265.225 267.518 263.505C267.216 262.441 266.908 261.377 266.594 260.316C265.886 257.826 265.559 256.652 266.398 254.136C268.272 253.449 269.679 253.379 271.695 253.379Z" fill="#7B0003"/>
    <path d="M706.105 635.569C710.06 636.025 713.305 637.895 716.795 639.684C717.457 640.02 718.118 640.355 718.8 640.7C728.023 645.391 737.187 650.19 746.216 655.246C746.216 657.494 746.216 659.742 746.216 662.057C740.829 663.64 735.441 665.219 730.052 666.794C727.55 667.525 725.048 668.258 722.546 668.993C719.671 669.838 716.795 670.678 713.918 671.518C713.02 671.782 712.121 672.047 711.195 672.32C710.362 672.563 709.528 672.805 708.67 673.055C707.936 673.27 707.201 673.485 706.444 673.707C704.591 674.166 704.591 674.166 702.321 674.166C702.571 671.919 702.82 669.671 703.078 667.355C704.795 666.847 706.514 666.343 708.233 665.842C709.19 665.561 710.147 665.28 711.134 664.99C713.673 664.328 713.673 664.328 715.943 664.328C716.012 663.204 716.012 663.204 716.082 662.057C716.401 656.991 716.739 651.95 717.457 646.921C716.848 646.75 716.24 646.578 715.612 646.401C712.225 645.153 709.217 643.436 706.105 641.624C706.105 639.626 706.105 637.628 706.105 635.569ZM722.755 649.949C721.604 652.25 721.715 654.703 721.572 657.233C721.463 659.075 721.354 660.917 721.241 662.814C730.607 660.567 730.607 660.567 740.161 658.273C738.224 656.982 736.471 656.064 734.358 655.122C733.683 654.82 733.007 654.517 732.311 654.206C731.608 653.893 730.905 653.581 730.181 653.26C729.469 652.942 728.758 652.623 728.024 652.296C726.269 651.512 724.512 650.729 722.755 649.949Z" fill="#7B0003"/>
    <path d="M423.058 247.325C425.056 247.575 427.054 247.824 429.112 248.082C428.533 254.424 427.241 260.54 425.879 266.755C424.872 271.564 423.863 276.459 424.571 281.381C426.832 284.573 429.109 285.846 432.896 286.679C436.174 286.905 438.425 286.924 441.221 285.165C445.217 279.715 445.83 271.537 447.086 265.063C447.327 263.854 447.569 262.645 447.811 261.437C448.398 258.5 448.974 255.562 449.546 252.623C451.544 252.872 453.542 253.122 455.601 253.379C455.056 259.414 453.927 265.279 452.715 271.212C452.527 272.177 452.34 273.142 452.146 274.137C450.631 281.565 449.159 287.466 442.735 291.977C436.888 293.926 430.253 293.258 424.695 290.723C421.307 288.62 419.017 285.91 417.76 282.138C417.14 274.873 418.524 267.966 419.983 260.9C420.196 259.831 420.409 258.761 420.62 257.691C422.142 250.071 422.142 250.071 423.058 247.325Z" fill="#7C0004"/>
    <path d="M485.131 932.292C487.338 933.328 488.572 934.86 490.177 936.685C490.508 937.059 490.839 937.432 491.18 937.817C493.937 940.953 496.552 944.202 499.173 947.452C501.272 949.96 503.464 952.361 505.692 954.754C506.08 955.172 506.469 955.589 506.869 956.019C507.244 956.422 507.62 956.825 508.007 957.241C514.632 964.356 514.632 964.356 514.632 966.296C512.634 967.045 510.636 967.794 508.577 968.566C500.466 959.184 492.786 949.569 485.116 939.807C484.866 952.295 484.616 964.782 484.359 977.648C482.361 978.147 480.363 978.647 478.305 979.161C478.396 974.884 478.49 970.607 478.586 966.329C478.619 964.881 478.65 963.432 478.681 961.984C478.881 952.559 479.226 943.161 479.818 933.753C483.411 932.232 483.411 932.232 485.131 932.292Z" fill="#7B0003"/>
    <path d="M624.369 835.367C627.957 837.609 630.924 840.154 633.971 843.077C638.433 847.292 643.031 851.216 647.83 855.044C649.35 856.299 650.861 857.563 652.371 858.828C655.342 855.933 658.185 853.062 660.696 849.747C663.329 850.8 664.087 851.739 665.237 854.288C664.588 854.982 663.94 855.677 663.271 856.392C657.22 862.875 657.22 862.875 651.337 869.51C648.937 872.283 646.486 875.011 644.046 877.749C642.798 877.249 641.549 876.75 640.262 876.235C640.262 872.81 640.535 872.564 642.769 870.228C644.775 868.056 646.435 865.997 647.83 863.369C647.428 863.208 647.027 863.047 646.612 862.882C644.106 861.46 642.147 859.524 640.073 857.551C639.19 856.723 638.306 855.895 637.421 855.068C636.997 854.67 636.572 854.272 636.135 853.862C634.267 852.126 632.343 850.457 630.415 848.789C627.356 846.12 624.354 843.387 621.342 840.665C622.253 838.778 623.199 837.122 624.369 835.367Z" fill="#7B0003"/>
    <path d="M313.32 245.055C314.833 247.325 314.833 247.325 314.833 251.109C310.588 251.858 306.342 252.607 301.968 253.379C302.208 254.834 302.208 254.834 302.454 256.319C303.049 259.918 303.64 263.517 304.231 267.117C304.487 268.675 304.744 270.233 305.002 271.79C305.372 274.029 305.74 276.268 306.106 278.508C306.222 279.204 306.338 279.9 306.458 280.618C306.617 281.595 306.617 281.595 306.779 282.591C306.873 283.163 306.967 283.734 307.064 284.323C307.265 285.922 307.265 285.922 307.265 288.95C305.267 289.199 303.269 289.449 301.211 289.706C300.47 285.478 299.729 281.25 298.989 277.022C298.737 275.585 298.485 274.148 298.234 272.71C297.871 270.64 297.508 268.57 297.146 266.499C297.034 265.861 296.922 265.222 296.807 264.564C296.243 261.342 295.688 258.12 295.156 254.893C294.236 255.011 293.316 255.129 292.369 255.251C291.169 255.4 289.97 255.549 288.771 255.697C288.163 255.776 287.556 255.854 286.93 255.935C285.387 256.124 283.839 256.269 282.291 256.407C282.041 256.157 281.791 255.907 281.534 255.65C281.534 253.902 281.534 252.153 281.534 250.352C292.023 248.604 302.513 246.856 313.32 245.055Z" fill="#7C0004"/>
    <path d="M379.919 242.784C383.81 243.091 387.701 243.401 391.592 243.713C392.914 243.818 394.236 243.923 395.558 244.027C397.465 244.178 399.372 244.331 401.278 244.484C401.864 244.53 402.449 244.575 403.052 244.623C406.466 244.899 409.833 245.292 413.219 245.811C413.251 247.325 413.25 248.839 413.219 250.352C412.462 251.109 412.462 251.109 411.138 251.209C406.983 251.195 402.962 250.876 398.839 250.352C398.862 251.321 398.884 252.29 398.907 253.288C398.906 258.776 398.393 264.221 397.911 269.684C397.75 271.51 397.596 273.336 397.443 275.163C397.342 276.328 397.241 277.493 397.14 278.659C397.094 279.203 397.048 279.747 397.001 280.307C396.798 282.566 396.533 284.518 395.812 286.679C393.814 286.429 391.816 286.18 389.758 285.922C390.757 273.934 391.756 261.947 392.785 249.595C388.539 249.346 384.294 249.096 379.919 248.839C379.919 246.841 379.919 244.843 379.919 242.784Z" fill="#7C0004"/>
    <path d="M564.584 890.904C566.843 892.735 568.141 895.095 569.595 897.568C570.264 898.671 570.934 899.774 571.605 900.876C571.946 901.437 572.286 901.997 572.637 902.575C574.211 905.125 575.869 907.616 577.542 910.102C577.852 910.565 578.162 911.027 578.482 911.503C579.095 912.416 579.709 913.328 580.324 914.24C581.8 916.435 583.265 918.638 584.731 920.84C585.225 921.58 585.719 922.321 586.227 923.084C586.577 923.607 586.926 924.131 587.286 924.671C585.536 926.563 585.536 926.563 583.502 928.455C582.752 928.455 582.003 928.455 581.231 928.455C580.121 927.107 580.121 927.107 578.958 925.212C578.525 924.518 578.093 923.824 577.647 923.109C577.191 922.36 576.735 921.611 576.265 920.84C575.315 919.313 574.364 917.786 573.412 916.26C572.943 915.505 572.474 914.749 571.991 913.97C570.137 911.008 568.225 908.089 566.284 905.183C565.824 904.488 565.824 904.488 565.354 903.779C564.178 902.019 563.055 900.44 561.554 898.939C556.309 902.436 551.065 905.932 545.661 909.535C542.634 906.508 542.634 906.508 541.877 904.237C543.125 903.428 543.125 903.428 544.399 902.602C544.937 902.253 545.475 901.904 546.03 901.545C547.206 900.783 548.384 900.024 549.562 899.266C552.178 897.582 554.786 895.897 557.344 894.127C558.062 893.639 558.78 893.151 559.52 892.648C560.142 892.214 560.763 891.78 561.403 891.333C563.068 890.615 563.068 890.615 564.584 890.904Z" fill="#7B0003"/>
    <path d="M641.019 815.69C645.626 818.672 650.01 821.838 654.311 825.245C657.842 828.031 661.378 830.796 665.027 833.428C665.588 833.835 666.149 834.242 666.727 834.662C667.795 835.433 668.868 836.196 669.948 836.951C671.392 837.998 671.392 837.998 673.562 839.908C673.562 842.935 673.562 842.935 672.048 844.638C671.549 845.075 671.049 845.512 670.535 845.963C662.634 840.204 654.797 834.382 647.114 828.335C643.88 825.794 640.6 823.353 637.235 820.988C640.168 816.542 640.168 816.542 641.019 815.69Z" fill="#7B0003"/>
    <path d="M511.604 272.3C514.462 272.686 515.727 273.214 517.659 275.327C515.761 279.865 513.862 284.402 511.963 288.94C511.318 290.482 510.673 292.024 510.028 293.566C509.098 295.789 508.168 298.011 507.238 300.234C506.952 300.918 506.665 301.603 506.371 302.308C504.852 305.935 503.321 309.556 501.766 313.167C499.986 312.714 498.22 312.207 496.468 311.654C496.218 311.154 495.969 310.655 495.711 310.14C496.402 308.184 497.145 306.309 497.961 304.405C498.203 303.828 498.446 303.25 498.695 302.655C499.477 300.796 500.267 298.941 501.056 297.085C501.569 295.869 502.081 294.653 502.592 293.437C505.565 286.378 508.579 279.336 511.604 272.3Z" fill="#7B0003"/>
    <path d="M606.206 337.385C608.476 338.142 608.476 338.142 608.476 338.142L606.206 337.385Z" fill="#2A0000"/>
    <g filter="url(#filter0_n_2_44)">
        <path fill-rule="evenodd" clip-rule="evenodd" d="M359.75 113.613C362.51 117.557 363.5 124.807 363.5 124.807L365.75 151.722L374.5 147.911C374.5 147.911 372.781 139.729 372 134.335C371.219 128.94 370.5 120.282 370.5 120.282C370.5 120.282 370.719 108.794 371.5 104.562C372.281 100.33 374.5 98.6073 374.5 98.6073C374.5 98.6073 387.396 93.0615 394.25 87.1745C404.638 78.251 410.499 69.7873 412.499 57.64C413.79 49.8027 412.499 33.5836 412.499 33.5836L406 14.0527C406 14.0527 396.859 16.2684 391.5 18.8164C387.5 20.718 369.616 30.7437 362.5 49.78C356.942 64.6468 366.25 84.0782 366.25 86.6982C366.25 91.8149 365.5 100.513 365.5 100.513C365.5 100.513 362.503 82.9634 356 73.8364C351.075 66.9251 347.65 62.9112 340 58.8309C333.937 55.5974 329.903 54.5833 323 53.8291C318.732 53.3628 312 53.8291 312 53.8291C312 53.8291 311.27 62.5826 312 68.12C313.629 80.4807 316.174 88.4478 325.25 97.4164C330.926 103.025 335.339 105.079 342.75 108.373C349.073 111.183 358.25 111.469 359.75 113.613ZM358.25 98.1309C361.929 103.892 366 112.898 366 112.898C366 112.898 354.75 98.1309 350.25 95.5109C343.267 91.4456 330.75 89.1395 331.5 89.08L331.573 89.0742C333.943 88.8861 334.402 88.8498 337.75 89.3182C341.359 89.8231 348.5 91.7 348.5 91.7C348.5 91.7 340.561 83.446 335.75 78.3618C331.396 73.7606 325 67.6436 325 66.9291C325 66.322 331.25 70.7243 335.25 73.5982C338.733 76.101 344.25 80.5055 344.25 80.5055L343.25 73.1218C343.25 73.1218 347.833 84.3164 348.5 85.2691C350.5 88.1273 354.991 93.0292 358.25 98.1309ZM379.5 84.5545C374.739 88.8069 369.25 96.4636 369.25 96.4636C369.25 96.4636 369.844 89.0491 371 84.3164C372.134 79.672 375 72.6455 375 72.6455C375 72.6455 377.01 67.9587 377.5 64.7855C377.983 61.6566 377.646 59.8498 377.5 56.6873C377.353 53.5247 376.75 48.5891 376.75 48.5891C376.75 48.5891 377.967 52.3292 378.5 54.7818C379.059 57.3582 379.5 61.4509 379.5 61.4509L383.25 52.6382L388.5 42.6345L400.5 24.0564L387.5 56.6873C387.5 56.6873 392.567 52.8126 395.75 50.2564C398.713 47.8763 403.25 43.8255 403.25 44.0636C403.25 44.3018 401.511 47.1475 399.25 50.0182C394.767 55.7083 383.75 63.5945 383.75 63.5945C383.75 63.5945 380.896 69.3418 379.5 73.1218C378.177 76.702 376.5 82.4109 376.5 82.4109C376.5 82.4109 384.19 77.0428 389 74.5509C392.644 72.6631 398.25 69.7873 398.25 69.7873C398.25 69.7873 396.291 71.4541 393 74.0745C388.998 77.2606 383.5 80.9818 379.5 84.5545Z" fill="#384C2F"/>
        <path d="M324.25 127.665C314 124.807 280.57 108.849 280.57 108.849C282.292 117.871 285.384 126.435 289.634 134.335C289.634 134.335 320.25 150.293 334 153.151C353.5 157.204 365.75 151.722 365.75 151.722L363.5 124.807C363.5 124.807 337.081 131.243 324.25 127.665Z" fill="#9F773F"/>
        <path d="M412.499 92.1764C403 97.4164 370.5 120.282 370.5 120.282C370.5 120.282 371.219 128.94 372 134.335C372.781 139.729 374.5 147.911 374.5 147.911C374.5 147.911 390.672 139.223 400.25 131.238C410.249 122.902 417.529 115.367 431.499 110.516C440.91 107.249 446.761 105.516 456.749 106.229C461.992 106.604 469.929 108.849 469.929 108.849C470.96 103.442 471.499 97.8692 471.499 92.1764C471.499 91.1402 471.535 90.1079 471.499 89.08C471.499 89.08 462.632 86.1049 456.749 85.2691C428.249 81.22 421.999 86.9364 412.499 92.1764Z" fill="#9F773F"/>
        <path d="M374.5 147.911L365.75 151.722C365.75 151.722 353.5 157.204 334 153.151C320.25 150.293 289.634 134.335 289.634 134.335C302.064 157.439 324.392 174.862 351.25 181.464C351.25 181.464 368.453 179.055 378.5 174.825C388.308 170.696 392.691 166.361 401.5 160.535C411.701 153.787 415.692 147.326 426.999 142.433C435.388 138.803 440.565 137.172 449.749 136.478C453.613 136.186 459.674 136.478 459.674 136.478C464.54 127.993 468.051 118.694 469.929 108.849C469.929 108.849 461.992 106.604 456.749 106.229C446.761 105.516 440.91 107.249 431.499 110.516C417.529 115.367 410.249 122.902 400.25 131.238C390.672 139.223 374.5 147.911 374.5 147.911Z" fill="#727643"/>
        <path d="M369.25 96.4636C369.25 96.4636 374.739 88.8069 379.5 84.5545C383.5 80.9818 388.998 77.2606 393 74.0745C396.291 71.4541 398.25 69.7873 398.25 69.7873C398.25 69.7873 392.644 72.6631 389 74.5509C384.19 77.0428 376.5 82.4109 376.5 82.4109C376.5 82.4109 378.177 76.702 379.5 73.1218C380.896 69.3418 383.75 63.5945 383.75 63.5945C383.75 63.5945 394.767 55.7083 399.25 50.0182C401.511 47.1475 403.25 44.3018 403.25 44.0636C403.25 43.8255 398.713 47.8763 395.75 50.2564C392.567 52.8126 387.5 56.6873 387.5 56.6873L400.5 24.0564L388.5 42.6345L383.25 52.6382L379.5 61.4509C379.5 61.4509 379.059 57.3582 378.5 54.7818C377.967 52.3292 376.75 48.5891 376.75 48.5891C376.75 48.5891 377.353 53.5247 377.5 56.6873C377.646 59.8498 377.983 61.6566 377.5 64.7855C377.01 67.9587 375 72.6455 375 72.6455C375 72.6455 372.134 79.672 371 84.3164C369.844 89.0491 369.25 96.4636 369.25 96.4636Z" fill="#727643"/>
        <path d="M366 112.898C366 112.898 361.929 103.892 358.25 98.1309C354.991 93.0292 350.5 88.1273 348.5 85.2691C347.833 84.3164 343.25 73.1218 343.25 73.1218L344.25 80.5055C344.25 80.5055 338.733 76.101 335.25 73.5982C331.25 70.7243 325 66.322 325 66.9291C325 67.6436 331.396 73.7606 335.75 78.3618C340.561 83.446 348.5 91.7 348.5 91.7C348.5 91.7 341.359 89.8231 337.75 89.3182C334.402 88.8498 333.943 88.8861 331.573 89.0742L331.5 89.08C330.75 89.1395 343.267 91.4456 350.25 95.5109C354.75 98.1309 366 112.898 366 112.898Z" fill="#727643"/>
        <path d="M375.25 184.353C411.64 184.353 443.314 165.012 459.674 136.478C459.674 136.478 453.613 136.186 449.749 136.478C440.565 137.172 435.388 138.803 426.999 142.433C415.692 147.326 411.701 153.787 401.5 160.535C392.691 166.361 388.308 170.696 378.5 174.825C368.453 179.055 351.25 181.464 351.25 181.464C358.922 183.35 366.963 184.353 375.25 184.353Z" fill="#384C2F"/>
        <path d="M375.25 0C322.092 0 279 41.2688 279 92.1764C279 97.8692 279.539 103.442 280.57 108.849C280.57 108.849 314 124.807 324.25 127.665C337.081 131.243 363.5 124.807 363.5 124.807C363.5 124.807 362.51 117.557 359.75 113.613C358.25 111.469 349.073 111.183 342.75 108.373C335.339 105.079 330.926 103.025 325.25 97.4164C316.174 88.4478 313.629 80.4807 312 68.12C311.27 62.5826 312 53.8291 312 53.8291C312 53.8291 318.732 53.3628 323 53.8291C329.903 54.5833 333.937 55.5974 340 58.8309C347.65 62.9112 351.075 66.9251 356 73.8364C362.503 82.9634 365.5 100.513 365.5 100.513C365.5 100.513 366.25 91.8149 366.25 86.6982C366.25 84.0782 356.942 64.6468 362.5 49.78C369.616 30.7437 387.5 20.718 391.5 18.8164C396.859 16.2684 406 14.0527 406 14.0527L412.499 33.5836C412.499 33.5836 413.79 49.8027 412.499 57.64C410.499 69.7873 404.638 78.251 394.25 87.1745C387.396 93.0615 374.5 98.6073 374.5 98.6073C374.5 98.6073 372.281 100.33 371.5 104.562C370.719 108.794 370.5 120.282 370.5 120.282C370.5 120.282 403 97.4164 412.499 92.1764C421.999 86.9364 428.249 81.22 456.749 85.2691C462.632 86.1049 471.499 89.08 471.499 89.08C469.794 39.6058 427.325 0 375.25 0Z" fill="#E1C38E"/>
    </g>
        <path d="M286.092 208.687C285.388 208.687 284.851 208.598 284.482 208.421C284.12 208.243 283.874 207.952 283.744 207.549C283.621 207.146 283.559 206.609 283.559 205.939V196.731C283.559 196.048 283.621 195.508 283.744 195.111C283.874 194.708 284.12 194.421 284.482 194.25C284.851 194.072 285.388 193.983 286.092 193.983H290.911C291.075 193.983 291.198 194.01 291.28 194.065C291.458 194.188 291.643 194.335 291.834 194.506C292.026 194.677 292.227 194.882 292.439 195.121C292.507 195.21 292.542 195.282 292.542 195.337C292.542 195.398 292.507 195.467 292.439 195.542C292.227 195.781 292.026 195.986 291.834 196.157C291.643 196.328 291.458 196.475 291.28 196.598C291.185 196.653 291.062 196.68 290.911 196.68H288.04C287.589 196.68 287.281 196.776 287.117 196.967C286.953 197.158 286.871 197.487 286.871 197.951V199.941H290.552C290.716 199.941 290.839 199.968 290.922 200.023C291.099 200.146 291.284 200.293 291.475 200.464C291.667 200.635 291.868 200.84 292.08 201.079C292.149 201.168 292.183 201.24 292.183 201.294C292.183 201.356 292.149 201.424 292.08 201.499C291.868 201.739 291.667 201.944 291.475 202.115C291.284 202.285 291.099 202.432 290.922 202.555C290.826 202.61 290.703 202.637 290.552 202.637H286.871V204.709C286.871 205.167 286.953 205.495 287.117 205.693C287.281 205.891 287.589 205.99 288.04 205.99H291.25C291.414 205.99 291.537 206.018 291.619 206.073C291.797 206.196 291.981 206.343 292.172 206.513C292.364 206.684 292.566 206.889 292.777 207.129C292.846 207.218 292.88 207.289 292.88 207.344C292.88 207.406 292.846 207.474 292.777 207.549C292.566 207.788 292.364 207.993 292.172 208.164C291.981 208.335 291.797 208.482 291.619 208.605C291.523 208.66 291.4 208.687 291.25 208.687H286.092ZM302.96 194.793C303.336 195.32 303.718 196 304.108 196.834C304.505 197.661 304.887 198.57 305.256 199.561C305.626 200.552 305.957 201.568 306.251 202.607C306.552 203.639 306.798 204.634 306.989 205.591C307.181 206.548 307.29 207.399 307.317 208.144C307.324 208.506 307.16 208.687 306.825 208.687H304.344C304.023 208.687 303.855 208.527 303.841 208.205C303.814 207.44 303.691 206.51 303.472 205.416H297.874C297.682 206.483 297.573 207.412 297.546 208.205C297.532 208.527 297.358 208.687 297.023 208.687H294.592C294.469 208.687 294.367 208.653 294.285 208.585C294.203 208.51 294.165 208.383 294.172 208.205C294.206 207.447 294.316 206.585 294.5 205.621C294.692 204.651 294.938 203.646 295.238 202.607C295.539 201.568 295.874 200.552 296.243 199.561C296.612 198.563 296.995 197.651 297.392 196.823C297.788 195.996 298.174 195.32 298.55 194.793C298.749 194.513 298.957 194.308 299.176 194.178C299.401 194.048 299.678 193.983 300.006 193.983H301.483C301.818 193.983 302.098 194.048 302.324 194.178C302.549 194.308 302.761 194.513 302.96 194.793ZM300.642 197.223C300.191 197.941 299.777 198.799 299.401 199.797C299.026 200.795 298.701 201.821 298.427 202.873H302.878C302.59 201.821 302.259 200.795 301.883 199.797C301.507 198.799 301.114 197.941 300.704 197.223H300.642ZM313.039 208.144C313.039 208.349 312.995 208.492 312.906 208.574C312.824 208.65 312.68 208.687 312.475 208.687H310.291C310.086 208.687 309.939 208.65 309.85 208.574C309.768 208.492 309.727 208.349 309.727 208.144V196.731C309.727 196.048 309.789 195.508 309.912 195.111C310.042 194.708 310.288 194.421 310.65 194.25C311.019 194.072 311.556 193.983 312.26 193.983H314.977C318.546 193.983 320.33 195.354 320.33 198.095C320.33 198.929 320.19 199.613 319.909 200.146C319.629 200.679 319.28 201.096 318.863 201.397C318.446 201.691 318.036 201.913 317.633 202.063V202.115C318.091 202.415 318.525 202.812 318.935 203.304C319.352 203.789 319.728 204.319 320.063 204.893C320.398 205.461 320.682 206.025 320.914 206.585C321.147 207.139 321.307 207.635 321.396 208.072C321.437 208.277 321.437 208.431 321.396 208.533C321.362 208.636 321.246 208.687 321.047 208.687H318.679C318.501 208.687 318.344 208.65 318.207 208.574C318.077 208.499 317.958 208.325 317.848 208.052C317.329 206.746 316.731 205.683 316.054 204.863C315.377 204.035 314.724 203.372 314.095 202.873C313.692 202.552 313.49 202.323 313.49 202.186C313.49 202.077 313.555 201.927 313.685 201.735C313.767 201.619 313.887 201.479 314.044 201.315C314.201 201.151 314.338 201.028 314.454 200.946C314.57 200.864 314.663 200.812 314.731 200.792C314.806 200.771 314.919 200.761 315.069 200.761C315.575 200.761 315.996 200.587 316.331 200.238C316.672 199.889 316.843 199.339 316.843 198.587C316.843 197.876 316.662 197.357 316.3 197.029C315.944 196.694 315.452 196.526 314.823 196.526H314.208C313.757 196.526 313.449 196.622 313.285 196.813C313.121 197.005 313.039 197.333 313.039 197.798V208.144ZM329.476 208.144C329.476 208.349 329.432 208.492 329.343 208.574C329.261 208.65 329.117 208.687 328.912 208.687H326.728C326.523 208.687 326.376 208.65 326.287 208.574C326.205 208.492 326.164 208.349 326.164 208.144V196.68H323.109C322.944 196.68 322.821 196.653 322.739 196.598C322.562 196.475 322.377 196.328 322.186 196.157C322.001 195.986 321.799 195.781 321.581 195.542C321.512 195.453 321.478 195.381 321.478 195.326C321.478 195.265 321.512 195.197 321.581 195.121C321.799 194.882 322.001 194.677 322.186 194.506C322.377 194.335 322.562 194.188 322.739 194.065C322.835 194.01 322.958 193.983 323.109 193.983H332.542C332.706 193.983 332.829 194.01 332.911 194.065C333.089 194.188 333.274 194.335 333.465 194.506C333.656 194.677 333.858 194.882 334.07 195.121C334.138 195.21 334.172 195.282 334.172 195.337C334.172 195.398 334.138 195.467 334.07 195.542C333.858 195.781 333.656 195.986 333.465 196.157C333.274 196.328 333.089 196.475 332.911 196.598C332.816 196.653 332.692 196.68 332.542 196.68H329.476V208.144ZM345.216 195.624C345.216 195.426 345.25 195.275 345.318 195.173C345.626 194.721 346.057 194.246 346.61 193.747C346.713 193.665 346.802 193.624 346.877 193.624C346.959 193.624 347.045 193.665 347.133 193.747C347.434 194.007 347.687 194.257 347.892 194.496C348.097 194.728 348.275 194.954 348.425 195.173C348.494 195.282 348.528 195.432 348.528 195.624V208.144C348.528 208.349 348.484 208.492 348.395 208.574C348.313 208.65 348.169 208.687 347.964 208.687H345.78C345.575 208.687 345.428 208.65 345.339 208.574C345.257 208.492 345.216 208.349 345.216 208.144V202.699H339.125V208.144C339.125 208.349 339.081 208.492 338.992 208.574C338.91 208.65 338.766 208.687 338.561 208.687H336.377C336.172 208.687 336.025 208.65 335.936 208.574C335.854 208.492 335.813 208.349 335.813 208.144V194.527C335.813 194.322 335.854 194.181 335.936 194.106C336.025 194.024 336.172 193.983 336.377 193.983H338.561C338.766 193.983 338.91 194.024 338.992 194.106C339.081 194.181 339.125 194.322 339.125 194.527V199.848H345.216V195.624ZM360.146 208.687C359.442 208.687 358.905 208.598 358.536 208.421C358.173 208.243 357.927 207.952 357.797 207.549C357.674 207.146 357.613 206.609 357.613 205.939V195.624C357.613 195.426 357.647 195.275 357.715 195.173C358.023 194.721 358.454 194.246 359.007 193.747C359.11 193.665 359.199 193.624 359.274 193.624C359.356 193.624 359.442 193.665 359.53 193.747C359.831 194.007 360.084 194.257 360.289 194.496C360.494 194.728 360.672 194.954 360.822 195.173C360.891 195.282 360.925 195.432 360.925 195.624V204.719C360.925 205.177 361.007 205.505 361.171 205.703C361.335 205.902 361.643 206.001 362.094 206.001L365.242 205.99C365.406 205.99 365.529 206.018 365.611 206.073C365.789 206.196 365.973 206.343 366.165 206.513C366.356 206.684 366.558 206.889 366.77 207.129C366.838 207.218 366.872 207.289 366.872 207.344C366.872 207.406 366.838 207.474 366.77 207.549C366.558 207.788 366.356 207.993 366.165 208.164C365.973 208.335 365.789 208.482 365.611 208.605C365.515 208.66 365.392 208.687 365.242 208.687H360.146ZM371.527 208.144C371.527 208.349 371.483 208.492 371.394 208.574C371.312 208.65 371.169 208.687 370.963 208.687H368.779C368.574 208.687 368.427 208.65 368.338 208.574C368.256 208.492 368.215 208.349 368.215 208.144V195.624C368.215 195.426 368.25 195.275 368.318 195.173C368.626 194.721 369.056 194.246 369.61 193.747C369.713 193.665 369.801 193.624 369.877 193.624C369.959 193.624 370.044 193.665 370.133 193.747C370.434 194.007 370.687 194.257 370.892 194.496C371.097 194.728 371.275 194.954 371.425 195.173C371.493 195.282 371.527 195.432 371.527 195.624V208.144ZM377.946 208.144C377.946 208.349 377.905 208.492 377.823 208.574C377.748 208.65 377.611 208.687 377.413 208.687H375.352C375.161 208.687 375.024 208.65 374.942 208.574C374.86 208.492 374.819 208.349 374.819 208.144V195.152C374.819 194.749 374.898 194.455 375.055 194.27C375.212 194.079 375.489 193.983 375.885 193.983H376.839C377.188 193.983 377.516 194.031 377.823 194.127C378.138 194.216 378.469 194.421 378.818 194.742C379.173 195.063 379.584 195.562 380.048 196.239C380.52 196.909 381.088 197.825 381.751 198.987C382.386 200.094 382.896 200.98 383.278 201.643C383.668 202.306 383.969 202.812 384.181 203.16C384.393 203.509 384.55 203.759 384.652 203.909C384.762 204.059 384.851 204.182 384.919 204.278V195.624C384.919 195.426 384.95 195.275 385.011 195.173C385.305 194.721 385.712 194.246 386.232 193.747C386.334 193.665 386.42 193.624 386.488 193.624C386.563 193.624 386.645 193.665 386.734 193.747C387.014 194.007 387.25 194.257 387.442 194.496C387.64 194.728 387.811 194.954 387.954 195.173C388.016 195.282 388.047 195.432 388.047 195.624V207.836C388.047 208.144 387.988 208.363 387.872 208.492C387.756 208.622 387.544 208.687 387.236 208.687H386.252C385.958 208.687 385.657 208.639 385.35 208.544C385.042 208.441 384.693 208.216 384.304 207.867C383.914 207.511 383.453 206.961 382.92 206.216C382.386 205.471 381.744 204.452 380.992 203.16C380.356 202.06 379.847 201.185 379.464 200.535C379.088 199.886 378.801 199.397 378.603 199.069C378.404 198.734 378.261 198.502 378.172 198.372C378.083 198.235 378.008 198.133 377.946 198.064V208.144ZM393.86 208.687C393.156 208.687 392.62 208.598 392.251 208.421C391.888 208.243 391.642 207.952 391.512 207.549C391.389 207.146 391.328 206.609 391.328 205.939V196.731C391.328 196.048 391.389 195.508 391.512 195.111C391.642 194.708 391.888 194.421 392.251 194.25C392.62 194.072 393.156 193.983 393.86 193.983H398.68C398.844 193.983 398.967 194.01 399.049 194.065C399.227 194.188 399.411 194.335 399.603 194.506C399.794 194.677 399.996 194.882 400.208 195.121C400.276 195.21 400.31 195.282 400.31 195.337C400.31 195.398 400.276 195.467 400.208 195.542C399.996 195.781 399.794 195.986 399.603 196.157C399.411 196.328 399.227 196.475 399.049 196.598C398.953 196.653 398.83 196.68 398.68 196.68H395.809C395.358 196.68 395.05 196.776 394.886 196.967C394.722 197.158 394.64 197.487 394.64 197.951V199.941H398.321C398.485 199.941 398.608 199.968 398.69 200.023C398.868 200.146 399.052 200.293 399.244 200.464C399.435 200.635 399.637 200.84 399.849 201.079C399.917 201.168 399.951 201.24 399.951 201.294C399.951 201.356 399.917 201.424 399.849 201.499C399.637 201.739 399.435 201.944 399.244 202.115C399.052 202.285 398.868 202.432 398.69 202.555C398.594 202.61 398.471 202.637 398.321 202.637H394.64V204.709C394.64 205.167 394.722 205.495 394.886 205.693C395.05 205.891 395.358 205.99 395.809 205.99H399.018C399.182 205.99 399.305 206.018 399.387 206.073C399.565 206.196 399.75 206.343 399.941 206.513C400.132 206.684 400.334 206.889 400.546 207.129C400.614 207.218 400.649 207.289 400.649 207.344C400.649 207.406 400.614 207.474 400.546 207.549C400.334 207.788 400.132 207.993 399.941 208.164C399.75 208.335 399.565 208.482 399.387 208.605C399.292 208.66 399.169 208.687 399.018 208.687H393.86ZM416.942 202.802C417.038 202.432 417.14 202.07 417.25 201.715C417.366 201.352 417.506 200.949 417.67 200.505C417.814 200.108 417.988 199.654 418.193 199.141C418.398 198.621 418.613 198.095 418.839 197.562C419.071 197.029 419.297 196.533 419.516 196.075C419.734 195.617 419.933 195.251 420.11 194.978C420.329 194.643 420.565 194.393 420.818 194.229C421.078 194.065 421.457 193.983 421.956 193.983H423.299C423.655 193.983 423.952 194.038 424.192 194.147C424.438 194.25 424.612 194.499 424.714 194.896C424.79 195.19 424.861 195.62 424.93 196.188C424.998 196.755 425.056 197.541 425.104 198.546C425.152 199.551 425.19 200.843 425.217 202.422C425.244 203.994 425.258 205.939 425.258 208.257C425.258 208.38 425.217 208.482 425.135 208.564C425.053 208.646 424.954 208.687 424.838 208.687H422.5C422.383 208.687 422.284 208.646 422.202 208.564C422.12 208.482 422.079 208.376 422.079 208.246C422.079 206.442 422.079 204.91 422.079 203.653C422.079 202.395 422.076 201.352 422.069 200.525C422.062 199.698 422.052 199.042 422.038 198.556C422.031 198.064 422.018 197.685 421.997 197.418H421.936C421.573 198.252 421.187 199.182 420.777 200.207C420.367 201.226 419.967 202.279 419.577 203.365C419.188 204.446 418.839 205.502 418.531 206.534C418.442 206.842 418.33 207.057 418.193 207.18C418.063 207.296 417.762 207.354 417.291 207.354H416.111C415.708 207.354 415.438 207.303 415.301 207.2C415.172 207.098 415.059 206.876 414.963 206.534C414.737 205.755 414.488 204.931 414.214 204.063C413.941 203.195 413.657 202.344 413.363 201.51C413.076 200.669 412.796 199.896 412.523 199.192C412.256 198.481 412.017 197.89 411.805 197.418H411.743C411.689 198.225 411.641 199.206 411.6 200.361C411.559 201.516 411.525 202.771 411.497 204.124C411.477 205.478 411.463 206.859 411.456 208.267C411.456 208.39 411.415 208.492 411.333 208.574C411.251 208.65 411.152 208.687 411.036 208.687H408.934C408.817 208.687 408.718 208.646 408.636 208.564C408.554 208.482 408.513 208.376 408.513 208.246C408.52 204.603 408.592 201.694 408.729 199.52C408.872 197.346 409.026 195.89 409.19 195.152C409.299 194.667 409.491 194.352 409.764 194.209C410.045 194.058 410.362 193.983 410.718 193.983H412.379C412.755 193.983 413.028 194.052 413.199 194.188C413.377 194.318 413.592 194.574 413.845 194.957C413.996 195.183 414.173 195.521 414.379 195.972C414.59 196.424 414.809 196.926 415.035 197.48C415.26 198.027 415.472 198.57 415.671 199.11C415.876 199.643 416.043 200.108 416.173 200.505C416.31 200.908 416.436 201.301 416.552 201.684C416.669 202.06 416.771 202.432 416.86 202.802H416.942ZM436.363 194.793C436.739 195.32 437.122 196 437.511 196.834C437.908 197.661 438.291 198.57 438.66 199.561C439.029 200.552 439.36 201.568 439.654 202.607C439.955 203.639 440.201 204.634 440.393 205.591C440.584 206.548 440.693 207.399 440.721 208.144C440.728 208.506 440.564 208.687 440.229 208.687H437.747C437.426 208.687 437.258 208.527 437.245 208.205C437.217 207.44 437.094 206.51 436.876 205.416H431.277C431.086 206.483 430.976 207.412 430.949 208.205C430.935 208.527 430.761 208.687 430.426 208.687H427.996C427.873 208.687 427.77 208.653 427.688 208.585C427.606 208.51 427.568 208.383 427.575 208.205C427.609 207.447 427.719 206.585 427.903 205.621C428.095 204.651 428.341 203.646 428.642 202.607C428.943 201.568 429.277 200.552 429.647 199.561C430.016 198.563 430.399 197.651 430.795 196.823C431.192 195.996 431.578 195.32 431.954 194.793C432.152 194.513 432.36 194.308 432.579 194.178C432.805 194.048 433.082 193.983 433.41 193.983H434.886C435.221 193.983 435.502 194.048 435.727 194.178C435.953 194.308 436.165 194.513 436.363 194.793ZM434.046 197.223C433.594 197.941 433.181 198.799 432.805 199.797C432.429 200.795 432.104 201.821 431.831 202.873H436.281C435.994 201.821 435.662 200.795 435.286 199.797C434.91 198.799 434.517 197.941 434.107 197.223H434.046ZM445.663 208.687C444.959 208.687 444.422 208.598 444.053 208.421C443.691 208.243 443.445 207.952 443.315 207.549C443.192 207.146 443.13 206.609 443.13 205.939V196.731C443.13 196.048 443.192 195.508 443.315 195.111C443.445 194.708 443.691 194.421 444.053 194.25C444.422 194.072 444.959 193.983 445.663 193.983H448.811C450.281 193.983 451.566 194.202 452.667 194.639C453.774 195.077 454.635 195.819 455.251 196.865C455.866 197.904 456.173 199.332 456.173 201.151C456.173 202.969 455.866 204.432 455.251 205.539C454.635 206.64 453.774 207.44 452.667 207.939C451.566 208.438 450.281 208.687 448.811 208.687H445.663ZM447.611 196.68C447.16 196.68 446.853 196.776 446.689 196.967C446.525 197.158 446.443 197.487 446.443 197.951V204.719C446.443 205.177 446.525 205.505 446.689 205.703C446.853 205.902 447.16 206.001 447.611 206.001H448.083C449.546 206.001 450.677 205.642 451.477 204.924C452.284 204.206 452.687 202.962 452.687 201.192C452.687 200.009 452.503 199.093 452.133 198.444C451.771 197.787 451.245 197.329 450.554 197.07C449.864 196.81 449.033 196.68 448.063 196.68H447.611ZM461.27 208.687C460.566 208.687 460.029 208.598 459.66 208.421C459.297 208.243 459.051 207.952 458.922 207.549C458.798 207.146 458.737 206.609 458.737 205.939V196.731C458.737 196.048 458.798 195.508 458.922 195.111C459.051 194.708 459.297 194.421 459.66 194.25C460.029 194.072 460.566 193.983 461.27 193.983H466.089C466.253 193.983 466.376 194.01 466.458 194.065C466.636 194.188 466.82 194.335 467.012 194.506C467.203 194.677 467.405 194.882 467.617 195.121C467.685 195.21 467.719 195.282 467.719 195.337C467.719 195.398 467.685 195.467 467.617 195.542C467.405 195.781 467.203 195.986 467.012 196.157C466.82 196.328 466.636 196.475 466.458 196.598C466.362 196.653 466.239 196.68 466.089 196.68H463.218C462.767 196.68 462.459 196.776 462.295 196.967C462.131 197.158 462.049 197.487 462.049 197.951V199.941H465.73C465.894 199.941 466.017 199.968 466.099 200.023C466.277 200.146 466.462 200.293 466.653 200.464C466.844 200.635 467.046 200.84 467.258 201.079C467.326 201.168 467.36 201.24 467.36 201.294C467.36 201.356 467.326 201.424 467.258 201.499C467.046 201.739 466.844 201.944 466.653 202.115C466.462 202.285 466.277 202.432 466.099 202.555C466.004 202.61 465.88 202.637 465.73 202.637H462.049V204.709C462.049 205.167 462.131 205.495 462.295 205.693C462.459 205.891 462.767 205.99 463.218 205.99H466.427C466.591 205.99 466.714 206.018 466.797 206.073C466.974 206.196 467.159 206.343 467.35 206.513C467.542 206.684 467.743 206.889 467.955 207.129C468.024 207.218 468.058 207.289 468.058 207.344C468.058 207.406 468.024 207.474 467.955 207.549C467.743 207.788 467.542 207.993 467.35 208.164C467.159 208.335 466.974 208.482 466.797 208.605C466.701 208.66 466.578 208.687 466.427 208.687H461.27ZM369.332 228.687C368.829 228.687 368.445 228.624 368.182 228.497C367.923 228.37 367.747 228.162 367.654 227.874C367.567 227.586 367.523 227.203 367.523 226.724V220.147C367.523 219.659 367.567 219.273 367.654 218.99C367.747 218.702 367.923 218.497 368.182 218.375C368.445 218.248 368.829 218.184 369.332 218.184H371.346C372.518 218.184 373.419 218.399 374.048 218.829C374.678 219.259 374.993 219.864 374.993 220.645C374.993 221.031 374.905 221.383 374.73 221.7C374.554 222.017 374.322 222.288 374.034 222.513C373.751 222.738 373.441 222.906 373.104 223.018V223.048C373.533 223.106 373.922 223.248 374.268 223.472C374.615 223.692 374.891 223.98 375.096 224.337C375.306 224.688 375.411 225.094 375.411 225.552C375.411 226.236 375.245 226.812 374.913 227.281C374.586 227.745 374.131 228.096 373.55 228.336C372.974 228.57 372.31 228.687 371.558 228.687H369.332ZM369.888 226.029C369.888 226.356 369.947 226.59 370.064 226.732C370.181 226.873 370.401 226.944 370.723 226.944H371.28C371.773 226.944 372.169 226.817 372.466 226.563C372.769 226.309 372.921 225.963 372.921 225.523C372.921 225.103 372.774 224.774 372.481 224.534C372.188 224.295 371.81 224.176 371.346 224.176H371.353C371.236 224.176 371.148 224.158 371.089 224.124C370.963 224.041 370.831 223.946 370.694 223.839C370.562 223.726 370.418 223.592 370.262 223.436C370.213 223.372 370.189 223.326 370.189 223.297C370.189 223.258 370.213 223.211 370.262 223.157C370.418 223.001 370.562 222.867 370.694 222.755C370.831 222.642 370.963 222.547 371.089 222.469C371.158 222.435 371.246 222.418 371.353 222.418H371.346C371.634 222.418 371.898 222.31 372.137 222.095C372.381 221.881 372.503 221.544 372.503 221.085C372.503 220.621 372.374 220.313 372.115 220.162C371.856 220.006 371.524 219.927 371.119 219.927H370.723C370.401 219.927 370.181 219.996 370.064 220.133C369.947 220.269 369.888 220.504 369.888 220.836V226.029ZM377.007 232.21C376.827 232.21 376.69 232.191 376.597 232.152C376.505 232.117 376.426 232.073 376.363 232.02C376.236 231.898 376.099 231.727 375.953 231.507C375.919 231.453 375.882 231.39 375.843 231.317C375.804 231.248 375.784 231.19 375.784 231.141C375.784 231.087 375.797 231.038 375.821 230.994C375.845 230.95 375.875 230.909 375.909 230.87C375.987 230.767 376.082 230.66 376.194 230.548C376.307 230.44 376.402 230.355 376.48 230.291C376.534 230.247 376.578 230.218 376.612 230.203C376.646 230.194 376.675 230.189 376.7 230.189C376.724 230.189 376.761 230.194 376.81 230.203C376.859 230.213 376.932 230.218 377.029 230.218C377.366 230.218 377.718 230.108 378.084 229.888C378.45 229.669 378.812 229.256 379.168 228.651C378.797 228.309 378.431 227.882 378.069 227.369C377.713 226.851 377.391 226.292 377.103 225.692C376.815 225.086 376.583 224.483 376.407 223.883C376.236 223.282 376.151 222.728 376.151 222.22C376.151 222.113 376.177 222.027 376.231 221.964C376.456 221.685 376.776 221.395 377.191 221.092C377.264 221.043 377.33 221.019 377.388 221.019C377.452 221.019 377.518 221.043 377.586 221.092C377.811 221.253 377.999 221.405 378.15 221.546C378.306 221.688 378.438 221.827 378.546 221.964C378.599 222.027 378.626 222.117 378.626 222.235V222.205C378.626 222.591 378.672 222.999 378.765 223.428C378.858 223.858 378.985 224.278 379.146 224.688C379.307 225.094 379.488 225.462 379.688 225.794C379.888 226.121 380.096 226.383 380.311 226.578H380.347C380.445 226.392 380.552 226.126 380.67 225.78C380.792 225.428 380.906 225.04 381.014 224.615C381.121 224.185 381.209 223.76 381.277 223.341C381.346 222.916 381.38 222.54 381.38 222.213V222.235C381.38 222.117 381.404 222.027 381.453 221.964C381.566 221.827 381.697 221.688 381.849 221.546C382 221.405 382.183 221.253 382.398 221.092C382.466 221.043 382.53 221.019 382.588 221.019C382.657 221.019 382.72 221.043 382.779 221.092C382.999 221.253 383.184 221.405 383.336 221.546C383.487 221.688 383.616 221.827 383.724 221.964C383.773 222.027 383.797 222.115 383.797 222.227C383.792 222.672 383.707 223.253 383.541 223.97C383.375 224.683 383.133 225.457 382.816 226.292C382.498 227.127 382.112 227.945 381.658 228.746C380.98 229.952 380.247 230.831 379.461 231.383C378.675 231.934 377.857 232.21 377.007 232.21ZM383.797 222.213V222.235V222.227C383.797 222.222 383.797 222.218 383.797 222.213ZM376.151 222.213V222.22V222.235V222.213Z" fill="#2D333A"/>
    <defs>
        <filter id="filter0_n_2_44" x="279" y="0" width="192.515" height="184.353" filterUnits="userSpaceOnUse" color-interpolation-filters="sRGB">
            <feFlood flood-opacity="0" result="BackgroundImageFix"/>
            <feBlend mode="normal" in="SourceGraphic" in2="BackgroundImageFix" result="shape"/>
            <feTurbulence type="fractalNoise" baseFrequency="0.1428571492433548 0.1428571492433548" stitchTiles="stitch" numOctaves="3" result="noise" seed="519" />
            <feComponentTransfer in="noise" result="coloredNoise1">
                <feFuncR type="linear" slope="2" intercept="-0.5" />
                <feFuncG type="linear" slope="2" intercept="-0.5" />
                <feFuncB type="linear" slope="2" intercept="-0.5" />
                <feFuncA type="discrete" tableValues="0 0 0 0 0 0 0 0 0 0 0 0 0 0 0 0 0 0 0 1 1 1 1 1 1 1 1 1 1 1 0 0 0 0 0 0 0 0 0 0 0 0 0 0 0 0 0 0 0 0 0 0 0 0 0 0 0 0 0 0 0 0 0 0 0 0 0 0 0 0 0 0 0 0 0 0 0 0 0 0 0 0 0 0 0 0 0 0 0 0 0 0 0 0 0 0 0 0 0 0 "/>
            </feComponentTransfer>
                <feComposite operator="in" in2="shape" in="coloredNoise1" result="noise1Clipped" />
            <feComponentTransfer in="noise1Clipped" result="color1">
                <feFuncA type="table" tableValues="0 0.3" />
            </feComponentTransfer>
            <feMerge result="effect1_noise_2_44">
                <feMergeNode in="shape" />
                <feMergeNode in="color1" />
            </feMerge>
        </filter>
    </defs>
</svg>
