<svg width="209" height="385" viewBox="0 0 209 385" fill="none" xmlns="http://www.w3.org/2000/svg">
	<path d="M129.963 180.051C131.425 179.904 132.838 179.438 134.101 178.686C135.364 177.933 136.447 176.914 137.273 175.698C138.1 174.482 138.649 173.1 138.884 171.648C139.118 170.197 139.031 168.712 138.629 167.298L167.904 146.804L150.638 139.967L125.486 160.477C123.155 161.309 121.21 162.967 120.02 165.138C118.831 167.308 118.478 169.839 119.03 172.252C119.582 174.665 120.999 176.792 123.014 178.229C125.029 179.666 127.502 180.315 129.963 180.051Z" fill="#A0616A"/>
	<path d="M143.608 165.085C142.979 165.084 142.356 164.951 141.781 164.694C141.13 164.41 140.556 163.975 140.108 163.423C139.659 162.872 139.349 162.222 139.203 161.526L137.238 152.399C137.07 151.617 137.113 150.804 137.364 150.043C137.614 149.283 138.063 148.604 138.663 148.074L156.024 132.788L138.887 96.8828C137.695 94.386 137.49 91.5311 138.314 88.8899C139.138 86.2487 140.93 84.0165 143.33 82.6404C145.73 81.2643 148.562 80.8461 151.257 81.4695C153.953 82.0928 156.313 83.7118 157.866 86.0019L179.812 118.373C181.443 120.757 182.568 123.45 183.117 126.285C183.667 129.121 183.63 132.039 183.008 134.859C182.32 137.84 181.018 140.646 179.187 143.097C177.356 145.548 175.035 147.591 172.371 149.097L145.86 164.473C145.177 164.872 144.4 165.084 143.608 165.085Z" fill="#CCCCCC"/>
	<path d="M46.3436 145.57C47.5662 146.386 48.9529 146.924 50.4061 147.147C51.8593 147.369 53.3435 147.27 54.7543 146.857C56.1651 146.444 57.4681 145.726 58.5716 144.755C59.675 143.783 60.5521 142.582 61.141 141.235L96.7668 144.024L87.7852 127.771L55.3313 127.614C53.0029 126.775 50.4474 126.819 48.1493 127.738C45.8511 128.656 43.9698 130.387 42.862 132.6C41.7541 134.813 41.4967 137.356 42.1384 139.746C42.78 142.137 44.2763 144.209 46.3436 145.57Z" fill="#A0616A"/>
	<path d="M131.54 60.4666C145.105 60.4666 156.101 49.4702 156.101 35.9055C156.101 22.3408 145.105 11.3445 131.54 11.3445C117.975 11.3445 106.979 22.3408 106.979 35.9055C106.979 49.4702 117.975 60.4666 131.54 60.4666Z" fill="#A0616A"/>
	<path d="M59.223 371.902L47.473 368.406L55.366 321.418L72.709 326.579L59.223 371.902Z" fill="#A0616A"/>
	<path d="M58.8312 384.185L20.9423 372.911L21.0848 372.432C21.661 370.495 22.613 368.691 23.8864 367.122C25.1598 365.554 26.7298 364.251 28.5067 363.289C30.2835 362.327 32.2325 361.724 34.2422 361.516C36.252 361.307 38.2832 361.496 40.2198 362.072L40.2208 362.072L63.362 368.958L58.8312 384.185Z" fill="#2F2E41"/>
	<path d="M187.962 371.301L175.702 371.3L169.87 324.012L181.964 324.013L187.962 371.301Z" fill="#A0616A"/>
	<path d="M191.088 383.185L151.558 383.183V382.683C151.558 380.663 151.956 378.662 152.729 376.795C153.502 374.928 154.635 373.232 156.064 371.803C157.493 370.375 159.189 369.241 161.056 368.468C162.923 367.695 164.924 367.297 166.944 367.297L191.089 367.298L191.088 383.185Z" fill="#2F2E41"/>
	<path d="M63.7438 358H51.4342C50.7744 358 50.1226 357.855 49.5252 357.575C48.9277 357.295 48.3991 356.887 47.9768 356.38C47.5546 355.873 47.2489 355.279 47.0816 354.641C46.9142 354.003 46.8892 353.335 47.0084 352.687L64.2494 258.82C64.2328 190.434 91.1391 150.823 91.4108 150.431L91.7392 149.957L142.026 154.061L192.149 351.604C192.313 352.251 192.332 352.925 192.203 353.58C192.074 354.234 191.802 354.851 191.406 355.388C191.009 355.924 190.498 356.365 189.91 356.679C189.322 356.994 188.672 357.174 188.006 357.206L174.175 357.877C173.239 357.926 172.312 357.679 171.523 357.173C170.734 356.666 170.124 355.925 169.779 355.054L116.79 222.586C116.685 222.296 116.489 222.048 116.232 221.879C115.975 221.709 115.671 221.626 115.363 221.644C115.056 221.646 114.758 221.745 114.51 221.925C114.262 222.106 114.077 222.359 113.981 222.65L67.9945 354.978C67.6871 355.86 67.1128 356.625 66.3512 357.167C65.5895 357.708 64.6783 357.999 63.7438 358Z" fill="#2F2E41"/>
	<path d="M143.079 158.027L142.695 157.999L89.1547 153.958L98.546 94.2285C99.5765 87.5613 102.735 81.406 107.551 76.6815C112.367 71.9569 118.582 68.9163 125.268 68.0137C125.679 67.9561 126.093 67.8998 126.51 67.8448C131.762 67.1537 137.104 67.8245 142.023 69.7929C146.941 71.7613 151.271 74.961 154.596 79.085C158.001 83.2325 160.281 88.1859 161.219 93.4692C162.157 98.7525 161.72 104.188 159.951 109.254L143.079 158.027Z" fill="#CCCCCC"/>
	<path d="M115.844 142.43C113.671 144.175 111.175 145.474 108.498 146.252C105.822 147.03 103.018 147.273 100.248 146.965L69.2614 143.629C68.553 143.553 67.8729 143.31 67.277 142.919C66.681 142.529 66.1863 142.003 65.8335 141.384C65.4807 140.765 65.2798 140.071 65.2474 139.359C65.2151 138.648 65.3522 137.938 65.6474 137.29L69.7797 128.219C70.116 127.479 70.6463 126.845 71.3143 126.382C71.9824 125.92 72.7631 125.648 73.5736 125.594L96.1591 124.08L103.574 84.9982C104.052 82.4896 105.39 80.2262 107.357 78.5973C109.324 76.9684 111.797 76.076 114.351 76.0735C115.894 76.0665 117.421 76.3885 118.83 77.0179C120.239 77.6474 121.497 78.5698 122.521 79.7237C124.463 81.9457 125.46 84.8378 125.301 87.7841L123.864 126.531C123.769 129.461 123.065 132.339 121.797 134.983C120.529 137.626 118.725 139.976 116.5 141.885C116.284 142.071 116.065 142.253 115.844 142.43Z" fill="#CCCCCC"/>
	<path d="M112.863 29.7715C109.805 30.9578 106.582 31.6669 103.309 31.8739C100.016 31.9151 96.5156 30.7745 94.7137 28.2667C94.0225 27.1712 93.5761 25.9393 93.4054 24.6553C93.2348 23.3713 93.3437 22.0655 93.7248 20.8275C94.407 18.3178 95.6349 15.9896 97.3207 14.0091C99.0065 12.0287 101.109 10.4447 103.477 9.37037C105.966 8.24149 108.653 7.61512 111.385 7.5272C114.116 7.43928 116.838 7.89156 119.395 8.85804C121.243 3.2404 128.203 0.183033 134.645 0.0100826C147.805 -0.343097 159.571 8.63002 165.289 19.4197C171.007 30.2094 171.842 42.5427 172.197 54.5166C172.284 57.4369 172.32 60.4819 170.937 63.1181C168.877 67.0438 164.197 69.158 159.785 70.8345C148.215 75.2239 136.279 78.579 124.117 80.8604C129.957 77.1279 131.809 69.094 128.111 63.5412C126.301 60.8243 123.329 58.5625 122.848 55.4159C122.272 51.643 125.491 48.3436 126.682 44.6917C127.284 42.7147 127.311 40.6073 126.76 38.6154C126.21 36.6235 125.104 34.8291 123.573 33.4417C121.906 31.9936 119.912 30.971 117.764 30.4614C115.615 29.9519 113.375 29.9706 111.235 30.516" fill="#2F2E41"/>
</svg>
